{"glyphs":{"0":{"ha":693,"x_min":42,"x_max":651,"o":"m 385 0 l 385 186 q 430 220 414 193 q 453 288 446 247 q 462 376 460 328 q 464 471 464 424 l 464 501 q 462 597 464 549 q 453 685 460 644 q 430 752 446 725 q 385 786 414 779 l 385 972 q 476 953 429 972 q 563 882 524 933 q 627 735 603 831 q 651 486 651 639 q 627 238 651 333 q 563 90 603 142 q 476 19 524 39 q 385 0 429 0 m 308 0 q 217 19 264 0 q 130 90 169 39 q 66 238 90 142 q 42 486 42 333 q 66 735 42 639 q 130 882 90 831 q 217 953 169 933 q 308 972 264 972 l 308 786 q 263 752 279 779 q 240 685 247 725 q 231 597 233 644 q 229 501 229 549 l 229 471 q 231 376 229 424 q 240 288 233 328 q 263 220 247 247 q 308 186 279 193 l 308 0 z "},"1":{"ha":385,"x_min":42,"x_max":343,"o":"m 147 0 l 147 714 l 42 714 l 42 889 l 147 972 l 343 972 l 343 0 l 147 0 z "},"2":{"ha":688,"x_min":42,"x_max":646,"o":"m 71 264 q 86 332 71 300 q 126 390 101 364 q 182 441 151 417 q 243 486 213 465 q 299 526 274 507 q 383 589 346 563 q 443 642 421 615 q 465 704 465 669 q 452 751 465 732 q 418 781 439 771 q 372 792 397 792 l 372 972 q 528 933 468 972 q 617 832 589 894 q 646 697 646 769 q 606 558 646 615 q 476 435 567 500 q 421 397 449 414 q 369 363 393 379 q 328 331 346 347 q 301 299 311 315 q 290 264 290 283 l 71 264 m 71 0 l 71 192 l 632 192 l 632 0 l 71 0 m 210 692 l 42 724 q 77 844 42 788 q 170 936 113 900 q 296 972 228 972 l 296 792 q 264 783 285 792 q 226 753 243 775 q 210 692 210 732 z "},"3":{"ha":697,"x_min":42,"x_max":656,"o":"m 372 0 l 372 181 q 419 192 396 183 q 459 223 443 201 q 475 283 475 244 q 467 327 475 307 q 440 363 460 347 q 386 387 421 378 q 296 396 351 396 l 296 576 q 386 585 351 576 q 440 610 421 594 q 467 647 460 626 q 475 689 475 667 q 442 767 475 747 q 372 792 408 788 l 372 972 q 463 958 414 972 q 556 911 513 943 q 628 826 600 879 q 656 696 656 774 q 624 556 656 607 q 563 486 592 506 q 624 416 592 467 q 656 276 656 365 q 628 147 656 200 q 556 61 600 93 q 463 15 513 29 q 372 0 414 0 m 296 0 q 170 36 228 0 q 77 129 113 72 q 42 249 42 186 l 210 281 q 226 219 210 242 q 264 189 243 197 q 296 181 285 181 l 296 0 m 210 692 l 42 724 q 77 844 42 788 q 170 936 113 900 q 296 972 228 972 l 296 792 q 264 782 285 790 q 226 753 243 774 q 210 692 210 732 z "},"4":{"ha":682,"x_min":28,"x_max":640,"o":"m 371 0 l 371 974 l 565 974 l 565 378 l 640 378 l 640 197 l 565 197 l 565 0 l 371 0 m 28 197 l 28 378 l 292 831 l 292 481 l 228 378 l 292 378 l 292 197 l 28 197 z "},"5":{"ha":722,"x_min":42,"x_max":681,"o":"m 222 397 l 63 492 l 103 972 l 601 972 l 601 792 l 271 792 l 254 614 q 283 619 268 617 q 317 621 299 621 l 317 450 q 256 431 282 447 q 222 397 231 415 m 313 -1 q 183 34 244 -1 q 81 126 121 69 q 42 244 42 182 l 210 276 q 232 223 211 244 q 277 190 253 201 q 313 179 301 179 l 313 -1 m 392 0 l 392 175 q 438 192 417 179 q 473 222 458 204 q 495 263 488 240 q 503 311 503 285 q 493 365 503 340 q 467 407 483 389 q 431 436 451 425 q 392 450 411 447 l 392 621 q 556 574 492 619 q 650 457 619 528 q 681 310 681 386 q 639 144 681 213 q 531 38 597 75 q 392 0 465 1 z "},"6":{"ha":701,"x_min":42,"x_max":660,"o":"m 322 -1 q 176 42 232 -1 q 92 158 121 86 q 52 315 63 229 q 42 485 42 400 q 47 602 42 538 q 67 732 51 667 q 113 851 82 797 q 194 939 143 906 q 322 972 246 972 l 322 792 q 269 761 288 786 q 242 702 250 736 q 231 633 233 668 q 229 572 229 599 q 274 585 247 581 q 322 590 301 590 l 322 410 q 278 385 296 403 q 252 343 261 367 q 243 294 243 319 q 248 257 243 275 q 263 223 253 239 q 288 196 272 207 q 322 179 303 185 l 322 -1 m 397 -1 l 397 179 q 441 203 424 186 q 467 245 458 221 q 476 294 476 269 q 467 343 476 319 q 441 385 458 367 q 397 410 424 403 l 397 590 q 542 550 483 590 q 630 443 600 510 q 660 299 660 376 q 624 140 660 208 q 528 35 588 72 q 397 -1 468 -1 m 479 725 q 456 765 472 751 q 424 785 440 779 q 397 792 407 792 l 397 972 q 533 930 471 972 q 626 825 596 888 l 479 725 z "},"7":{"ha":624,"x_min":42,"x_max":596,"o":"m 199 0 q 214 203 199 103 q 256 395 229 303 q 315 568 282 488 q 383 715 349 649 l 582 715 q 504 544 539 632 q 444 366 469 457 q 406 183 419 275 q 393 0 393 90 l 199 0 m 42 792 l 42 972 l 596 972 l 596 792 l 42 792 z "},"8":{"ha":683,"x_min":42,"x_max":642,"o":"m 382 -3 l 382 176 q 427 197 410 181 q 453 238 444 214 q 463 286 463 261 q 458 323 463 306 q 443 356 453 340 q 418 381 433 371 q 383 396 403 392 l 383 574 q 427 595 410 579 q 453 635 444 611 q 463 683 463 658 q 453 733 463 710 q 427 772 444 756 q 382 793 410 789 l 382 972 q 471 952 425 972 q 556 894 517 932 q 618 804 594 857 q 642 685 642 751 q 611 555 642 607 q 553 485 581 503 q 611 415 581 467 q 642 285 642 363 q 618 165 642 218 q 556 75 594 113 q 471 17 517 38 q 382 -3 425 -3 m 301 -3 q 213 17 258 -3 q 128 75 167 38 q 65 165 89 113 q 42 285 42 218 q 72 415 42 363 q 131 485 103 467 q 72 555 103 503 q 42 685 42 607 q 65 804 42 751 q 128 894 89 857 q 213 952 167 932 q 301 972 258 972 l 301 793 q 257 772 275 789 q 230 733 239 756 q 221 683 221 710 q 230 635 221 658 q 256 595 239 611 q 300 574 274 579 l 300 396 q 265 381 281 392 q 240 356 250 371 q 226 323 231 340 q 221 286 221 306 q 230 238 221 261 q 257 197 239 214 q 301 176 275 181 l 301 -3 z "},"9":{"ha":701,"x_min":42,"x_max":660,"o":"m 379 -1 l 379 179 q 437 206 417 182 q 464 265 457 231 q 472 336 471 300 q 472 399 472 372 q 452 391 464 394 q 427 385 440 388 q 402 382 414 383 q 379 381 390 381 l 379 561 q 439 606 419 572 q 458 676 458 639 q 453 714 458 696 q 439 748 449 732 q 414 775 429 764 q 379 792 399 786 l 379 972 q 526 928 471 972 q 611 811 582 885 q 650 647 640 738 q 660 460 660 556 q 656 356 660 415 q 638 233 653 296 q 594 117 624 171 q 512 31 564 64 q 379 -1 460 -1 m 304 -1 q 163 41 219 -1 q 75 146 107 83 l 222 246 q 258 198 233 215 q 304 179 282 181 l 304 -1 m 304 381 q 160 421 218 381 q 72 528 101 461 q 42 672 42 594 q 78 831 42 764 q 174 935 114 899 q 304 972 235 972 l 304 792 q 269 775 285 786 q 244 748 254 764 q 230 714 235 732 q 225 676 225 696 q 245 606 225 639 q 304 561 265 572 l 304 381 z "},"අ":{"ha":756,"x_min":42,"x_max":714,"o":"m 357 0 l 332 0 q 188 31 254 0 q 81 123 121 61 q 42 279 42 185 q 82 435 42 374 q 194 528 122 497 q 356 558 265 558 l 435 558 q 421 601 435 585 q 385 626 407 618 q 338 635 363 635 q 281 622 307 635 q 244 583 254 608 l 81 638 q 133 730 96 693 q 223 785 171 767 q 331 803 275 803 q 465 775 400 803 q 572 693 531 747 q 614 558 614 639 l 614 365 l 356 365 q 311 362 339 365 q 262 340 283 358 q 240 279 240 322 q 270 208 240 228 q 335 189 300 189 l 357 189 l 357 0 m 433 -235 l 433 528 q 451 638 433 588 q 519 728 468 688 q 672 804 571 769 l 714 603 q 646 576 667 590 q 619 544 625 561 q 614 503 614 526 l 614 194 l 686 194 l 686 0 l 614 0 l 614 -235 l 433 -235 z "},"ආ":{"ha":1140,"x_min":42,"x_max":1092,"o":"m 790 0 l 790 196 l 818 196 q 861 204 846 196 q 884 226 876 213 q 894 254 892 239 q 896 281 896 269 l 896 489 q 894 520 896 503 q 884 553 892 538 q 861 578 876 568 q 818 589 846 589 l 790 589 l 790 783 l 818 783 q 975 746 915 783 q 1063 645 1035 708 q 1092 503 1092 582 l 1092 281 q 1063 138 1092 201 q 975 38 1035 75 q 818 0 915 0 l 790 0 m 357 0 l 332 0 q 188 31 254 0 q 81 123 121 61 q 42 279 42 185 q 82 435 42 374 q 194 528 122 497 q 356 558 265 558 l 435 558 q 421 601 435 585 q 385 626 407 618 q 338 635 363 635 q 281 622 307 635 q 244 583 254 608 l 81 638 q 133 730 96 693 q 223 785 171 767 q 331 803 275 803 q 465 775 400 803 q 572 693 531 747 q 614 558 614 639 l 614 365 l 356 365 q 311 362 339 365 q 262 340 283 358 q 240 279 240 322 q 270 208 240 228 q 335 189 300 189 l 357 189 l 357 0 m 433 -235 l 433 528 q 451 638 433 588 q 519 728 468 688 q 672 804 571 769 l 714 603 q 646 576 667 590 q 619 544 625 561 q 614 503 614 526 l 614 194 l 686 194 l 686 0 l 614 0 l 614 -235 l 433 -235 z "},"ඇ":{"ha":1140,"x_min":42,"x_max":1113,"o":"m 1082 0 q 943 24 1008 0 q 838 103 878 49 q 797 247 797 157 l 797 347 q 803 426 797 393 q 822 485 810 458 q 854 541 835 513 q 901 608 874 569 l 804 608 l 804 797 l 1113 797 l 1113 608 q 1053 524 1076 558 q 1016 464 1029 489 q 997 418 1003 439 q 992 372 992 397 l 992 281 q 1001 239 992 256 q 1022 214 1010 222 q 1048 202 1035 206 q 1069 199 1061 199 l 1113 199 l 1113 0 l 1082 0 m 357 0 l 332 0 q 188 31 254 0 q 81 123 121 61 q 42 279 42 185 q 82 435 42 374 q 194 528 122 497 q 356 558 265 558 l 435 558 q 421 601 435 585 q 385 626 407 618 q 338 635 363 635 q 281 622 307 635 q 244 583 254 608 l 81 638 q 133 730 96 693 q 223 785 171 767 q 331 803 275 803 q 465 775 400 803 q 572 693 531 747 q 614 558 614 639 l 614 365 l 356 365 q 311 362 339 365 q 262 340 283 358 q 240 279 240 322 q 270 208 240 228 q 335 189 300 189 l 357 189 l 357 0 m 433 -235 l 433 528 q 451 638 433 588 q 519 728 468 688 q 672 804 571 769 l 714 603 q 646 576 667 590 q 619 544 625 561 q 614 503 614 526 l 614 194 l 686 194 l 686 0 l 614 0 l 614 -235 l 433 -235 z "},"ඈ":{"ha":1140,"x_min":42,"x_max":1099,"o":"m 1068 0 q 933 23 994 0 q 834 90 871 46 q 797 199 797 135 l 797 254 q 811 314 797 288 q 849 366 825 340 q 904 419 874 392 l 797 419 l 797 572 l 918 644 l 797 644 l 797 797 l 1099 797 l 1099 644 l 975 572 l 1099 572 l 1099 419 q 1042 373 1064 393 q 1010 337 1021 353 q 997 306 1000 321 q 993 272 993 290 l 993 267 q 1000 233 993 246 q 1019 212 1007 219 q 1044 201 1031 204 q 1069 199 1057 199 l 1099 199 l 1099 0 l 1068 0 m 357 0 l 332 0 q 188 31 254 0 q 81 123 121 61 q 42 279 42 185 q 82 435 42 374 q 194 528 122 497 q 356 558 265 558 l 435 558 q 421 601 435 585 q 385 626 407 618 q 338 635 363 635 q 281 622 307 635 q 244 583 254 608 l 81 638 q 133 730 96 693 q 223 785 171 767 q 331 803 275 803 q 465 775 400 803 q 572 693 531 747 q 614 558 614 639 l 614 365 l 356 365 q 311 362 339 365 q 262 340 283 358 q 240 279 240 322 q 270 208 240 228 q 335 189 300 189 l 357 189 l 357 0 m 433 -235 l 433 528 q 451 638 433 588 q 519 728 468 688 q 672 804 571 769 l 714 603 q 646 576 667 590 q 619 544 625 561 q 614 503 614 526 l 614 194 l 686 194 l 686 0 l 614 0 l 614 -235 l 433 -235 z "},"ඉ":{"ha":790,"x_min":42,"x_max":749,"o":"m 272 0 l 272 178 l 313 178 q 413 190 368 178 q 491 226 458 201 q 541 291 524 251 q 558 386 558 331 l 558 479 q 549 542 558 517 q 524 581 540 567 q 484 601 507 594 q 433 607 461 607 l 433 803 l 456 803 q 595 771 528 803 q 706 680 663 739 q 749 540 749 621 l 749 346 q 719 197 749 261 q 639 88 689 132 q 526 22 589 44 q 399 0 464 0 l 272 0 m 344 -283 q 220 -260 271 -283 q 138 -197 169 -236 q 90 -112 106 -158 l 275 -65 q 290 -89 279 -79 q 315 -103 300 -99 q 344 -108 331 -108 q 381 -101 365 -108 q 404 -84 396 -94 q 413 -62 413 -74 l 603 -62 q 573 -175 603 -125 q 485 -254 543 -225 q 344 -283 428 -283 m 288 244 q 138 274 192 244 q 63 349 85 304 q 42 442 42 394 l 42 542 q 85 681 42 622 q 195 771 128 739 q 335 803 263 803 l 357 803 l 357 607 l 335 607 q 294 601 313 607 q 263 584 276 596 q 241 556 249 572 q 233 518 233 539 l 233 481 q 235 463 233 472 q 246 446 238 453 q 272 439 254 439 q 306 453 300 439 q 311 482 311 468 l 311 507 l 492 507 l 492 385 q 488 353 492 375 q 467 306 485 331 q 406 263 449 281 q 288 244 364 244 z "},"ඊ":{"ha":846,"x_min":42,"x_max":846,"o":"m 744 815 q 673 845 703 815 q 643 915 643 875 q 673 987 643 957 q 744 1017 703 1017 q 816 987 786 1017 q 846 915 846 957 q 816 845 846 875 q 744 815 786 815 m 171 968 q 99 998 129 968 q 69 1068 69 1028 q 99 1140 69 1110 q 171 1169 129 1169 q 242 1140 213 1169 q 272 1068 272 1110 q 242 998 272 1028 q 171 968 213 968 m 339 -7 q 233 10 286 -7 q 138 68 181 28 q 68 174 94 108 q 42 335 42 239 l 42 549 q 49 638 42 599 q 74 717 56 678 q 126 800 92 756 l 406 1164 l 561 1054 l 310 717 q 265 653 281 678 q 242 604 249 629 q 236 536 236 579 l 236 326 q 259 224 236 256 q 339 193 282 193 l 339 -7 m 497 783 q 622 751 574 783 q 692 662 669 719 q 715 525 715 604 l 715 297 q 674 112 715 178 q 564 20 632 46 q 417 -7 496 -6 l 417 193 q 501 224 481 193 q 521 326 521 256 l 521 454 q 517 537 521 506 q 492 583 513 568 q 419 599 471 599 l 311 599 l 311 606 l 439 783 l 497 783 z "},"උ":{"ha":790,"x_min":42,"x_max":790,"o":"m 372 -235 q 260 -212 318 -235 q 153 -146 203 -190 q 72 -35 103 -101 q 42 118 42 31 l 42 185 q 53 308 42 244 q 99 428 65 372 q 197 518 132 483 q 367 553 261 553 l 533 553 q 513 603 533 586 q 469 625 493 619 q 433 631 446 631 q 403 628 424 631 q 365 617 383 626 q 338 583 346 607 l 178 644 q 233 731 193 697 q 326 782 272 765 q 438 799 381 799 q 572 772 510 799 q 674 687 635 744 q 713 535 713 629 l 713 357 l 372 357 q 304 345 331 357 q 263 310 278 333 q 243 256 249 288 q 238 185 238 225 l 238 118 q 248 48 238 76 q 276 3 258 19 q 311 -23 293 -14 q 346 -35 329 -32 q 372 -39 363 -37 l 372 -235 m 450 -233 l 450 -39 q 503 -33 478 -39 q 548 -16 528 -28 q 582 14 568 -4 q 603 58 596 32 l 790 6 q 740 -113 775 -67 q 656 -186 704 -160 q 555 -223 608 -212 q 450 -233 501 -233 z "},"ඌ":{"ha":1351,"x_min":42,"x_max":1310,"o":"m 1051 -11 q 933 15 990 -11 q 840 96 876 42 q 804 231 804 150 l 804 281 l 981 281 l 981 231 q 992 189 981 206 q 1022 163 1004 172 q 1060 154 1040 154 q 1096 163 1079 154 q 1123 188 1113 171 q 1133 231 1133 206 l 1133 588 q 1126 608 1133 601 q 1113 615 1119 615 q 1097 608 1104 615 q 1090 588 1090 601 l 1090 521 q 1049 431 1090 463 q 957 400 1008 400 q 885 417 919 400 q 827 471 850 435 q 804 563 804 507 l 804 783 l 932 783 l 932 615 q 939 598 932 604 q 954 592 946 592 q 968 598 961 592 q 975 615 975 604 l 975 642 q 998 726 975 693 q 1058 776 1021 760 q 1133 793 1094 793 q 1256 745 1203 793 q 1310 607 1308 697 l 1310 231 q 1272 98 1310 151 q 1176 17 1235 44 q 1051 -11 1117 -11 m 372 -235 q 260 -212 318 -235 q 153 -146 203 -190 q 72 -35 103 -101 q 42 118 42 31 l 42 185 q 53 308 42 244 q 99 428 65 372 q 197 518 132 483 q 367 553 261 553 l 533 553 q 513 603 533 586 q 469 625 493 619 q 433 631 446 631 q 403 628 424 631 q 365 617 383 626 q 338 583 346 607 l 178 644 q 233 731 193 697 q 326 782 272 765 q 438 799 381 799 q 572 772 510 799 q 674 687 635 744 q 713 535 713 629 l 713 357 l 372 357 q 304 345 331 357 q 263 310 278 333 q 243 256 249 288 q 238 185 238 225 l 238 118 q 248 48 238 76 q 276 3 258 19 q 311 -23 293 -14 q 346 -35 329 -32 q 372 -39 363 -37 l 372 -235 m 450 -233 l 450 -39 q 503 -33 478 -39 q 548 -16 528 -28 q 582 14 568 -4 q 603 58 596 32 l 790 6 q 740 -113 775 -67 q 656 -186 704 -160 q 555 -223 608 -212 q 450 -233 501 -233 z "},"ඍ":{"ha":1410,"x_min":42,"x_max":1368,"o":"m 292 -11 q 163 18 219 -11 q 74 99 106 47 q 42 222 42 151 l 42 281 l 235 281 l 235 238 q 255 197 235 211 q 299 182 275 182 q 342 197 322 182 q 363 240 363 211 l 363 281 l 540 281 l 540 240 q 560 197 540 211 q 604 182 581 182 q 648 197 628 182 q 668 238 668 211 l 668 281 l 861 281 l 861 222 q 830 94 861 146 q 743 15 799 42 q 614 -11 688 -11 q 522 3 564 -11 q 447 50 479 17 q 378 3 417 17 q 292 -11 339 -11 m 42 349 l 42 388 q 63 481 42 446 q 116 532 83 515 q 186 553 149 549 q 256 558 224 558 l 647 558 q 717 553 679 558 q 787 532 754 549 q 840 481 819 515 q 861 388 861 446 l 861 349 l 668 349 l 668 358 q 662 376 668 368 q 644 388 656 383 q 617 393 633 393 l 286 393 q 258 388 269 393 q 240 376 246 383 q 235 358 235 368 l 235 349 l 42 349 m 363 525 l 363 551 q 348 599 363 583 q 314 621 333 615 q 282 626 294 626 q 241 613 257 626 q 221 585 225 600 l 57 639 q 146 759 82 719 q 283 799 210 799 q 342 792 313 799 q 399 774 371 786 q 451 744 426 763 q 504 774 476 763 q 561 792 532 786 q 619 799 590 799 q 757 759 693 799 q 846 639 821 719 l 682 585 q 662 613 678 600 q 621 626 646 626 q 590 621 608 626 q 556 599 571 615 q 540 551 540 583 l 540 525 l 363 525 m 1150 0 q 1044 24 1096 0 q 960 98 993 49 q 928 221 928 147 q 949 323 928 275 q 1017 401 969 371 q 1142 431 1064 431 l 1150 431 l 1150 272 l 1142 272 q 1104 258 1118 272 q 1090 222 1090 244 q 1109 179 1090 194 q 1150 164 1128 164 q 1186 179 1171 164 q 1201 225 1201 194 l 1201 531 q 1197 569 1201 550 q 1175 603 1192 589 q 1122 617 1158 617 l 997 617 l 997 797 l 1147 797 q 1260 765 1210 797 q 1339 678 1310 733 q 1368 553 1368 622 l 1368 218 q 1336 96 1368 144 q 1254 24 1304 47 q 1150 0 1204 0 z "},"ඏ":{"ha":1358,"x_min":42,"x_max":1317,"o":"m 193 -8 q 101 30 139 -8 q 63 122 63 68 q 101 215 63 176 q 193 253 139 253 q 285 215 247 253 q 324 122 324 176 q 285 30 324 68 q 193 -8 247 -8 m 74 69 q 48 165 54 115 q 42 281 42 215 l 224 281 q 231 194 224 232 q 247 119 238 157 l 74 69 m 42 349 l 42 461 q 80 631 42 556 q 184 750 118 706 q 332 794 250 794 q 446 772 389 794 l 446 586 l 414 597 q 353 607 388 607 q 294 593 324 607 q 244 540 264 579 q 224 426 224 501 l 224 349 l 42 349 m 1135 349 l 1135 426 q 1115 540 1135 501 q 1065 593 1094 579 q 1006 607 1036 607 q 944 597 971 607 l 913 586 l 913 772 q 1026 794 969 794 q 1175 750 1110 794 q 1278 631 1240 706 q 1317 461 1317 556 l 1317 349 l 1135 349 m 1285 69 l 1111 119 q 1128 194 1122 157 q 1135 281 1135 232 l 1317 281 q 1310 165 1317 215 q 1285 69 1304 115 m 1165 -8 q 1073 30 1111 -8 q 1035 122 1035 68 q 1073 215 1035 176 q 1165 253 1111 253 q 1258 215 1219 253 q 1296 122 1296 176 q 1258 30 1296 68 q 1165 -8 1219 -8 m 644 -17 q 375 58 460 -17 q 290 281 290 132 l 485 281 q 503 219 485 244 q 553 183 521 194 q 629 171 586 171 l 729 171 q 807 183 775 171 q 856 221 839 196 q 874 281 874 246 l 1068 281 q 981 60 1068 138 q 718 -17 894 -17 l 644 -17 m 292 349 q 320 478 292 433 q 400 541 349 524 q 518 558 451 558 l 831 558 q 958 542 906 558 q 1040 481 1011 526 q 1068 349 1068 436 l 875 349 q 874 367 875 357 q 864 385 872 378 q 835 393 856 393 l 533 393 q 501 385 511 393 q 488 367 490 378 q 485 349 485 357 l 292 349 m 590 525 l 590 551 q 576 599 590 583 q 542 621 561 615 q 510 626 522 626 q 469 613 485 626 q 449 585 453 600 l 285 639 q 374 759 310 719 q 511 799 438 799 q 569 792 540 799 q 626 774 599 786 q 679 744 654 763 q 732 774 704 763 q 789 792 760 786 q 847 799 818 799 q 985 759 921 799 q 1074 639 1049 719 l 910 585 q 890 613 906 600 q 849 626 874 626 q 817 621 836 626 q 783 599 799 615 q 768 551 768 583 l 768 525 l 590 525 z "},"ඐ":{"ha":1947,"x_min":42,"x_max":1906,"o":"m 1647 -11 q 1529 15 1586 -11 q 1436 96 1472 42 q 1400 231 1400 150 l 1400 281 l 1576 281 l 1576 231 q 1588 189 1576 206 q 1618 163 1600 172 q 1656 154 1636 154 q 1692 163 1675 154 q 1719 188 1708 171 q 1729 231 1729 206 l 1729 588 q 1722 608 1729 601 q 1708 615 1715 615 q 1693 608 1700 615 q 1686 588 1686 601 l 1686 521 q 1645 431 1686 463 q 1553 400 1604 400 q 1481 417 1515 400 q 1423 471 1446 435 q 1400 563 1400 507 l 1400 783 l 1528 783 l 1528 615 q 1535 598 1528 604 q 1550 592 1542 592 q 1564 598 1557 592 q 1571 615 1571 604 l 1571 642 q 1594 726 1571 693 q 1653 776 1617 760 q 1729 793 1690 793 q 1851 745 1799 793 q 1906 607 1904 697 l 1906 231 q 1868 98 1906 151 q 1772 17 1831 44 q 1647 -11 1713 -11 m 193 -8 q 101 30 139 -8 q 63 122 63 68 q 101 215 63 176 q 193 253 139 253 q 285 215 247 253 q 324 122 324 176 q 285 30 324 68 q 193 -8 247 -8 m 74 69 q 48 165 54 115 q 42 281 42 215 l 224 281 q 231 194 224 232 q 247 119 238 157 l 74 69 m 42 349 l 42 461 q 80 631 42 556 q 184 750 118 706 q 332 794 250 794 q 446 772 389 794 l 446 586 l 414 597 q 353 607 388 607 q 294 593 324 607 q 244 540 264 579 q 224 426 224 501 l 224 349 l 42 349 m 1135 349 l 1135 426 q 1115 540 1135 501 q 1065 593 1094 579 q 1006 607 1036 607 q 944 597 971 607 l 913 586 l 913 772 q 1026 794 969 794 q 1175 750 1110 794 q 1278 631 1240 706 q 1317 461 1317 556 l 1317 349 l 1135 349 m 1285 69 l 1111 119 q 1128 194 1122 157 q 1135 281 1135 232 l 1317 281 q 1310 165 1317 215 q 1285 69 1304 115 m 1165 -8 q 1073 30 1111 -8 q 1035 122 1035 68 q 1073 215 1035 176 q 1165 253 1111 253 q 1258 215 1219 253 q 1296 122 1296 176 q 1258 30 1296 68 q 1165 -8 1219 -8 m 644 -17 q 375 58 460 -17 q 290 281 290 132 l 485 281 q 503 219 485 244 q 553 183 521 194 q 629 171 586 171 l 729 171 q 807 183 775 171 q 856 221 839 196 q 874 281 874 246 l 1068 281 q 981 60 1068 138 q 718 -17 894 -17 l 644 -17 m 292 349 q 320 478 292 433 q 400 541 349 524 q 518 558 451 558 l 831 558 q 958 542 906 558 q 1040 481 1011 526 q 1068 349 1068 436 l 875 349 q 874 367 875 357 q 864 385 872 378 q 835 393 856 393 l 533 393 q 501 385 511 393 q 488 367 490 378 q 485 349 485 357 l 292 349 m 590 525 l 590 551 q 576 599 590 583 q 542 621 561 615 q 510 626 522 626 q 469 613 485 626 q 449 585 453 600 l 285 639 q 374 759 310 719 q 511 799 438 799 q 569 792 540 799 q 626 774 599 786 q 679 744 654 763 q 732 774 704 763 q 789 792 760 786 q 847 799 818 799 q 985 759 921 799 q 1074 639 1049 719 l 910 585 q 890 613 906 600 q 849 626 874 626 q 817 621 836 626 q 783 599 799 615 q 768 551 768 583 l 768 525 l 590 525 z "},"එ":{"ha":839,"x_min":42,"x_max":797,"o":"m 393 -7 q 238 31 306 -7 q 133 133 171 68 q 96 275 96 197 q 99 309 96 289 q 111 350 101 329 l 42 350 l 42 492 l 343 492 l 343 500 q 335 533 343 521 q 313 550 326 544 q 285 556 300 556 q 252 549 271 556 q 229 522 233 542 l 92 558 q 146 649 110 619 q 222 689 182 679 q 288 699 261 699 q 374 682 333 699 q 440 638 414 665 q 475 576 464 611 q 486 486 486 542 l 486 350 l 369 350 q 344 347 364 350 q 306 330 324 344 q 288 279 288 315 q 299 236 288 256 q 333 206 310 217 q 393 194 357 194 l 393 -7 m 471 -7 l 471 194 q 531 205 500 194 q 582 248 561 215 q 603 347 603 281 l 797 347 q 715 81 797 168 q 471 -7 632 -7 m 471 1049 q 638 1019 564 1049 q 754 917 711 989 q 797 718 797 846 l 797 347 l 603 347 l 603 706 q 580 834 603 794 q 486 874 557 874 l 471 874 l 471 853 q 476 809 471 831 q 499 774 481 788 q 553 761 517 761 l 553 613 q 408 644 464 613 q 328 729 353 676 q 303 842 303 782 l 303 1049 l 471 1049 z "},"ඒ":{"ha":839,"x_min":42,"x_max":797,"o":"m 607 719 l 607 1138 l 796 1138 l 796 719 l 607 719 m 393 -7 q 238 31 306 -7 q 133 133 171 68 q 96 275 96 197 q 99 309 96 289 q 111 350 101 329 l 42 350 l 42 492 l 343 492 l 343 500 q 335 533 343 521 q 313 550 326 544 q 285 556 300 556 q 252 549 271 556 q 229 522 233 542 l 92 558 q 146 649 110 619 q 222 689 182 679 q 288 699 261 699 q 374 682 333 699 q 440 638 414 665 q 475 576 464 611 q 486 486 486 542 l 486 350 l 369 350 q 344 347 364 350 q 306 330 324 344 q 288 279 288 315 q 299 236 288 256 q 333 206 310 217 q 393 194 357 194 l 393 -7 m 471 -7 l 471 194 q 531 205 500 194 q 582 248 561 215 q 603 347 603 281 l 797 347 q 715 81 797 168 q 471 -7 632 -7 m 471 1049 q 638 1019 564 1049 q 754 917 711 989 q 797 718 797 846 l 797 347 l 603 347 l 603 706 q 580 834 603 794 q 486 874 557 874 l 471 874 l 471 853 q 476 809 471 831 q 499 774 481 788 q 553 761 517 761 l 553 613 q 408 644 464 613 q 328 729 353 676 q 303 842 303 782 l 303 1049 l 471 1049 z "},"ඓ":{"ha":1474,"x_min":42,"x_max":1432,"o":"m 1028 -7 q 873 31 940 -7 q 768 133 806 68 q 731 275 731 197 q 733 309 731 289 q 746 350 736 329 l 676 350 l 676 492 l 978 492 l 978 500 q 969 533 978 521 q 948 550 961 544 q 919 556 935 556 q 887 549 906 556 q 864 522 868 542 l 726 558 q 781 649 744 619 q 856 689 817 679 q 922 699 896 699 q 1008 682 968 699 q 1075 638 1049 665 q 1110 576 1099 611 q 1121 486 1121 542 l 1121 350 l 1004 350 q 978 347 999 350 q 940 330 958 344 q 922 279 922 315 q 933 236 922 256 q 968 206 944 217 q 1028 194 992 194 l 1028 -7 m 1106 -7 l 1106 194 q 1165 205 1135 194 q 1217 248 1196 215 q 1238 347 1238 281 l 1432 347 q 1349 81 1432 168 q 1106 -7 1267 -7 m 1106 1049 q 1272 1019 1199 1049 q 1389 917 1346 989 q 1432 718 1432 846 l 1432 347 l 1238 347 l 1238 706 q 1215 834 1238 794 q 1121 874 1192 874 l 1106 874 l 1106 853 q 1110 809 1106 831 q 1133 774 1115 788 q 1188 761 1151 761 l 1188 613 q 1043 644 1099 613 q 963 729 988 676 q 938 842 938 782 l 938 1049 l 1106 1049 m 261 -7 q 142 25 186 -7 q 76 104 97 57 q 48 198 54 151 q 42 275 42 244 l 42 515 q 52 602 42 556 q 90 690 63 649 q 165 757 117 731 q 289 783 214 783 l 346 783 l 346 603 l 304 603 q 267 592 285 603 q 240 563 250 582 q 229 515 229 543 l 229 275 q 233 225 229 249 q 251 188 238 201 q 290 174 264 174 l 290 -7 l 261 -7 m 357 -7 l 357 174 q 394 188 382 174 q 406 228 406 203 l 406 274 q 398 299 406 292 q 377 309 390 307 q 344 311 364 311 l 324 311 l 324 492 l 444 492 q 519 481 486 492 q 573 440 553 469 q 593 354 593 410 l 593 218 q 569 107 593 158 q 503 24 546 56 q 400 -7 460 -7 l 357 -7 m 419 556 q 412 576 418 567 q 396 591 406 585 q 374 600 386 597 q 346 603 361 603 l 346 783 l 375 783 q 488 753 443 783 q 559 681 533 724 q 589 599 585 638 l 419 556 z "},"ඔ":{"ha":842,"x_min":42,"x_max":800,"o":"m 272 -11 q 155 18 207 -11 q 72 99 103 47 q 42 222 42 151 l 42 475 q 69 575 42 535 q 140 636 97 615 q 228 657 183 657 q 307 640 269 657 q 367 590 344 624 q 390 506 390 557 l 390 483 q 397 466 390 472 q 411 460 404 460 q 426 466 419 460 q 433 483 433 472 l 433 651 l 561 651 l 561 472 q 539 386 561 421 q 482 335 517 351 q 410 318 447 318 q 317 350 358 318 q 275 444 275 382 l 275 456 q 268 476 275 469 q 253 483 261 483 q 239 476 246 483 q 232 456 232 469 l 232 235 q 241 204 232 217 q 264 185 250 192 q 293 178 278 178 q 322 184 308 178 q 343 203 335 190 q 351 235 351 215 l 351 281 l 490 281 l 490 235 q 499 204 490 217 q 521 185 507 192 q 549 179 535 179 q 578 185 564 179 q 601 204 592 192 q 610 235 610 217 l 610 281 l 800 281 l 800 222 q 769 99 800 151 q 687 18 739 47 q 568 -11 635 -11 q 421 49 475 -11 q 351 2 390 15 q 272 -11 313 -11 m 239 736 l 49 786 q 76 892 49 844 q 148 976 103 940 q 249 1030 193 1011 q 364 1049 306 1049 l 364 857 q 302 848 331 857 q 256 813 274 839 q 239 736 239 786 m 610 281 l 610 706 q 589 812 610 781 q 531 849 568 843 q 443 856 493 856 l 443 1049 q 644 1017 565 1049 q 762 915 724 986 q 800 722 800 844 l 800 281 l 610 281 z "},"ඕ":{"ha":842,"x_min":42,"x_max":800,"o":"m 272 -11 q 155 18 207 -11 q 72 99 103 47 q 42 222 42 151 l 42 475 q 69 575 42 535 q 140 636 97 615 q 228 657 183 657 q 307 640 269 657 q 367 590 344 624 q 390 506 390 557 l 390 483 q 397 466 390 472 q 411 460 404 460 q 426 466 419 460 q 433 483 433 472 l 433 651 l 561 651 l 561 472 q 540 385 561 419 q 485 334 518 350 q 415 318 451 318 q 319 351 363 318 q 275 444 275 385 l 275 456 q 268 476 275 469 q 253 483 261 483 q 239 476 246 483 q 232 456 232 469 l 232 235 q 241 204 232 217 q 264 185 250 192 q 293 178 278 178 q 322 184 308 178 q 343 203 335 190 q 351 235 351 215 l 351 281 l 490 281 l 490 235 q 499 204 490 217 q 521 185 507 192 q 549 179 535 179 q 578 185 564 179 q 601 204 592 192 q 610 235 610 217 l 610 282 l 800 282 l 800 222 q 769 99 800 151 q 687 18 739 47 q 568 -11 635 -11 q 421 49 475 -11 q 351 2 390 15 q 272 -11 313 -11 m 610 282 l 610 632 q 592 693 610 674 q 547 719 575 713 q 483 725 518 725 l 483 906 q 665 877 594 906 q 767 794 735 849 q 800 658 800 739 l 800 282 l 610 282 m 94 725 l 94 906 l 143 906 q 113 944 122 924 q 103 988 103 965 q 126 1059 103 1025 q 187 1115 149 1093 q 268 1138 225 1138 l 394 1138 l 394 976 l 332 976 q 292 965 301 976 q 283 942 283 953 q 297 915 283 924 q 332 906 310 906 l 483 906 l 483 725 l 94 725 m 599 935 q 588 963 599 954 q 555 974 576 971 q 501 976 533 976 l 474 976 l 474 1138 l 546 1138 q 671 1122 624 1138 q 743 1079 718 1107 q 777 1015 768 1051 q 786 935 786 978 l 599 935 z "},"ඖ":{"ha":1431,"x_min":42,"x_max":1389,"o":"m 1131 -11 q 1013 15 1069 -11 q 919 96 956 42 q 883 231 883 150 l 883 281 l 1060 281 l 1060 231 q 1072 189 1060 206 q 1101 163 1083 172 q 1139 154 1119 154 q 1175 163 1158 154 q 1202 188 1192 171 q 1213 231 1213 206 l 1213 588 q 1206 608 1213 601 q 1192 615 1199 615 q 1176 608 1183 615 q 1169 588 1169 601 l 1169 521 q 1128 431 1169 463 q 1036 400 1088 400 q 964 417 999 400 q 906 471 929 435 q 883 563 883 507 l 883 783 l 1011 783 l 1011 615 q 1018 598 1011 604 q 1033 592 1025 592 q 1047 598 1040 592 q 1054 615 1054 604 l 1054 642 q 1077 726 1054 693 q 1137 776 1100 760 q 1213 793 1174 793 q 1335 745 1282 793 q 1389 607 1388 697 l 1389 231 q 1351 98 1389 151 q 1255 17 1314 44 q 1131 -11 1196 -11 m 272 -11 q 155 18 207 -11 q 72 99 103 47 q 42 222 42 151 l 42 475 q 69 575 42 535 q 140 636 97 615 q 228 657 183 657 q 307 640 269 657 q 367 590 344 624 q 390 506 390 557 l 390 483 q 397 466 390 472 q 411 460 404 460 q 426 466 419 460 q 433 483 433 472 l 433 651 l 561 651 l 561 472 q 539 386 561 421 q 482 335 517 351 q 410 318 447 318 q 317 350 358 318 q 275 444 275 382 l 275 456 q 268 476 275 469 q 253 483 261 483 q 239 476 246 483 q 232 456 232 469 l 232 235 q 241 204 232 217 q 264 185 250 192 q 293 178 278 178 q 322 184 308 178 q 343 203 335 190 q 351 235 351 215 l 351 281 l 490 281 l 490 235 q 499 204 490 217 q 521 185 507 192 q 549 179 535 179 q 578 185 564 179 q 601 204 592 192 q 610 235 610 217 l 610 281 l 800 281 l 800 222 q 769 99 800 151 q 687 18 739 47 q 568 -11 635 -11 q 421 49 475 -11 q 351 2 390 15 q 272 -11 313 -11 m 239 736 l 49 786 q 76 892 49 844 q 148 976 103 940 q 249 1030 193 1011 q 364 1049 306 1049 l 364 857 q 302 848 331 857 q 256 813 274 839 q 239 736 239 786 m 610 281 l 610 706 q 589 812 610 781 q 531 849 568 843 q 443 856 493 856 l 443 1049 q 644 1017 565 1049 q 762 915 724 986 q 800 722 800 844 l 800 281 l 610 281 z "},"ක":{"ha":1111,"x_min":42,"x_max":1069,"o":"m 278 788 q 399 760 347 788 q 468 697 450 732 l 340 558 q 317 607 340 594 q 272 619 293 619 q 223 601 242 619 q 204 558 204 582 l 42 610 q 91 717 51 678 q 182 772 131 756 q 278 788 233 788 m 729 797 q 895 759 818 797 q 1021 643 972 721 q 1069 446 1069 565 l 1069 285 q 1042 140 1069 204 q 954 37 1014 75 q 797 -1 894 -1 l 797 197 q 840 206 825 197 q 863 228 856 215 q 873 257 871 242 q 875 285 875 272 l 875 426 q 851 519 875 479 q 790 581 828 558 q 707 603 751 603 q 648 591 678 603 q 590 556 618 579 l 215 251 l 42 222 l 42 347 l 418 667 q 563 765 481 732 q 729 797 646 797 m 282 -10 q 192 11 236 -10 q 119 67 149 32 q 90 147 90 103 l 90 169 q 87 206 90 188 q 60 225 83 225 q 50 224 54 225 q 42 222 46 224 l 204 354 q 228 331 218 343 q 245 307 239 319 q 251 281 251 294 l 251 222 q 265 193 251 203 q 293 183 278 183 q 321 193 308 183 q 333 222 333 203 l 333 281 l 472 281 l 472 225 q 485 194 472 204 q 514 183 499 183 q 542 194 529 183 q 556 225 556 204 l 556 281 q 551 322 556 303 q 532 356 546 340 q 488 383 518 372 l 622 492 q 691 446 667 474 q 725 382 715 418 q 735 303 735 346 l 735 189 q 705 83 735 128 q 629 14 675 38 q 535 -10 583 -10 q 463 5 497 -10 q 403 50 428 19 q 350 5 382 19 q 282 -10 318 -10 z "},"ඛ":{"ha":868,"x_min":42,"x_max":826,"o":"m 611 -10 q 492 17 550 -10 q 398 90 435 44 q 361 186 361 135 l 361 308 l 549 308 l 549 244 q 562 212 549 222 q 590 201 575 201 q 619 212 606 201 q 632 244 632 222 l 632 694 q 607 816 632 776 q 500 856 582 856 l 457 856 l 457 1049 l 500 1049 q 667 1017 593 1049 q 783 910 740 986 q 826 694 826 833 l 826 276 q 795 108 826 171 q 715 18 764 46 q 611 -10 667 -10 m 361 -90 l 361 363 q 341 417 361 399 q 296 435 321 435 q 250 417 271 435 q 229 363 229 399 l 229 281 q 233 236 229 256 q 252 206 238 217 q 297 194 267 194 l 297 0 q 137 38 192 0 q 62 135 82 75 q 42 263 42 196 l 42 379 q 80 519 42 464 q 178 601 118 574 q 303 628 239 628 q 422 603 365 628 q 513 533 478 579 q 549 417 549 486 l 549 -90 l 361 -90 m 254 736 l 64 786 q 91 892 64 844 q 163 976 118 940 q 265 1030 208 1011 q 379 1049 321 1049 l 379 856 q 317 847 346 856 q 272 812 289 838 q 254 736 254 786 z "},"ග":{"ha":996,"x_min":42,"x_max":954,"o":"m 681 -11 l 681 188 q 733 203 717 188 q 754 238 750 218 q 758 275 758 258 l 758 483 q 754 526 758 503 q 733 567 750 550 q 681 585 717 585 l 681 783 q 838 745 778 783 q 926 642 897 707 q 954 497 954 578 l 954 275 q 926 130 954 194 q 838 27 897 65 q 681 -11 778 -11 m 315 -11 q 159 27 219 -11 q 70 130 99 65 q 42 275 42 194 l 42 497 q 70 642 42 578 q 159 745 99 707 q 315 783 219 783 l 315 585 q 263 567 279 585 q 242 526 246 550 q 238 483 238 503 l 238 275 q 242 238 238 258 q 263 203 246 218 q 315 188 279 188 l 315 -11 m 393 -11 l 393 188 q 446 201 431 188 q 465 232 461 214 q 468 261 468 250 q 465 291 468 274 q 446 322 461 308 q 393 335 431 335 l 376 335 l 376 482 l 515 482 q 569 468 540 482 q 619 415 599 454 q 640 300 640 376 l 640 231 q 578 47 640 104 q 393 -11 515 -11 m 353 335 l 353 486 q 374 635 353 568 q 449 743 394 703 q 603 783 503 783 l 603 585 q 559 567 571 585 q 547 527 547 550 q 546 486 546 504 l 546 335 l 353 335 z "},"ඝ":{"ha":954,"x_min":42,"x_max":913,"o":"m 324 -15 q 202 14 254 -15 q 122 95 150 43 q 93 218 93 147 l 93 276 l 286 276 l 286 231 q 298 199 286 214 q 340 183 310 183 q 383 200 372 183 q 393 231 393 217 q 403 265 393 246 q 440 283 413 283 l 565 283 q 603 265 593 283 q 613 231 613 246 q 624 200 613 217 q 665 183 635 183 q 708 201 697 183 q 719 231 719 218 l 719 276 l 913 276 l 913 218 q 884 95 913 147 q 804 14 856 43 q 682 -15 753 -15 q 573 15 608 -15 q 538 94 538 46 q 526 129 538 118 q 503 140 515 140 q 478 129 489 140 q 468 94 468 118 q 433 15 468 46 q 324 -15 397 -15 m 93 349 l 93 361 q 94 382 93 375 q 99 393 96 389 l 42 393 l 42 558 l 699 558 q 768 553 731 558 q 838 532 806 549 q 892 481 871 515 q 913 388 913 446 l 913 349 l 719 349 l 719 357 q 713 374 719 365 q 696 388 707 382 q 668 393 685 393 l 342 393 q 310 388 322 393 q 292 374 297 382 q 286 357 286 365 l 286 349 l 93 349 m 414 525 l 414 551 q 399 599 414 583 q 365 621 385 615 q 333 626 346 626 q 292 613 308 626 q 272 585 276 600 l 108 639 q 197 759 133 719 q 335 799 261 799 q 393 792 364 799 q 450 774 422 786 q 503 744 478 763 q 556 774 528 763 q 613 792 583 786 q 671 799 642 799 q 808 759 744 799 q 897 639 872 719 l 733 585 q 713 613 729 600 q 672 626 697 626 q 641 621 660 626 q 607 599 622 615 q 592 551 592 583 l 592 525 l 414 525 z "},"ඞ":{"ha":824,"x_min":42,"x_max":782,"o":"m 285 -11 q 163 18 218 -11 q 74 99 107 47 q 42 222 42 151 l 42 274 q 46 355 42 317 q 67 423 50 393 q 123 470 83 453 q 233 488 163 488 l 297 488 l 297 349 l 279 349 q 256 344 267 349 q 240 329 246 339 q 233 301 233 319 l 233 231 q 238 211 233 222 q 255 192 243 200 q 288 183 267 183 q 319 192 308 183 q 335 211 331 200 q 340 231 340 222 l 340 281 l 479 281 l 479 231 q 484 211 479 222 q 500 192 489 200 q 532 183 511 183 q 565 192 553 183 q 581 211 576 200 q 586 231 586 222 l 586 278 l 782 278 l 782 222 q 719 53 782 117 q 561 -11 657 -11 q 487 2 526 -11 q 417 49 447 15 q 358 1 390 14 q 285 -11 325 -11 m 297 349 l 297 488 l 318 488 q 342 498 333 488 q 350 519 350 508 q 342 542 350 532 q 318 551 335 551 l 242 551 q 224 547 231 551 q 213 535 217 542 q 210 519 210 528 l 74 519 q 92 601 74 563 q 148 665 111 640 q 240 690 185 690 l 331 690 q 423 665 386 690 q 478 601 460 640 q 497 519 497 563 q 478 438 497 476 q 423 374 460 399 q 331 349 386 349 l 297 349 m 240 733 l 50 783 q 78 890 50 842 q 154 973 107 938 q 260 1027 201 1008 q 376 1046 318 1046 l 376 854 q 312 845 343 854 q 260 810 281 836 q 240 733 240 783 m 586 278 l 586 689 q 577 784 586 749 q 540 836 568 819 q 454 853 513 853 l 454 1046 q 626 1018 553 1046 q 741 919 700 990 q 782 719 782 849 l 782 278 l 586 278 z "},"ඟ":{"ha":1265,"x_min":42,"x_max":1224,"o":"m 143 -40 q 79 65 101 14 q 49 172 57 117 q 42 290 42 228 l 42 399 q 53 556 42 485 q 99 677 65 626 q 197 756 132 728 q 368 783 263 783 l 585 783 l 585 585 l 311 585 q 269 573 285 585 q 244 538 253 561 q 233 480 236 515 q 231 399 231 444 l 231 290 q 235 192 231 235 q 260 110 240 150 q 324 15 279 69 l 143 -40 m 585 -11 q 428 27 489 -11 q 340 130 368 65 q 311 275 311 194 l 311 497 q 340 642 311 578 q 428 745 368 707 q 585 783 489 783 l 585 585 q 532 567 549 585 q 511 526 515 550 q 507 483 507 503 l 507 275 q 511 238 507 258 q 532 203 515 218 q 585 188 549 188 l 585 -11 m 663 -11 l 663 188 q 715 201 700 188 q 734 232 731 214 q 738 261 738 250 q 734 291 738 274 q 715 322 731 308 q 663 335 700 335 l 646 335 l 646 482 l 785 482 q 839 468 810 482 q 889 415 868 454 q 910 300 910 376 l 910 231 q 847 47 910 104 q 663 -11 785 -11 m 622 335 l 622 486 q 643 635 622 568 q 718 743 664 703 q 872 783 772 783 l 872 585 q 828 567 840 585 q 816 527 817 550 q 815 486 815 504 l 815 335 l 622 335 m 950 -11 l 950 188 q 1003 203 986 188 q 1024 238 1019 218 q 1028 275 1028 258 l 1028 483 q 1024 526 1028 503 q 1003 567 1019 550 q 950 585 986 585 l 950 783 q 1107 745 1047 783 q 1195 642 1167 707 q 1224 497 1224 578 l 1224 275 q 1195 130 1224 194 q 1107 27 1167 65 q 950 -11 1047 -11 z "},"ච":{"ha":839,"x_min":42,"x_max":797,"o":"m 471 -7 l 471 188 q 531 198 500 188 q 582 243 561 208 q 603 347 603 278 l 603 692 q 578 815 603 774 q 471 856 553 856 l 471 1049 q 638 1019 564 1049 q 754 919 711 990 q 797 722 797 847 l 797 347 q 715 81 797 168 q 471 -7 632 -7 m 393 -7 q 238 31 306 -7 q 133 133 171 69 q 96 271 96 196 q 99 309 96 288 q 111 350 101 331 l 42 350 l 42 492 l 343 492 l 343 500 q 335 533 343 521 q 313 550 326 544 q 285 556 300 556 q 252 549 271 556 q 229 522 233 542 l 92 558 q 146 649 110 619 q 222 689 182 679 q 288 699 261 699 q 374 682 333 699 q 440 638 414 665 q 475 576 464 611 q 486 486 486 542 l 486 350 l 369 350 q 326 339 344 350 q 299 310 308 328 q 289 272 289 292 q 300 232 289 251 q 334 200 311 213 q 393 188 357 188 l 393 -7 m 282 736 l 92 786 q 117 889 92 842 q 187 972 143 936 q 284 1028 231 1008 q 393 1049 338 1049 l 393 857 q 340 846 365 857 q 298 808 314 835 q 282 736 282 782 z "},"ඡ":{"ha":910,"x_min":42,"x_max":903,"o":"m 401 -17 q 132 58 217 -17 q 47 281 47 132 l 242 281 q 260 219 242 244 q 310 183 278 194 q 386 171 343 171 l 486 171 q 564 183 532 171 q 613 221 596 196 q 631 281 631 246 l 631 328 l 579 326 q 456 356 508 325 q 376 441 404 388 q 347 556 347 494 q 378 675 347 622 q 463 759 410 728 q 579 790 515 790 q 697 759 644 790 q 781 675 750 728 q 813 558 813 622 l 640 558 q 623 599 640 582 q 582 617 606 617 q 553 609 567 617 q 531 588 539 601 q 524 558 524 575 q 531 529 524 543 q 553 508 539 515 q 582 500 567 500 l 675 500 q 785 460 746 500 q 825 364 825 421 l 825 281 q 738 60 825 138 q 475 -17 651 -17 l 401 -17 m 49 349 q 77 478 49 433 q 157 541 106 524 q 275 558 208 558 l 347 558 q 333 601 347 586 q 299 621 318 615 q 267 626 281 626 q 226 613 242 626 q 206 585 210 600 l 42 639 q 131 759 67 719 q 274 799 194 799 q 327 794 301 799 q 377 778 353 789 q 422 751 401 768 q 461 711 443 735 l 536 393 l 290 393 q 258 385 268 393 q 244 367 247 378 q 242 349 242 357 l 49 349 m 422 725 l 760 1163 l 903 1057 l 599 653 l 422 725 z "},"ජ":{"ha":907,"x_min":42,"x_max":903,"o":"m 401 -17 q 132 58 217 -17 q 47 281 47 132 l 242 281 q 260 219 242 244 q 310 183 278 194 q 386 171 343 171 l 486 171 q 564 183 532 171 q 613 221 596 196 q 631 281 631 246 l 825 281 q 738 60 825 138 q 475 -17 651 -17 l 401 -17 m 49 349 q 77 478 49 433 q 157 541 106 524 q 275 558 208 558 l 588 558 q 715 542 663 558 q 797 481 768 526 q 825 349 825 436 l 632 349 q 631 367 632 357 q 621 385 629 378 q 592 393 613 393 l 290 393 q 258 385 268 393 q 244 367 247 378 q 242 349 242 357 l 49 349 m 347 525 l 347 551 q 333 599 347 583 q 299 621 318 615 q 267 626 279 626 q 226 613 242 626 q 206 585 210 600 l 42 639 q 131 759 67 719 q 268 799 194 799 q 326 792 297 799 q 383 774 356 786 q 436 744 411 763 q 489 774 461 763 q 546 792 517 786 q 604 799 575 799 q 742 759 678 799 q 831 639 806 719 l 667 585 q 647 613 663 600 q 606 626 631 626 q 574 621 593 626 q 540 599 556 615 q 525 551 525 583 l 525 525 l 347 525 m 422 725 l 760 1163 l 903 1057 l 599 653 l 422 725 z "},"ඣ":{"ha":1581,"x_min":42,"x_max":1539,"o":"m 42 222 l 42 360 l 465 707 q 610 779 531 756 q 765 803 689 803 q 941 769 860 803 q 1072 661 1022 735 q 1122 467 1122 588 l 932 467 q 906 558 932 525 q 842 603 881 590 q 764 615 804 615 q 670 599 715 615 q 590 556 625 583 l 215 251 l 42 222 m 204 558 l 42 610 q 91 717 51 678 q 182 772 131 756 q 278 788 233 788 q 399 760 347 788 q 468 697 450 732 l 340 558 q 317 607 340 594 q 272 619 293 619 q 223 601 242 619 q 204 558 204 582 m 1042 -11 q 919 18 975 -11 q 831 99 864 47 q 799 222 799 151 l 799 364 q 806 453 799 407 q 842 539 814 499 q 928 604 869 579 l 1036 631 l 1122 467 l 1092 467 q 1053 463 1071 467 q 1020 447 1035 458 q 998 415 1006 435 q 990 364 990 396 l 990 231 q 995 211 990 222 q 1012 192 1000 200 q 1044 183 1024 183 q 1077 192 1065 183 q 1093 211 1089 200 q 1097 231 1097 222 l 1097 281 l 1236 281 l 1236 231 q 1240 211 1236 222 q 1256 192 1244 200 q 1289 183 1268 183 q 1322 192 1310 183 q 1338 211 1333 200 q 1343 231 1343 222 l 1343 281 l 1539 281 l 1539 222 q 1476 53 1539 117 q 1318 -11 1414 -11 q 1244 2 1283 -11 q 1174 49 1204 15 q 1115 1 1147 14 q 1042 -11 1082 -11 m 1019 817 l 831 885 q 901 973 857 936 q 1003 1029 946 1010 q 1122 1049 1061 1049 l 1122 857 q 1081 853 1100 857 q 1047 842 1063 850 q 1019 817 1032 833 m 1343 281 l 1343 692 q 1331 787 1343 751 q 1289 839 1319 822 q 1200 856 1258 856 l 1200 1049 q 1375 1021 1299 1049 q 1495 922 1451 993 q 1539 722 1539 851 l 1539 281 l 1343 281 m 507 399 l 622 492 q 691 446 667 474 q 725 382 715 418 q 735 303 735 346 l 735 189 q 705 83 735 128 q 629 14 675 38 q 535 -10 583 -10 q 463 5 497 -10 q 403 50 428 19 q 350 5 382 19 q 282 -10 318 -10 q 192 11 236 -10 q 119 67 149 32 q 90 147 90 103 l 90 169 q 87 206 90 188 q 60 225 83 225 q 50 224 54 225 q 42 222 46 224 l 204 354 q 228 331 218 343 q 245 307 239 319 q 251 281 251 294 l 251 222 q 265 193 251 203 q 293 183 278 183 q 321 193 308 183 q 333 222 333 203 l 333 281 l 472 281 l 472 225 q 485 194 472 204 q 514 183 499 183 q 542 194 529 183 q 556 225 556 204 l 556 281 q 552 317 556 300 q 538 349 549 335 q 507 374 528 363 l 507 399 z "},"ඤ":{"ha":1622,"x_min":42,"x_max":1622,"o":"m 1215 -1 q 1060 27 1132 -1 q 944 117 988 56 q 900 276 900 178 q 940 430 900 369 q 1051 521 981 490 q 1214 551 1122 551 l 1275 551 q 1258 602 1275 583 q 1216 629 1242 621 q 1161 640 1190 638 q 1106 642 1132 642 l 1106 822 q 1242 810 1176 822 q 1360 768 1308 799 q 1443 685 1413 738 q 1474 551 1474 633 l 1474 364 l 1214 364 q 1170 360 1197 364 q 1121 339 1143 357 q 1099 278 1099 321 q 1117 221 1099 240 q 1162 194 1135 201 q 1215 188 1189 188 l 1267 188 q 1329 196 1301 188 q 1371 238 1357 204 l 1549 190 q 1508 110 1536 146 q 1443 50 1481 75 q 1360 12 1406 25 q 1267 -1 1315 -1 l 1215 -1 m 154 -57 q 88 49 113 -3 q 53 156 64 100 q 42 274 42 211 l 42 399 q 85 606 42 524 q 197 728 128 688 q 344 769 267 769 q 385 765 360 769 q 453 740 410 761 l 453 558 q 383 578 404 574 q 347 583 363 583 q 294 569 321 583 q 249 515 267 554 q 231 399 231 475 l 231 274 q 238 176 231 218 q 268 93 246 133 q 335 -1 290 53 l 154 -57 m 531 -10 q 440 11 485 -10 q 367 67 396 32 q 339 147 339 103 l 339 169 q 335 206 339 188 q 308 225 332 225 q 299 224 303 225 q 290 222 294 224 l 453 354 q 477 331 467 343 q 494 307 488 319 q 500 281 500 294 l 500 222 q 513 193 500 203 q 542 183 526 183 q 569 193 557 183 q 582 222 582 203 l 582 281 l 721 281 l 721 225 q 734 194 721 204 q 763 183 747 183 q 791 194 778 183 q 804 225 804 204 l 804 281 q 799 322 804 303 q 781 356 794 340 q 736 383 767 372 l 871 492 q 940 446 915 474 q 974 382 964 418 q 983 303 983 346 l 983 189 q 953 83 983 128 q 878 14 924 38 q 783 -10 832 -10 q 711 5 746 -10 q 651 50 676 19 q 599 5 631 19 q 531 -10 567 -10 m 453 558 l 290 610 q 340 717 300 678 q 431 772 379 756 q 526 788 482 788 q 647 760 596 788 q 717 697 699 732 l 589 558 q 565 607 589 594 q 521 619 542 619 q 472 601 490 619 q 453 558 453 582 m 1368 -285 q 1228 -256 1286 -285 q 1140 -176 1169 -226 q 1110 -64 1110 -126 l 1300 -64 q 1308 -85 1300 -75 q 1333 -103 1317 -96 q 1368 -110 1349 -110 q 1411 -99 1390 -110 q 1438 -67 1432 -87 l 1622 -114 q 1576 -199 1607 -160 q 1493 -261 1544 -237 q 1368 -285 1442 -285 m 290 222 l 290 360 l 708 700 q 801 766 756 739 q 902 808 847 793 q 1029 824 957 824 l 1029 642 q 922 615 965 642 q 839 556 878 588 l 464 251 l 290 222 z "},"ඥ":{"ha":1504,"x_min":42,"x_max":1504,"o":"m 1097 -11 q 938 28 1001 -11 q 842 128 874 67 q 810 254 810 189 q 840 378 810 319 q 933 475 871 438 q 1088 513 994 513 l 1157 513 q 1134 563 1157 547 q 1079 583 1111 579 q 1021 585 1047 586 q 988 583 994 583 l 988 783 q 1072 781 1024 783 q 1169 766 1119 778 q 1260 726 1218 754 q 1329 646 1303 697 q 1356 513 1356 594 l 1356 325 l 1096 325 q 1022 303 1046 325 q 999 253 999 281 q 1024 201 999 225 q 1097 178 1049 178 l 1149 178 q 1211 186 1183 178 q 1253 228 1239 194 l 1431 181 q 1390 101 1418 136 q 1325 40 1363 65 q 1242 2 1288 15 q 1149 -11 1197 -11 l 1097 -11 m 154 -57 q 88 49 113 -3 q 53 156 64 100 q 42 274 42 211 l 42 399 q 53 556 42 485 q 99 677 65 626 q 197 756 132 728 q 368 783 263 783 l 585 783 l 585 585 l 311 585 q 269 573 285 585 q 244 538 253 561 q 233 480 236 515 q 231 399 231 444 l 231 274 q 238 176 231 218 q 268 93 246 133 q 335 -1 290 53 l 154 -57 m 585 -11 q 428 27 489 -11 q 340 130 368 65 q 311 275 311 194 l 311 497 q 340 642 311 578 q 428 745 368 707 q 585 783 489 783 l 585 585 q 532 567 549 585 q 511 526 515 550 q 507 483 507 503 l 507 275 q 511 238 507 258 q 532 203 515 218 q 585 188 549 188 l 585 -11 m 663 -11 l 663 188 q 715 201 700 188 q 734 232 731 214 q 738 261 738 250 q 734 291 738 274 q 715 322 731 308 q 663 335 700 335 l 646 335 l 646 482 l 785 482 q 839 460 810 482 q 889 393 868 439 q 910 271 910 347 l 910 231 q 847 47 910 104 q 663 -11 785 -11 m 1250 -294 q 1110 -265 1168 -294 q 1022 -186 1051 -236 q 992 -74 992 -136 l 1182 -74 q 1190 -95 1182 -85 q 1215 -112 1199 -106 q 1250 -119 1231 -119 q 1293 -108 1272 -119 q 1319 -76 1314 -97 l 1504 -124 q 1458 -208 1489 -169 q 1375 -271 1426 -247 q 1250 -294 1324 -294 m 622 335 l 622 486 q 643 635 622 568 q 718 743 664 703 q 872 783 772 783 l 911 783 l 911 585 l 872 585 q 828 567 840 585 q 816 527 817 550 q 815 486 815 504 l 815 335 l 622 335 z "},"ඦ":{"ha":1150,"x_min":42,"x_max":1146,"o":"m 147 -57 q 83 47 106 -3 q 51 151 60 97 q 42 267 42 204 l 42 461 q 45 513 42 475 q 65 597 49 550 q 117 690 81 644 q 219 765 153 735 q 389 794 285 794 q 430 791 407 794 q 446 768 453 788 l 446 586 q 391 603 411 599 q 353 607 371 607 q 294 593 324 607 q 244 540 264 579 q 224 426 224 501 l 224 274 q 231 176 224 218 q 261 93 239 133 q 328 -1 283 53 l 147 -57 m 644 -17 q 375 58 460 -17 q 290 281 290 132 l 485 281 q 503 219 485 244 q 553 183 521 194 q 629 171 586 171 l 729 171 q 807 183 775 171 q 856 221 839 196 q 874 281 874 246 l 1068 281 q 981 60 1068 138 q 718 -17 894 -17 l 644 -17 m 292 349 q 320 478 292 433 q 400 541 349 524 q 518 558 451 558 l 831 558 q 958 542 906 558 q 1040 481 1011 526 q 1068 349 1068 436 l 875 349 q 874 367 875 357 q 864 385 872 378 q 835 393 856 393 l 533 393 q 501 385 511 393 q 488 367 490 378 q 485 349 485 357 l 292 349 m 590 525 l 590 551 q 576 599 590 583 q 542 621 561 615 q 510 626 522 626 q 469 613 485 626 q 449 585 453 600 l 285 639 q 374 759 310 719 q 511 799 438 799 q 569 792 540 799 q 626 774 599 786 q 679 744 654 763 q 732 774 704 763 q 789 792 760 786 q 847 799 818 799 q 985 759 921 799 q 1074 639 1049 719 l 910 585 q 890 613 906 600 q 849 626 874 626 q 817 621 836 626 q 783 599 799 615 q 768 551 768 583 l 768 525 l 590 525 m 665 725 l 1003 1163 l 1146 1057 l 842 653 l 665 725 z "},"ට":{"ha":775,"x_min":42,"x_max":733,"o":"m 413 -7 l 413 188 q 476 198 447 188 q 522 242 504 208 q 539 344 539 276 l 539 706 q 522 804 539 772 q 476 846 504 836 q 413 856 447 856 l 413 1049 q 656 968 578 1049 q 733 722 733 888 l 733 329 q 721 219 733 278 q 675 110 708 161 q 578 26 642 58 q 413 -7 515 -7 m 335 -7 q 205 21 260 -7 q 113 94 150 49 q 59 190 76 139 q 42 289 42 242 l 42 364 q 50 458 42 407 q 86 554 58 508 q 174 629 114 600 q 335 658 233 658 l 335 467 q 284 458 307 467 q 247 428 261 450 q 233 364 233 406 l 233 308 q 244 253 233 282 q 276 206 254 225 q 335 188 299 188 l 335 -7 m 232 736 l 42 786 q 67 889 42 842 q 134 972 92 936 q 228 1028 176 1008 q 335 1049 281 1049 l 335 857 q 285 846 308 857 q 247 808 261 835 q 232 736 232 782 z "},"ඨ":{"ha":824,"x_min":42,"x_max":782,"o":"m 285 -11 q 163 18 218 -11 q 74 99 107 47 q 42 222 42 151 l 42 354 q 49 438 42 390 q 84 528 57 485 q 167 601 111 572 q 319 631 224 631 l 338 631 l 338 439 l 319 439 q 289 435 304 439 q 261 420 274 431 q 241 392 249 410 q 233 349 233 375 l 233 240 q 238 215 233 228 q 255 192 243 201 q 288 183 267 183 q 319 192 308 183 q 335 211 331 200 q 340 231 340 222 l 340 281 l 479 281 l 479 231 q 484 211 479 222 q 500 192 489 200 q 532 183 511 183 q 566 192 554 183 q 583 211 578 200 q 588 231 588 222 l 588 281 l 782 281 l 782 222 q 719 53 782 117 q 561 -11 657 -11 q 487 2 526 -11 q 417 49 447 15 q 358 1 390 14 q 285 -11 325 -11 m 456 1049 q 622 1019 549 1049 q 739 917 696 989 q 782 718 782 846 l 782 279 l 588 279 l 588 706 q 565 834 588 794 q 471 874 542 874 l 456 874 l 456 853 q 460 809 456 831 q 483 774 465 788 q 538 761 501 761 l 538 613 q 393 644 449 613 q 313 729 338 676 q 288 842 288 782 l 288 1049 l 456 1049 z "},"ඩ":{"ha":878,"x_min":42,"x_max":836,"o":"m 340 -11 q 219 18 274 -11 q 133 99 165 47 q 100 222 100 151 l 100 304 q 101 327 100 311 q 111 349 103 343 l 42 349 l 42 490 l 390 490 q 372 540 390 526 q 332 554 354 554 q 302 549 322 554 q 276 521 282 543 l 139 557 q 193 648 157 618 q 269 688 229 678 q 335 697 308 697 q 421 681 381 697 q 488 636 461 664 q 522 575 511 610 q 533 485 533 540 l 533 349 l 336 349 q 305 341 315 349 q 291 323 294 333 q 288 304 288 313 l 288 231 q 292 211 288 222 q 309 192 297 200 q 342 183 321 183 q 374 192 363 183 q 390 211 385 200 q 394 231 394 222 l 394 281 l 533 281 l 533 231 q 538 211 533 222 q 554 192 543 200 q 586 183 565 183 q 619 192 607 183 q 635 211 631 200 q 640 231 640 222 l 640 281 l 836 281 l 836 222 q 774 53 836 117 q 615 -11 711 -11 q 541 2 581 -11 q 471 49 501 15 q 412 1 444 14 q 340 -11 379 -11 m 294 736 l 104 786 q 133 892 104 844 q 208 976 161 940 q 314 1030 256 1011 q 431 1049 372 1049 l 431 857 q 366 848 397 857 q 315 813 335 839 q 294 736 294 786 m 640 281 l 640 692 q 631 787 640 751 q 594 839 622 822 q 508 856 567 856 l 508 1049 q 681 1021 607 1049 q 795 922 754 993 q 836 722 836 851 l 836 281 l 640 281 z "},"ඪ":{"ha":878,"x_min":42,"x_max":836,"o":"m 340 -11 q 219 18 274 -11 q 133 99 165 47 q 100 222 100 151 l 100 263 q 108 322 100 301 q 125 349 115 342 l 42 349 l 42 490 l 390 490 q 372 540 390 526 q 332 554 354 554 q 302 549 322 554 q 276 521 282 543 l 139 557 q 193 648 157 618 q 269 688 229 678 q 335 697 308 697 q 421 681 381 697 q 488 636 461 664 q 522 575 511 610 q 533 485 533 540 l 533 354 l 339 354 q 306 345 317 354 q 291 324 294 336 q 288 304 288 313 l 288 231 q 292 211 288 222 q 309 192 297 200 q 342 183 321 183 q 374 192 363 183 q 390 211 385 200 q 394 231 394 222 l 394 281 l 533 281 l 533 231 q 538 211 533 222 q 554 192 543 200 q 586 183 565 183 q 620 192 608 183 q 637 211 632 200 q 642 231 642 222 l 642 281 l 836 281 l 836 222 q 774 53 836 117 q 615 -11 711 -11 q 541 2 581 -11 q 471 49 501 15 q 412 1 444 14 q 340 -11 379 -11 m 510 1049 q 676 1019 603 1049 q 793 917 750 989 q 836 718 836 846 l 836 354 l 642 354 l 642 706 q 619 834 642 794 q 525 874 596 874 l 510 874 l 510 853 q 515 809 510 831 q 538 774 519 788 q 592 761 556 761 l 592 613 q 449 644 503 613 q 373 729 396 676 q 350 842 350 782 l 350 1049 l 510 1049 z "},"ණ":{"ha":1413,"x_min":0,"x_max":1371,"o":"m 186 -11 l 0 36 q 43 117 14 74 q 119 190 72 160 q 235 221 167 221 q 303 215 268 221 q 374 201 339 208 q 440 194 408 194 q 489 204 468 194 q 522 245 510 214 q 533 338 533 276 l 533 476 q 531 529 533 499 q 516 590 528 560 q 476 639 504 619 q 399 658 449 658 q 340 649 364 658 q 302 624 317 639 q 281 590 288 608 q 275 556 275 572 q 281 523 275 539 q 297 494 286 507 q 325 474 308 482 q 364 467 342 467 l 442 467 l 442 281 l 335 281 q 211 313 268 281 q 119 407 154 346 q 85 553 85 468 q 129 713 85 649 q 249 809 174 776 q 415 842 324 842 q 563 814 506 842 q 651 742 619 786 q 696 649 682 699 q 713 553 710 599 q 715 476 715 507 l 715 338 q 700 197 715 260 q 656 91 685 135 q 583 24 626 47 q 485 0 540 0 q 408 10 446 0 q 335 28 369 19 q 269 38 300 38 q 212 21 232 38 q 186 -11 192 4 m 1058 -8 q 898 23 964 -8 q 798 108 832 54 q 764 228 764 163 l 764 281 l 958 281 l 958 260 q 974 210 958 229 q 1016 183 990 192 q 1069 175 1042 175 q 1117 181 1092 175 q 1160 206 1142 188 q 1178 257 1178 224 l 1178 281 l 1371 281 l 1371 251 q 1329 107 1371 165 q 1217 20 1288 49 q 1058 -8 1146 -8 m 890 390 l 890 486 q 873 565 890 544 q 831 585 856 585 q 801 577 810 585 q 790 565 793 569 l 735 739 q 770 764 739 746 q 857 782 801 782 q 938 765 906 782 q 990 725 971 747 q 1050 765 1013 747 q 1147 782 1088 782 q 1263 758 1213 782 q 1342 686 1313 735 q 1371 563 1371 638 l 1371 349 l 1178 349 l 1178 517 q 1172 560 1178 536 q 1129 583 1165 583 q 1087 563 1097 583 q 1076 517 1076 543 l 1076 390 l 890 390 m 543 653 l 360 725 l 699 1163 l 847 1057 l 543 653 z "},"ඬ":{"ha":1096,"x_min":42,"x_max":1054,"o":"m 558 -11 q 438 18 492 -11 q 351 99 383 47 q 318 222 318 151 l 318 276 q 319 299 318 283 q 329 321 321 315 l 288 321 l 288 463 l 588 463 q 565 517 588 499 q 503 535 543 535 q 473 529 488 535 q 439 501 458 524 l 301 557 q 357 644 319 614 q 439 685 394 674 q 522 697 483 697 q 654 663 604 697 q 728 573 704 628 q 751 457 751 518 l 751 321 l 554 321 q 523 313 533 321 q 509 295 513 306 q 506 276 506 285 l 506 231 q 510 211 506 222 q 527 192 515 200 q 560 183 539 183 q 592 192 581 183 q 608 211 603 200 q 613 231 613 222 l 613 281 l 751 281 l 751 231 q 756 211 751 222 q 772 192 760 200 q 804 183 783 183 q 837 192 825 183 q 853 211 849 200 q 858 231 858 222 l 858 281 l 1054 281 l 1054 222 q 992 53 1054 117 q 833 -11 929 -11 q 759 2 799 -11 q 689 49 719 15 q 630 1 663 14 q 558 -11 597 -11 m 143 -39 q 79 67 101 15 q 49 174 57 118 q 42 292 42 229 l 42 385 q 83 552 42 481 q 190 663 124 624 q 335 701 257 701 q 439 683 389 701 l 439 501 q 383 522 404 517 q 344 526 363 526 q 286 511 315 526 q 238 456 257 496 q 219 343 219 417 l 219 292 q 227 194 219 236 q 257 111 235 151 q 324 17 279 71 l 143 -39 m 513 736 l 322 786 q 351 892 322 844 q 426 976 379 940 q 532 1030 474 1011 q 649 1049 590 1049 l 649 857 q 584 848 615 857 q 533 813 553 839 q 513 736 513 786 m 858 281 l 858 692 q 849 787 858 751 q 813 839 840 822 q 726 856 785 856 l 726 1049 q 899 1021 825 1049 q 1013 922 972 993 q 1054 722 1054 851 l 1054 281 l 858 281 z "},"ත":{"ha":1071,"x_min":42,"x_max":1028,"o":"m 756 -1 l 756 197 q 799 206 783 197 q 822 228 814 215 q 831 257 829 242 q 833 285 833 272 l 833 426 q 813 516 833 479 q 758 572 792 553 q 686 590 725 590 q 638 583 663 590 q 590 557 614 575 l 215 261 l 42 214 l 42 360 l 418 667 q 501 729 461 701 q 588 773 542 757 q 693 789 633 789 q 857 751 781 789 q 981 636 933 713 q 1028 446 1028 560 l 1028 285 q 1000 140 1028 204 q 913 37 972 75 q 756 -1 853 -1 m 421 -11 q 324 5 371 -11 q 233 54 276 21 q 154 140 190 88 q 130 176 142 158 q 103 205 118 193 q 65 217 88 217 q 54 216 60 217 q 42 214 49 215 l 103 346 q 131 352 118 350 q 154 354 143 354 q 208 342 186 354 q 247 308 231 329 q 279 265 264 288 q 311 222 294 243 q 351 189 328 201 q 406 176 374 176 q 460 188 435 176 q 502 222 486 200 q 518 272 518 243 q 512 306 518 290 q 490 337 506 322 q 450 361 475 351 l 585 469 q 658 413 633 449 q 691 338 682 378 q 700 265 700 299 q 662 119 700 182 q 560 23 624 57 q 421 -11 497 -11 m 214 558 l 51 610 q 101 717 61 678 q 192 772 140 756 q 285 788 243 788 q 375 772 333 788 q 445 736 417 756 q 478 704 474 717 l 350 558 q 326 607 350 594 q 282 619 303 619 q 233 601 251 619 q 214 558 214 582 z "},"ථ":{"ha":779,"x_min":42,"x_max":738,"o":"m 343 -7 q 212 17 268 -7 q 117 82 156 42 q 60 170 79 122 q 42 265 42 218 l 42 354 q 50 435 42 390 q 85 521 58 479 q 165 590 111 563 q 308 617 218 617 l 335 617 l 335 425 l 317 425 q 258 405 282 425 q 233 328 233 385 l 233 297 q 247 240 233 263 q 285 206 261 217 q 343 194 310 194 l 343 -7 m 419 -7 l 419 194 q 477 205 449 194 q 524 248 506 215 q 543 347 543 281 l 738 347 q 659 81 738 168 q 419 -7 581 -7 m 411 1049 q 578 1019 504 1049 q 694 917 651 989 q 738 718 738 846 l 738 347 l 543 347 l 543 706 q 520 834 543 794 q 426 874 497 874 l 411 874 l 411 853 q 416 809 411 831 q 439 774 421 788 q 493 761 457 761 l 493 613 q 349 644 404 613 q 268 729 293 676 q 243 842 243 782 l 243 1049 l 411 1049 z "},"ද":{"ha":767,"x_min":42,"x_max":767,"o":"m 357 0 q 202 28 274 0 q 86 118 131 57 q 42 278 42 179 q 82 433 42 371 q 193 526 122 494 q 356 558 264 558 l 435 558 q 421 601 435 585 q 385 626 407 618 q 339 635 364 635 q 280 622 308 635 q 244 583 251 608 l 81 638 q 133 730 96 693 q 224 785 171 767 q 332 803 276 803 q 466 775 401 803 q 572 692 531 747 q 614 554 614 638 l 614 365 l 356 365 q 311 362 339 365 q 262 340 283 358 q 240 279 240 322 q 258 222 240 242 q 303 196 276 203 q 357 189 331 189 l 408 189 q 471 197 443 189 q 513 239 499 206 l 690 192 q 650 112 678 147 q 585 51 622 76 q 502 13 547 26 q 408 0 457 0 l 357 0 m 513 -283 q 372 -254 429 -283 q 284 -175 314 -225 q 254 -62 254 -125 l 444 -62 q 453 -84 444 -74 q 477 -101 461 -94 q 513 -108 493 -108 q 556 -97 535 -108 q 582 -65 576 -86 l 767 -112 q 719 -197 751 -158 q 637 -260 688 -236 q 513 -283 586 -283 z "},"ධ":{"ha":824,"x_min":42,"x_max":782,"o":"m 285 -11 q 163 18 218 -11 q 74 99 107 47 q 42 222 42 151 l 42 364 q 50 458 42 407 q 86 554 58 508 q 174 629 114 600 q 335 658 233 658 l 365 658 l 365 467 l 335 467 q 296 463 314 467 q 263 447 278 458 q 241 415 249 435 q 233 364 233 396 l 233 231 q 238 211 233 222 q 255 192 243 200 q 288 183 267 183 q 319 192 308 183 q 335 211 331 200 q 340 231 340 222 l 340 281 l 479 281 l 479 231 q 484 211 479 222 q 500 192 489 200 q 532 183 511 183 q 565 192 553 183 q 581 211 576 200 q 586 231 586 222 l 586 281 l 782 281 l 782 222 q 719 53 782 117 q 561 -11 657 -11 q 487 2 526 -11 q 417 49 447 15 q 358 1 390 14 q 285 -11 325 -11 m 240 736 l 50 786 q 78 892 50 844 q 154 976 107 940 q 260 1030 201 1011 q 376 1049 318 1049 l 376 857 q 312 848 343 857 q 260 813 281 839 q 240 736 240 786 m 586 281 l 586 692 q 577 787 586 751 q 540 839 568 822 q 454 856 513 856 l 454 1049 q 626 1021 553 1049 q 741 922 700 993 q 782 722 782 851 l 782 281 l 586 281 z "},"න":{"ha":1053,"x_min":42,"x_max":1011,"o":"m 739 -11 l 739 188 q 782 197 767 188 q 805 219 797 206 q 815 247 813 232 q 817 275 817 263 l 817 440 q 793 528 817 492 q 733 585 769 565 q 654 606 696 606 q 580 587 615 606 q 518 533 544 568 l 410 390 q 340 304 372 340 q 277 249 307 268 q 214 229 247 229 l 174 229 l 174 422 l 208 422 q 230 435 217 422 q 260 469 243 447 q 297 521 278 492 l 393 665 q 508 765 438 732 q 660 797 579 797 q 788 776 725 797 q 901 714 850 756 q 981 610 951 672 q 1011 468 1011 549 l 1011 275 q 983 130 1011 194 q 896 27 956 65 q 739 -11 836 -11 m 386 -11 q 249 13 313 -11 q 140 83 186 36 q 67 198 93 129 q 42 356 42 267 l 42 478 l 206 478 l 206 375 q 208 328 206 360 q 226 260 211 296 q 274 201 240 225 q 371 176 308 176 q 449 192 419 176 q 490 233 478 208 q 503 281 503 257 q 499 307 503 294 q 488 331 496 319 q 467 349 479 342 l 572 492 q 642 435 615 469 q 683 360 669 401 q 697 275 697 319 q 663 140 697 206 q 560 31 629 74 q 386 -11 492 -11 m 207 558 l 44 610 q 94 717 54 678 q 184 772 133 756 q 275 788 235 788 q 367 771 325 788 q 435 734 410 754 q 460 703 460 714 l 343 558 q 319 607 343 594 q 275 619 296 619 q 226 601 244 619 q 207 558 207 582 z "},"ඳ":{"ha":1031,"x_min":42,"x_max":1031,"o":"m 624 0 q 469 28 540 0 q 353 118 397 57 q 308 278 308 179 q 349 431 308 371 q 460 522 389 492 q 622 553 531 553 l 701 553 q 681 603 701 586 q 638 625 661 619 q 601 631 614 631 q 572 628 592 631 q 533 617 551 626 q 506 583 514 607 l 335 650 q 402 740 360 708 q 495 785 444 772 q 597 799 546 799 q 741 772 676 799 q 844 687 806 744 q 882 535 882 629 l 882 365 l 622 365 q 578 362 606 365 q 528 340 550 358 q 507 279 507 322 q 525 222 507 242 q 570 196 543 203 q 624 189 597 189 l 675 189 q 738 197 710 189 q 779 239 765 206 l 957 192 q 917 112 944 147 q 851 51 889 76 q 769 13 814 26 q 675 0 724 0 l 624 0 m 776 -283 q 635 -254 693 -283 q 548 -175 578 -225 q 518 -62 518 -125 l 708 -62 q 717 -84 708 -74 q 741 -101 725 -94 q 776 -108 757 -108 q 819 -97 799 -108 q 846 -65 840 -86 l 1031 -112 q 983 -197 1015 -158 q 901 -260 951 -236 q 776 -283 850 -283 m 143 -40 q 79 65 101 14 q 49 172 57 117 q 42 290 42 228 l 42 408 q 88 618 42 533 q 209 745 133 703 q 372 788 285 788 q 506 763 439 788 l 506 583 q 458 597 483 592 q 406 603 433 603 q 322 585 363 603 q 256 526 282 568 q 231 408 231 483 l 231 290 q 235 192 231 235 q 260 110 240 150 q 324 15 279 69 l 143 -40 z "},"ප":{"ha":872,"x_min":42,"x_max":831,"o":"m 401 -17 q 132 58 217 -17 q 47 281 47 132 l 242 281 q 260 219 242 244 q 310 183 278 194 q 386 171 343 171 l 486 171 q 564 183 532 171 q 613 221 596 196 q 631 281 631 246 l 825 281 q 738 60 825 138 q 475 -17 651 -17 l 401 -17 m 49 349 q 77 478 49 433 q 157 541 106 524 q 275 558 208 558 l 588 558 q 715 542 663 558 q 797 481 768 526 q 825 349 825 436 l 632 349 q 631 367 632 357 q 621 385 629 378 q 592 393 613 393 l 290 393 q 258 385 268 393 q 244 367 247 378 q 242 349 242 357 l 49 349 m 347 525 l 347 551 q 333 599 347 583 q 299 621 318 615 q 267 626 279 626 q 226 613 242 626 q 206 585 210 600 l 42 639 q 131 759 67 719 q 268 799 194 799 q 326 792 297 799 q 383 774 356 786 q 436 744 411 763 q 489 774 461 763 q 546 792 517 786 q 604 799 575 799 q 742 759 678 799 q 831 639 806 719 l 667 585 q 647 613 663 600 q 606 626 631 626 q 574 621 593 626 q 540 599 556 615 q 525 551 525 583 l 525 525 l 347 525 z "},"ඵ":{"ha":789,"x_min":42,"x_max":747,"o":"m 236 697 q 338 674 293 697 q 410 610 383 651 q 436 513 436 569 l 436 350 l 319 350 q 294 347 314 350 q 256 330 274 344 q 238 279 238 315 q 249 236 238 256 q 283 206 260 217 q 343 194 307 194 l 343 -7 q 188 31 256 -7 q 83 132 121 69 q 46 267 46 194 q 49 335 46 301 q 70 401 53 368 q 126 463 88 433 q 200 500 161 488 q 293 513 239 513 q 277 543 293 532 q 236 554 261 554 q 201 547 218 554 q 179 521 183 540 l 42 557 q 91 642 60 613 q 160 685 122 672 q 236 697 199 697 m 421 -7 l 421 194 q 481 205 450 194 q 532 248 511 215 q 553 347 553 281 l 747 347 q 665 81 747 168 q 421 -7 582 -7 m 421 1049 q 588 1019 514 1049 q 704 917 661 989 q 747 718 747 846 l 747 347 l 553 347 l 553 706 q 530 834 553 794 q 436 874 507 874 l 421 874 l 421 853 q 426 809 421 831 q 449 774 431 788 q 503 761 467 761 l 503 613 q 358 644 414 613 q 278 729 303 676 q 253 842 253 782 l 253 1049 l 421 1049 z "},"බ":{"ha":846,"x_min":42,"x_max":804,"o":"m 557 -11 q 453 12 503 -11 q 374 80 404 35 q 343 192 343 125 l 343 371 q 325 419 343 403 q 283 435 307 435 q 243 419 261 435 q 225 371 225 403 l 225 268 q 243 210 225 225 q 293 194 261 194 l 293 0 q 105 61 168 0 q 42 260 42 122 l 42 393 q 79 521 42 468 q 174 601 117 574 q 294 628 232 628 q 408 601 354 628 q 497 519 463 575 q 531 378 531 464 l 531 242 q 543 204 531 217 q 569 192 556 192 q 597 204 585 192 q 610 242 610 217 l 610 297 l 804 297 l 804 242 q 767 101 804 157 q 674 17 731 44 q 557 -11 618 -11 m 247 736 l 57 786 q 103 923 57 864 q 222 1015 149 982 q 372 1049 294 1049 l 372 857 q 310 848 339 857 q 265 813 282 839 q 247 736 247 786 m 610 297 l 610 664 q 599 762 610 718 q 561 831 589 806 q 479 856 533 856 l 450 856 l 450 1049 l 479 1049 q 646 1013 572 1049 q 762 898 719 976 q 804 694 804 819 l 804 297 l 610 297 z "},"භ":{"ha":1047,"x_min":42,"x_max":1006,"o":"m 368 -11 q 212 27 272 -11 q 123 130 151 65 q 94 275 94 194 l 94 353 q 104 413 94 385 l 42 413 l 42 576 l 335 576 q 321 625 335 608 q 275 642 307 642 q 241 633 257 642 q 221 607 225 625 l 83 643 q 163 749 107 715 q 279 783 218 783 q 375 762 329 783 q 449 700 421 740 q 478 601 478 660 l 478 413 l 368 413 q 315 400 332 413 q 294 370 299 388 q 290 338 290 353 l 290 276 q 294 239 290 260 q 315 203 299 218 q 368 188 332 188 l 368 -11 m 444 -11 l 444 188 q 497 201 482 188 q 516 232 513 214 q 519 261 519 250 q 516 290 519 274 q 499 320 513 307 q 451 335 485 333 l 404 335 l 404 486 q 425 635 404 568 q 500 743 446 703 q 654 783 554 783 l 654 585 q 613 569 625 585 q 599 531 601 553 q 597 488 597 508 l 597 478 q 642 456 621 475 q 678 400 664 438 q 692 300 692 363 l 692 231 q 629 47 692 104 q 444 -11 567 -11 m 732 -11 l 732 188 q 785 203 768 188 q 806 238 801 218 q 810 275 810 258 l 810 490 q 806 532 810 510 q 785 569 801 554 q 732 585 768 585 l 732 783 q 889 745 829 783 q 977 641 949 707 q 1006 490 1006 575 l 1006 275 q 977 130 1006 194 q 889 27 949 65 q 732 -11 829 -11 z "},"ම":{"ha":833,"x_min":42,"x_max":792,"o":"m 421 651 l 549 651 l 549 472 q 527 385 549 419 q 472 334 506 350 q 403 318 439 318 q 306 351 350 318 q 263 444 263 385 l 263 456 q 256 476 263 469 q 240 483 249 483 q 226 476 233 483 q 219 456 219 469 l 219 350 q 226 281 219 310 q 246 234 233 253 q 276 206 258 215 q 316 192 294 196 q 363 188 338 188 l 363 -7 q 197 27 261 -7 q 100 115 133 61 q 54 231 67 169 q 42 350 42 293 l 42 415 q 71 550 42 497 q 144 628 100 603 q 233 654 189 654 q 334 617 290 654 q 378 506 378 579 l 378 483 q 385 466 378 472 q 399 460 392 460 q 414 466 407 460 q 421 483 421 472 l 421 651 m 47 785 q 74 891 47 843 q 147 974 101 939 q 248 1028 192 1010 q 363 1047 304 1047 l 363 856 q 301 847 329 856 q 255 811 272 838 q 238 735 238 785 l 47 785 m 440 1047 q 619 1017 550 1047 q 726 934 689 986 q 778 819 764 882 q 792 692 792 757 l 792 350 q 778 222 792 285 q 726 106 764 158 q 619 24 689 54 q 440 -7 550 -7 l 440 188 q 523 198 488 188 q 578 243 558 208 q 597 350 597 278 l 597 692 q 578 799 597 765 q 523 844 558 833 q 440 854 488 854 l 440 1047 z "},"ඹ":{"ha":843,"x_min":42,"x_max":801,"o":"m 264 -15 q 148 14 199 -15 q 69 95 97 43 q 42 218 42 147 l 42 471 q 69 574 42 533 q 140 636 97 615 q 228 657 183 657 q 306 640 269 657 q 366 590 343 624 q 389 506 389 557 l 389 483 q 396 466 389 472 q 410 460 403 460 q 425 466 418 460 q 432 483 432 472 l 432 651 l 560 651 l 560 472 q 538 385 560 419 q 483 334 517 350 q 414 318 450 318 q 317 351 361 318 q 274 444 274 385 l 274 456 q 267 476 274 469 q 251 483 260 483 q 238 476 244 483 q 231 456 231 469 l 231 231 q 236 207 231 217 q 251 192 242 197 q 271 188 261 188 q 298 198 286 188 q 310 231 310 208 q 312 248 310 239 q 319 265 314 257 q 334 278 325 274 q 357 283 343 283 l 481 283 q 503 278 494 283 q 518 265 513 274 q 526 248 524 257 q 528 231 528 239 q 540 198 528 208 q 567 188 553 188 q 587 192 578 188 q 601 207 596 197 q 607 232 607 217 l 607 694 q 585 803 607 769 q 528 847 563 838 q 458 856 494 856 l 458 1049 q 711 971 621 1049 q 801 711 801 893 l 801 218 q 773 95 801 147 q 694 14 744 43 q 575 -15 643 -15 q 521 -7 543 -15 q 483 15 499 1 q 461 50 468 31 q 454 93 454 69 q 443 128 454 117 q 419 139 432 139 q 395 128 406 139 q 385 93 385 117 q 378 50 385 69 q 356 15 371 31 q 319 -7 342 1 q 264 -15 296 -15 m 254 736 l 64 786 q 91 892 64 844 q 163 976 118 940 q 265 1030 208 1011 q 379 1049 321 1049 l 379 857 q 317 848 346 857 q 272 813 289 839 q 254 736 254 786 z "},"ය":{"ha":910,"x_min":42,"x_max":868,"o":"m 292 -11 q 163 18 219 -11 q 74 99 106 47 q 42 222 42 151 l 42 281 l 235 281 l 235 238 q 255 197 235 211 q 299 182 275 182 q 342 197 322 182 q 363 240 363 211 l 363 281 l 540 281 l 540 240 q 560 197 540 211 q 604 182 581 182 q 648 197 628 182 q 668 238 668 211 l 668 281 l 861 281 l 861 222 q 830 94 861 146 q 743 15 799 42 q 614 -11 688 -11 q 522 3 564 -11 q 447 50 479 17 q 378 3 417 17 q 292 -11 339 -11 m 42 349 l 42 472 q 84 647 42 579 q 195 749 126 715 q 344 782 264 782 l 368 782 l 368 601 l 340 601 q 260 559 285 601 q 235 440 235 517 l 235 349 l 42 349 m 667 349 l 667 353 q 664 372 667 363 q 649 387 661 381 q 607 393 636 393 l 407 393 l 407 508 q 420 622 407 571 q 461 710 433 674 q 534 767 489 747 q 642 786 579 786 q 769 756 710 786 q 868 636 829 725 l 715 585 q 686 613 704 606 q 651 619 668 619 q 606 605 624 619 q 588 558 588 590 l 665 558 q 783 533 740 558 q 844 465 826 507 q 861 374 861 422 l 861 349 l 667 349 z "},"ර":{"ha":757,"x_min":42,"x_max":715,"o":"m 339 -7 q 233 10 286 -7 q 138 68 181 28 q 68 174 94 108 q 42 335 42 239 l 42 549 q 49 638 42 599 q 74 717 56 678 q 126 800 92 756 l 406 1164 l 561 1054 l 310 717 q 265 653 281 678 q 242 604 249 629 q 236 536 236 579 l 236 326 q 259 224 236 256 q 339 193 282 193 l 339 -7 m 497 783 q 622 751 574 783 q 692 662 669 719 q 715 525 715 604 l 715 297 q 674 112 715 178 q 564 20 632 46 q 417 -7 496 -6 l 417 193 q 501 224 481 193 q 521 326 521 256 l 521 454 q 517 537 521 506 q 492 583 513 568 q 419 599 471 599 l 311 599 l 311 606 l 439 783 l 497 783 z "},"ල":{"ha":869,"x_min":43,"x_max":828,"o":"m 393 -237 q 275 -222 336 -237 q 161 -169 214 -207 q 76 -66 108 -132 q 43 103 43 0 l 43 460 q 74 631 43 564 q 158 733 106 697 q 272 784 210 769 q 393 799 333 799 l 393 604 q 312 590 347 604 q 256 544 276 575 q 235 460 235 513 l 235 103 q 256 18 235 50 q 312 -28 276 -14 q 393 -43 347 -43 l 393 -237 m 478 -240 l 478 -46 q 576 -23 535 -46 q 631 51 617 0 l 818 -1 q 767 -120 803 -74 q 684 -193 732 -167 q 583 -230 636 -219 q 478 -240 529 -240 m 286 349 l 286 507 l 581 507 l 581 349 l 286 349 m 574 75 q 462 94 506 75 q 394 141 418 113 q 359 201 369 169 q 347 260 349 233 q 344 299 344 286 l 344 449 l 522 449 l 522 326 q 533 288 522 307 q 578 269 543 269 q 619 283 607 269 q 634 311 632 296 q 636 333 636 326 l 636 460 q 615 544 636 513 q 559 590 594 575 q 478 604 524 604 l 478 799 q 599 784 538 799 q 712 733 660 769 q 796 631 764 697 q 828 460 828 564 l 828 333 q 799 194 828 251 q 713 106 769 136 q 574 75 657 75 z "},"ව":{"ha":789,"x_min":42,"x_max":747,"o":"m 421 -7 l 421 188 q 481 198 450 188 q 532 243 511 208 q 553 347 553 278 l 553 692 q 528 815 553 774 q 421 856 503 856 l 421 1049 q 588 1019 514 1049 q 704 919 661 990 q 747 722 747 847 l 747 347 q 665 81 747 168 q 421 -7 582 -7 m 343 -7 q 188 31 256 -7 q 83 132 121 69 q 46 267 46 194 q 49 335 46 301 q 70 401 53 368 q 126 463 88 433 q 200 500 161 488 q 293 513 239 513 q 277 543 293 532 q 236 554 261 554 q 201 547 218 554 q 179 521 183 540 l 42 557 q 91 642 60 613 q 160 685 122 672 q 236 697 199 697 q 338 674 293 697 q 410 610 383 651 q 436 513 436 569 l 436 350 l 319 350 q 292 347 313 350 q 255 329 272 344 q 238 278 238 314 q 250 230 238 250 q 286 199 263 210 q 343 188 310 188 l 343 -7 m 232 736 l 42 786 q 67 889 42 842 q 137 972 93 936 q 234 1028 181 1008 q 343 1049 288 1049 l 343 857 q 290 846 315 857 q 248 808 264 835 q 232 736 232 782 z "},"ශ":{"ha":996,"x_min":42,"x_max":954,"o":"m 42 497 q 70 642 42 578 q 159 745 99 707 q 315 783 219 783 l 315 585 q 263 567 279 585 q 242 526 246 550 q 238 483 238 503 l 238 275 q 242 238 238 258 q 263 203 246 218 q 315 188 279 188 l 315 -11 q 159 27 219 -11 q 70 130 99 65 q 42 275 42 194 l 42 497 m 353 486 q 374 635 353 568 q 449 743 394 703 q 603 783 503 783 l 603 585 q 558 574 572 585 q 538 543 543 563 q 533 500 533 524 l 533 460 l 540 460 q 596 437 574 460 q 629 374 618 414 q 640 286 640 335 l 640 244 q 578 50 640 111 q 393 -11 515 -11 l 393 188 q 445 201 429 188 q 465 230 461 214 q 468 256 468 246 q 460 305 468 288 q 436 328 451 322 q 400 335 421 335 l 353 335 l 353 486 m 758 275 l 758 483 q 754 526 758 503 q 733 567 750 550 q 681 585 717 585 l 681 783 q 838 745 778 783 q 926 642 897 707 q 954 497 954 578 l 954 275 q 926 130 954 194 q 838 27 897 65 q 681 -11 778 -11 l 681 188 q 733 203 717 188 q 754 238 750 218 q 758 275 758 258 m 518 233 q 529 331 518 290 q 560 398 540 371 q 606 441 579 425 q 663 463 632 457 q 729 469 694 469 l 758 469 l 758 326 l 729 326 q 685 321 703 326 q 658 304 668 315 q 644 276 649 293 q 640 235 640 258 l 518 233 z "},"ෂ":{"ha":917,"x_min":42,"x_max":875,"o":"m 396 -17 q 126 58 211 -17 q 42 281 42 132 l 236 281 q 254 219 236 244 q 305 183 272 194 q 381 171 338 171 l 536 171 q 614 183 582 171 q 663 221 646 196 q 681 281 681 246 l 875 281 q 788 60 875 138 q 525 -17 701 -17 l 396 -17 m 43 349 q 72 483 43 436 q 151 548 100 531 q 269 565 203 565 l 638 565 q 765 549 713 565 q 847 485 818 532 q 875 349 875 439 l 682 349 q 681 370 682 358 q 671 391 679 382 q 642 400 663 400 l 285 400 q 252 391 263 400 q 239 370 242 382 q 236 349 236 358 l 43 349 m 339 233 q 372 366 339 310 q 453 458 406 422 q 544 510 501 494 l 775 510 q 692 470 736 497 q 610 406 649 443 q 549 326 572 369 q 525 236 525 283 l 339 233 m 372 525 l 372 551 q 358 599 372 583 q 324 621 343 615 q 292 626 304 626 q 251 613 267 626 q 231 585 235 600 l 67 639 q 156 759 92 719 q 293 799 219 799 q 351 792 322 799 q 408 774 381 786 q 461 744 436 763 q 514 774 486 763 q 571 792 542 786 q 629 799 600 799 q 767 759 703 799 q 856 639 831 719 l 692 585 q 672 613 688 600 q 631 626 656 626 q 599 621 618 626 q 565 599 581 615 q 550 551 550 583 l 550 525 l 372 525 z "},"ස":{"ha":954,"x_min":42,"x_max":913,"o":"m 343 -11 q 214 18 271 -11 q 125 99 157 47 q 93 222 93 151 l 93 281 l 286 281 l 286 238 q 306 197 286 211 q 350 182 326 182 q 394 197 374 182 q 414 240 414 211 l 414 281 l 592 281 l 592 240 q 612 197 592 211 q 656 182 632 182 q 699 197 679 182 q 719 238 719 211 l 719 281 l 913 281 l 913 222 q 881 94 913 146 q 794 15 850 42 q 665 -11 739 -11 q 573 3 615 -11 q 499 50 531 17 q 429 3 468 17 q 343 -11 390 -11 m 93 349 l 93 363 q 97 384 93 376 q 104 393 100 392 l 42 393 l 42 558 l 699 558 q 768 553 731 558 q 838 532 806 549 q 892 481 871 515 q 913 388 913 446 l 913 349 l 719 349 l 719 350 q 713 374 719 365 q 695 388 707 383 q 668 393 683 393 l 342 393 q 314 388 326 393 q 294 374 301 383 q 286 350 286 364 l 286 349 l 93 349 m 414 525 l 414 551 q 399 599 414 583 q 365 621 385 615 q 333 626 346 626 q 292 613 308 626 q 272 585 276 600 l 108 639 q 197 759 133 719 q 335 799 261 799 q 393 792 364 799 q 450 774 422 786 q 503 744 478 763 q 556 774 528 763 q 613 792 583 786 q 671 799 642 799 q 808 759 744 799 q 897 639 872 719 l 733 585 q 713 613 729 600 q 672 626 697 626 q 641 621 660 626 q 607 599 622 615 q 592 551 592 583 l 592 525 l 414 525 z "},"හ":{"ha":994,"x_min":42,"x_max":953,"o":"m 315 -11 q 159 27 219 -11 q 70 130 99 65 q 42 275 42 194 l 42 331 q 70 453 42 397 q 151 544 99 510 q 276 579 204 579 l 296 579 q 282 624 296 606 q 236 642 268 642 q 202 633 218 642 q 182 607 186 625 l 44 643 q 124 749 68 715 q 240 783 179 783 q 336 762 290 783 q 410 700 382 740 q 439 601 439 660 l 439 390 l 315 390 q 252 378 272 390 q 227 348 232 365 q 222 317 222 331 l 222 275 q 227 238 222 258 q 252 203 232 218 q 315 188 272 188 l 315 -11 m 392 -11 l 392 188 q 444 201 429 188 q 463 232 460 214 q 467 261 467 250 q 463 290 467 274 q 446 320 460 307 q 399 335 432 333 l 351 335 l 351 486 q 372 635 351 568 q 447 743 393 703 q 601 783 501 783 l 601 585 q 560 569 572 585 q 547 533 549 554 q 544 490 544 511 l 544 478 q 590 456 568 475 q 625 400 611 438 q 639 300 639 363 l 639 231 q 576 47 639 104 q 392 -11 514 -11 m 679 -11 l 679 188 q 732 203 715 188 q 753 238 749 218 q 757 275 757 258 l 757 483 q 753 526 757 503 q 732 567 749 550 q 679 585 715 585 l 679 783 q 836 745 776 783 q 924 642 896 707 q 953 497 953 578 l 953 275 q 924 130 953 194 q 836 27 896 65 q 679 -11 776 -11 z "},"ළ":{"ha":846,"x_min":42,"x_max":818,"o":"m 393 -236 q 139 -151 236 -236 q 42 107 42 -67 l 42 269 q 82 418 42 358 q 183 508 122 478 q 300 539 243 539 l 751 539 l 751 356 l 344 356 q 289 341 314 356 q 249 293 264 326 q 235 203 235 260 l 235 104 q 245 39 235 67 q 276 -6 256 11 q 326 -33 296 -24 q 393 -42 356 -42 l 393 -236 m 478 -236 l 478 -42 q 547 -32 515 -42 q 600 -1 578 -22 q 631 56 622 21 l 818 3 q 767 -116 803 -69 q 684 -189 732 -162 q 583 -226 636 -215 q 478 -236 529 -236 m 497 93 l 451 93 q 349 110 396 93 q 269 158 303 128 q 218 224 236 188 q 200 300 200 261 l 326 418 q 337 345 326 375 q 365 298 347 315 q 401 272 382 281 q 437 260 419 263 q 464 257 454 257 l 492 257 q 558 272 529 257 q 596 308 586 286 l 753 268 q 676 154 724 192 q 580 105 628 117 q 497 93 532 93 m 160 585 l 160 619 q 212 750 160 701 q 347 799 264 799 q 412 789 385 799 q 458 761 439 779 q 507 792 479 785 q 561 799 535 799 q 700 744 650 799 q 750 607 750 690 l 589 607 q 578 635 589 625 q 551 644 568 644 q 524 633 533 644 q 515 607 515 621 l 397 607 q 390 634 396 622 q 360 646 383 646 q 329 633 338 646 q 321 604 321 619 l 160 585 z "},"ෆ":{"ha":903,"x_min":42,"x_max":861,"o":"m 42 349 l 42 550 q 73 678 42 626 q 160 757 104 731 q 289 783 217 783 q 382 769 339 783 q 456 722 425 756 q 525 769 486 756 q 611 783 564 783 q 741 755 685 783 q 829 674 797 726 q 861 550 861 621 l 861 349 l 668 349 l 668 535 q 648 576 668 563 q 604 590 628 590 q 560 576 581 590 q 540 532 540 561 l 540 349 l 363 349 l 363 532 q 342 576 363 561 q 299 590 322 590 q 255 576 275 590 q 235 535 235 563 l 235 349 l 42 349 m 313 0 q 157 37 217 0 q 69 137 97 74 q 42 281 42 200 l 235 281 q 239 245 235 264 q 260 213 243 226 q 313 199 276 199 l 313 0 m 590 0 l 590 199 q 643 213 626 199 q 664 245 660 226 q 668 281 668 264 l 861 281 q 833 137 861 200 q 747 37 806 74 q 590 0 688 0 z "},"ා":{"ha":385,"x_min":42,"x_max":343,"o":"m 42 0 l 42 199 l 69 199 q 113 208 97 199 q 135 230 128 217 q 145 258 143 243 q 147 286 147 274 l 147 497 q 145 530 147 513 q 135 563 143 547 q 113 588 128 578 q 69 599 97 599 l 42 599 l 42 797 l 69 797 q 226 759 167 797 q 315 656 286 721 q 343 511 343 592 l 343 286 q 315 141 343 206 q 226 38 286 76 q 69 0 167 0 l 42 0 z "},"ෑ":{"ha":385,"x_min":42,"x_max":343,"o":"m 313 0 q 177 23 239 0 q 78 90 115 46 q 42 199 42 135 l 42 254 q 56 314 42 288 q 94 366 69 340 q 149 419 118 392 l 42 419 l 42 572 l 163 644 l 42 644 l 42 797 l 343 797 l 343 644 l 219 572 l 343 572 l 343 419 q 287 373 308 393 q 255 337 265 353 q 241 306 244 321 q 238 272 238 290 l 238 267 q 244 233 238 246 q 263 212 251 219 q 288 201 275 204 q 314 199 301 199 l 343 199 l 343 0 l 313 0 z "},"ැ":{"ha":399,"x_min":42,"x_max":357,"o":"m 326 0 q 188 24 253 0 q 82 103 122 49 q 42 247 42 157 l 42 347 q 48 426 42 393 q 67 485 54 458 q 99 541 79 513 q 146 608 118 569 l 49 608 l 49 797 l 357 797 l 357 608 q 297 524 321 558 q 260 464 274 489 q 242 418 247 439 q 236 372 236 397 l 236 281 q 245 239 236 256 q 267 214 254 222 q 292 202 279 206 q 314 199 306 199 l 357 199 l 357 0 l 326 0 z "},"ෛ":{"ha":1269,"x_min":42,"x_max":1228,"o":"m 261 -7 q 142 25 186 -7 q 76 104 97 57 q 48 198 54 151 q 42 275 42 244 l 42 515 q 52 602 42 556 q 90 690 63 649 q 165 757 117 731 q 289 783 214 783 l 346 783 l 346 603 l 304 603 q 267 592 285 603 q 240 563 250 582 q 229 515 229 543 l 229 275 q 233 225 229 249 q 251 188 238 201 q 290 174 264 174 l 290 -7 l 261 -7 m 357 -7 l 357 174 q 394 188 382 174 q 406 228 406 203 l 406 274 q 398 299 406 292 q 377 309 390 307 q 344 311 364 311 l 324 311 l 324 492 l 444 492 q 519 481 486 492 q 573 440 553 469 q 593 354 593 410 l 593 218 q 569 107 593 158 q 503 24 546 56 q 400 -7 460 -7 l 357 -7 m 419 556 q 412 576 418 567 q 396 591 406 585 q 374 600 386 597 q 346 603 361 603 l 346 783 l 375 783 q 488 753 443 783 q 559 681 533 724 q 589 599 585 638 l 419 556 m 896 -7 q 776 25 821 -7 q 710 104 732 57 q 683 198 689 151 q 676 275 676 244 l 676 515 q 687 602 676 556 q 724 690 697 649 q 800 757 751 731 q 924 783 849 783 l 981 783 l 981 603 l 939 603 q 902 592 919 603 q 874 563 885 582 q 864 515 864 543 l 864 275 q 868 225 864 249 q 885 188 872 201 q 925 174 899 174 l 925 -7 l 896 -7 m 992 -7 l 992 174 q 1028 188 1017 174 q 1040 228 1040 203 l 1040 274 q 1033 299 1040 292 q 1012 309 1025 307 q 979 311 999 311 l 958 311 l 958 492 l 1079 492 q 1154 481 1121 492 q 1208 440 1188 469 q 1228 354 1228 410 l 1228 218 q 1204 107 1228 158 q 1138 24 1181 56 q 1035 -7 1094 -7 l 992 -7 m 1054 556 q 1047 576 1053 567 q 1031 591 1040 585 q 1008 600 1021 597 q 981 603 996 603 l 981 783 l 1010 783 q 1123 753 1078 783 q 1194 681 1168 724 q 1224 599 1219 638 l 1054 556 z "},"ෞ":{"ha":1224,"x_min":42,"x_max":1182,"o":"m 924 -11 q 806 15 863 -11 q 713 96 749 42 q 676 231 676 150 l 676 281 l 853 281 l 853 231 q 865 189 853 206 q 894 163 876 172 q 932 154 913 154 q 968 163 951 154 q 995 188 985 171 q 1006 231 1006 206 l 1006 588 q 999 608 1006 601 q 985 615 992 615 q 969 608 976 615 q 963 588 963 601 l 963 521 q 922 431 963 463 q 829 400 881 400 q 757 417 792 400 q 699 471 722 435 q 676 563 676 507 l 676 783 l 804 783 l 804 615 q 811 598 804 604 q 826 592 818 592 q 840 598 833 592 q 847 615 847 604 l 847 642 q 870 726 847 693 q 930 776 893 760 q 1006 793 967 793 q 1128 745 1075 793 q 1182 607 1181 697 l 1182 231 q 1144 98 1182 151 q 1048 17 1107 44 q 924 -11 989 -11 m 261 -7 q 142 25 186 -7 q 76 104 97 57 q 48 198 54 151 q 42 275 42 244 l 42 515 q 52 602 42 556 q 90 690 63 649 q 165 757 117 731 q 289 783 214 783 l 346 783 l 346 603 l 304 603 q 267 592 285 603 q 240 563 250 582 q 229 515 229 543 l 229 275 q 233 225 229 249 q 251 188 238 201 q 290 174 264 174 l 290 -7 l 261 -7 m 357 -7 l 357 174 q 394 188 382 174 q 406 228 406 203 l 406 274 q 398 299 406 292 q 377 309 390 307 q 344 311 364 311 l 324 311 l 324 492 l 444 492 q 519 481 486 492 q 573 440 553 469 q 593 354 593 410 l 593 218 q 569 107 593 158 q 503 24 546 56 q 400 -7 460 -7 l 357 -7 m 419 556 q 412 576 418 567 q 396 591 406 585 q 374 600 386 597 q 346 603 361 603 l 346 783 l 375 783 q 488 753 443 783 q 559 681 533 724 q 589 599 585 638 l 419 556 z "},"ෙ":{"ha":635,"x_min":42,"x_max":593,"o":"m 261 -7 q 142 25 186 -7 q 76 104 97 57 q 48 198 54 151 q 42 275 42 244 l 42 515 q 52 602 42 556 q 90 690 63 649 q 165 757 117 731 q 289 783 214 783 l 346 783 l 346 603 l 304 603 q 267 592 285 603 q 240 563 250 582 q 229 515 229 543 l 229 275 q 233 225 229 249 q 251 188 238 201 q 290 174 264 174 l 290 -7 l 261 -7 m 357 -7 l 357 174 q 394 188 382 174 q 406 228 406 203 l 406 274 q 398 299 406 292 q 377 309 390 307 q 344 311 364 311 l 324 311 l 324 492 l 444 492 q 519 481 486 492 q 573 440 553 469 q 593 354 593 410 l 593 218 q 569 107 593 158 q 503 24 546 56 q 400 -7 460 -7 l 357 -7 m 419 556 q 412 576 418 567 q 396 591 406 585 q 374 600 386 597 q 346 603 361 603 l 346 783 l 375 783 q 488 753 443 783 q 559 681 533 724 q 589 599 585 638 l 419 556 z "},"ේ":{"ha":1106,"x_min":42,"x_max":1064,"o":"m 875 860 l 875 1138 l 1064 1138 l 1064 860 l 875 860 m 261 -7 q 142 25 186 -7 q 76 104 97 57 q 48 198 54 151 q 42 275 42 244 l 42 515 q 52 602 42 556 q 90 690 63 649 q 165 757 117 731 q 289 783 214 783 l 346 783 l 346 603 l 304 603 q 267 592 285 603 q 240 563 250 582 q 229 515 229 543 l 229 275 q 233 225 229 249 q 251 188 238 201 q 290 174 264 174 l 290 -7 l 261 -7 m 357 -7 l 357 174 q 394 188 382 174 q 406 228 406 203 l 406 274 q 398 299 406 292 q 377 309 390 307 q 344 311 364 311 l 324 311 l 324 492 l 444 492 q 519 481 486 492 q 573 440 553 469 q 593 354 593 410 l 593 218 q 569 107 593 158 q 503 24 546 56 q 400 -7 460 -7 l 357 -7 m 419 556 q 412 576 418 567 q 396 591 406 585 q 374 600 386 597 q 346 603 361 603 l 346 783 l 375 783 q 488 753 443 783 q 559 681 533 724 q 589 599 585 638 l 419 556 z "},"ි":{"ha":0,"x_min":-796,"x_max":-69,"o":"m -796 836 l -796 875 q -763 990 -796 940 q -675 1067 -731 1039 q -551 1096 -619 1096 l -314 1096 q -190 1067 -244 1096 q -102 990 -135 1039 q -69 875 -69 940 l -69 836 l -250 836 q -258 879 -250 864 q -279 903 -267 894 q -307 913 -292 911 q -336 915 -322 915 l -529 915 q -558 913 -543 915 q -586 903 -574 911 q -607 879 -599 894 q -615 836 -615 864 l -796 836 z "},"ී":{"ha":0,"x_min":-869,"x_max":-65,"o":"m -675 913 l -675 885 l -869 885 l -869 913 q -794 1108 -869 1036 q -592 1181 -719 1181 l -579 1181 l -579 1000 l -592 1000 q -655 974 -635 1000 q -675 913 -675 947 m -378 1181 q -150 1116 -235 1181 q -65 929 -65 1051 q -127 759 -65 822 q -283 696 -189 696 q -397 724 -347 696 q -474 797 -446 751 q -503 897 -503 843 l -503 936 l -336 936 l -336 917 q -322 880 -336 894 q -286 865 -308 865 q -252 880 -265 865 q -239 922 -239 894 q -273 982 -239 964 q -378 1000 -307 1000 l -503 1000 l -503 1181 l -378 1181 z "},"ෳ":{"ha":589,"x_min":42,"x_max":547,"o":"m 289 -11 q 171 15 228 -11 q 78 96 114 42 q 42 231 42 150 l 42 281 l 218 281 l 218 231 q 230 189 218 206 q 260 163 242 172 q 297 154 278 154 q 333 163 317 154 q 360 188 350 171 q 371 231 371 206 l 371 588 q 364 608 371 601 q 350 615 357 615 q 335 608 342 615 q 328 588 328 601 l 328 521 q 287 431 328 463 q 194 400 246 400 q 122 417 157 400 q 65 471 88 435 q 42 563 42 507 l 42 783 l 169 783 l 169 615 q 176 598 169 604 q 192 592 183 592 q 206 598 199 592 q 213 615 213 604 l 213 642 q 235 726 213 693 q 295 776 258 760 q 371 793 332 793 q 493 745 440 793 q 547 607 546 697 l 547 231 q 510 98 547 151 q 413 17 472 44 q 289 -11 354 -11 z "},"ෟ":{"ha":589,"x_min":42,"x_max":547,"o":"m 289 -11 q 171 15 228 -11 q 78 96 114 42 q 42 231 42 150 l 42 281 l 218 281 l 218 231 q 230 189 218 206 q 260 163 242 172 q 297 154 278 154 q 333 163 317 154 q 360 188 350 171 q 371 231 371 206 l 371 588 q 364 608 371 601 q 350 615 357 615 q 335 608 342 615 q 328 588 328 601 l 328 521 q 287 431 328 463 q 194 400 246 400 q 122 417 157 400 q 65 471 88 435 q 42 563 42 507 l 42 783 l 169 783 l 169 615 q 176 598 169 604 q 192 592 183 592 q 206 598 199 592 q 213 615 213 604 l 213 642 q 235 726 213 693 q 295 776 258 760 q 371 793 332 793 q 493 745 440 793 q 547 607 546 697 l 547 231 q 510 98 547 151 q 413 17 472 44 q 289 -11 354 -11 z "},"ො":{"ha":1019,"x_min":42,"x_max":978,"o":"m 676 0 l 676 199 l 704 199 q 747 208 732 199 q 770 230 763 217 q 780 258 778 243 q 782 286 782 274 l 782 497 q 780 530 782 513 q 770 563 778 547 q 747 588 763 578 q 704 599 732 599 l 676 599 l 676 797 l 704 797 q 861 759 801 797 q 949 656 921 721 q 978 511 978 592 l 978 286 q 949 141 978 206 q 861 38 921 76 q 704 0 801 0 l 676 0 m 261 -7 q 142 25 186 -7 q 76 104 97 57 q 48 198 54 151 q 42 275 42 244 l 42 515 q 52 602 42 556 q 90 690 63 649 q 165 757 117 731 q 289 783 214 783 l 346 783 l 346 603 l 304 603 q 267 592 285 603 q 240 563 250 582 q 229 515 229 543 l 229 275 q 233 225 229 249 q 251 188 238 201 q 290 174 264 174 l 290 -7 l 261 -7 m 357 -7 l 357 174 q 394 188 382 174 q 406 228 406 203 l 406 274 q 398 299 406 292 q 377 309 390 307 q 344 311 364 311 l 324 311 l 324 492 l 444 492 q 519 481 486 492 q 573 440 553 469 q 593 354 593 410 l 593 218 q 569 107 593 158 q 503 24 546 56 q 400 -7 460 -7 l 357 -7 m 419 556 q 412 576 418 567 q 396 591 406 585 q 374 600 386 597 q 346 603 361 603 l 346 783 l 375 783 q 488 753 443 783 q 559 681 533 724 q 589 599 585 638 l 419 556 z "},"ෝ":{"ha":1113,"x_min":42,"x_max":1071,"o":"m 768 860 l 768 1138 l 957 1138 l 957 860 l 768 860 m 769 0 l 769 199 l 797 199 q 840 208 825 199 q 863 230 856 217 q 873 258 871 243 q 875 286 875 274 l 875 497 q 873 530 875 513 q 863 563 871 547 q 840 588 856 578 q 797 599 825 599 l 769 599 l 769 797 l 797 797 q 954 759 894 797 q 1042 656 1014 721 q 1071 511 1071 592 l 1071 286 q 1042 141 1071 206 q 954 38 1014 76 q 797 0 894 0 l 769 0 m 261 -7 q 142 25 186 -7 q 76 104 97 57 q 48 198 54 151 q 42 275 42 244 l 42 515 q 52 602 42 556 q 90 690 63 649 q 165 757 117 731 q 289 783 214 783 l 346 783 l 346 603 l 304 603 q 267 592 285 603 q 240 563 250 582 q 229 515 229 543 l 229 275 q 233 225 229 249 q 251 188 238 201 q 290 174 264 174 l 290 -7 l 261 -7 m 357 -7 l 357 174 q 394 188 382 174 q 406 228 406 203 l 406 274 q 398 299 406 292 q 377 309 390 307 q 344 311 364 311 l 324 311 l 324 492 l 444 492 q 519 481 486 492 q 573 440 553 469 q 593 354 593 410 l 593 218 q 569 107 593 158 q 503 24 546 56 q 400 -7 460 -7 l 357 -7 m 419 556 q 412 576 418 567 q 396 591 406 585 q 374 600 386 597 q 346 603 361 603 l 346 783 l 375 783 q 488 753 443 783 q 559 681 533 724 q 589 599 585 638 l 419 556 z "},"ෘ":{"ha":521,"x_min":39,"x_max":479,"o":"m 261 0 q 156 24 207 0 q 72 98 104 49 q 39 221 39 147 q 60 323 39 275 q 128 401 81 371 q 253 431 175 431 l 261 431 l 261 272 l 253 272 q 215 258 229 272 q 201 222 201 244 q 220 179 201 194 q 261 164 239 164 q 297 179 282 164 q 313 225 313 194 l 313 531 q 308 569 313 550 q 286 603 303 589 q 233 617 269 617 l 108 617 l 108 797 l 258 797 q 371 765 321 797 q 450 678 421 733 q 479 553 479 622 l 479 218 q 447 96 479 144 q 365 24 415 47 q 261 0 315 0 z "},"ෲ":{"ha":1042,"x_min":39,"x_max":1000,"o":"m 261 0 q 156 24 207 0 q 72 98 104 49 q 39 221 39 147 q 60 323 39 275 q 128 401 81 371 q 253 431 175 431 l 261 431 l 261 272 l 253 272 q 215 258 229 272 q 201 222 201 244 q 220 179 201 194 q 261 164 239 164 q 297 179 282 164 q 313 225 313 194 l 313 531 q 308 569 313 550 q 286 603 303 589 q 233 617 269 617 l 108 617 l 108 797 l 258 797 q 371 765 321 797 q 450 678 421 733 q 479 553 479 622 l 479 218 q 447 96 479 144 q 365 24 415 47 q 261 0 315 0 m 782 0 q 676 24 728 0 q 592 98 625 49 q 560 221 560 147 q 581 323 560 275 q 649 401 601 371 q 774 431 696 431 l 782 431 l 782 272 l 774 272 q 736 258 750 272 q 722 222 722 244 q 741 179 722 194 q 782 164 760 164 q 818 179 803 164 q 833 225 833 194 l 833 531 q 828 569 833 550 q 807 603 824 589 q 754 617 790 617 l 629 617 l 629 797 l 779 797 q 892 765 842 797 q 971 678 942 733 q 1000 553 1000 622 l 1000 218 q 968 96 1000 144 q 886 24 936 47 q 782 0 836 0 z "},"ු":{"ha":0,"x_min":-664,"x_max":-42,"o":"m -236 -285 l -236 171 l -42 171 l -42 -285 l -236 -285 m -664 -285 l -664 -90 l -411 -90 l -411 -285 l -664 -285 m -333 -285 l -333 -90 l -222 -90 l -222 -285 l -333 -285 z "},"ූ":{"ha":0,"x_min":-675,"x_max":-44,"o":"m -239 -285 l -239 171 l -44 171 l -44 -285 l -239 -285 m -239 -285 q -274 -265 -257 -272 q -306 -256 -290 -258 q -336 -253 -321 -253 l -336 -58 q -307 -60 -324 -58 q -272 -68 -290 -62 q -239 -85 -254 -74 l -239 -285 m -576 -285 q -623 -276 -599 -285 q -675 -249 -647 -268 l -675 -54 q -623 -82 -647 -74 q -576 -90 -599 -90 q -520 -82 -547 -90 q -467 -66 -493 -74 q -414 -58 -440 -58 l -414 -253 q -467 -260 -440 -253 q -520 -276 -493 -268 q -576 -285 -547 -285 z "},"්":{"ha":272,"x_min":42,"x_max":231,"o":"m 42 860 l 42 1138 l 231 1138 l 231 860 l 42 860 z "},"ං":{"ha":492,"x_min":38,"x_max":443,"o":"m 215 124 q 128 146 168 124 q 63 209 88 168 q 38 308 38 250 l 38 494 q 60 597 38 554 q 124 663 83 639 q 215 686 164 686 l 215 547 q 196 541 204 547 q 183 522 188 535 q 179 489 179 508 l 179 313 q 184 285 179 296 q 197 269 189 274 q 215 264 206 264 l 215 124 m 265 124 l 265 264 q 283 269 275 264 q 297 285 292 274 q 301 313 301 296 l 301 489 q 297 522 301 508 q 285 541 293 535 q 265 547 276 547 l 265 686 q 357 663 317 686 q 420 597 397 639 q 443 494 443 554 l 443 308 q 418 209 443 250 q 352 146 393 168 q 265 124 311 124 z "},"ඃ":{"ha":539,"x_min":42,"x_max":497,"o":"m 304 414 l 304 563 q 337 576 326 563 q 347 606 347 589 q 336 635 347 622 q 304 649 325 649 l 304 789 l 324 789 q 421 762 382 789 q 478 693 460 735 q 497 604 497 651 q 478 513 497 557 q 419 442 458 469 q 324 414 381 414 l 304 414 m 215 -10 q 119 18 158 -10 q 61 90 81 46 q 42 181 42 133 q 61 269 42 228 q 119 338 81 311 q 215 365 157 365 l 235 365 l 235 225 q 203 212 214 225 q 192 182 192 199 q 203 152 192 165 q 235 139 214 139 l 235 -10 l 215 -10 m 304 -10 l 304 139 q 337 152 326 139 q 347 182 347 165 q 336 212 347 199 q 304 225 325 225 l 304 365 l 324 365 q 421 338 382 365 q 478 269 460 311 q 497 181 497 228 q 478 90 497 133 q 419 18 458 46 q 324 -10 381 -10 l 304 -10 m 215 414 q 119 442 158 414 q 61 513 81 469 q 42 604 42 557 q 61 693 42 651 q 119 762 81 735 q 215 789 157 789 l 235 789 l 235 649 q 203 635 214 649 q 192 606 192 622 q 203 576 192 589 q 235 563 214 563 l 235 414 l 215 414 z "},"A":{"ha":733,"x_min":44,"x_max":707,"o":"m 513 0 l 485 118 l 340 118 l 382 310 l 432 310 l 285 972 l 478 972 l 707 0 l 513 0 m 44 0 l 224 808 l 244 808 l 328 419 l 236 0 l 44 0 z "},"Æ":{"ha":1010,"x_min":36,"x_max":974,"o":"m 36 0 l 286 972 l 974 972 l 974 778 l 664 778 l 664 581 l 843 581 l 843 385 l 664 385 l 664 196 l 974 196 l 974 0 l 468 0 l 468 206 l 378 206 l 418 372 l 468 372 l 468 778 l 444 778 l 253 0 l 36 0 z "},"Á":{"ha":733,"x_min":44,"x_max":707,"o":"m 319 1064 l 371 1275 l 547 1275 l 446 1064 l 319 1064 m 513 0 l 485 118 l 340 118 l 382 310 l 432 310 l 285 972 l 478 972 l 707 0 l 513 0 m 44 0 l 224 808 l 244 808 l 328 419 l 236 0 l 44 0 z "},"Ă":{"ha":733,"x_min":44,"x_max":707,"o":"m 383 1064 q 317 1082 347 1064 q 268 1131 286 1100 q 250 1197 250 1161 l 339 1197 q 352 1166 339 1179 q 383 1153 365 1153 q 415 1166 403 1153 q 428 1197 428 1179 l 517 1197 q 499 1131 517 1161 q 451 1082 481 1100 q 383 1064 421 1064 m 513 0 l 485 118 l 340 118 l 382 310 l 432 310 l 285 972 l 478 972 l 707 0 l 513 0 m 44 0 l 224 808 l 244 808 l 328 419 l 236 0 l 44 0 z "},"Â":{"ha":733,"x_min":44,"x_max":707,"o":"m 232 1064 l 336 1275 l 428 1275 l 535 1064 l 421 1064 l 382 1143 l 344 1064 l 232 1064 m 513 0 l 485 118 l 340 118 l 382 310 l 432 310 l 285 972 l 478 972 l 707 0 l 513 0 m 44 0 l 224 808 l 244 808 l 328 419 l 236 0 l 44 0 z "},"Ä":{"ha":733,"x_min":44,"x_max":707,"o":"m 501 1064 q 428 1094 458 1064 q 397 1168 397 1125 q 428 1243 397 1213 q 501 1274 458 1274 q 576 1243 546 1274 q 606 1168 606 1213 q 576 1094 606 1125 q 501 1064 546 1064 m 265 1064 q 192 1094 222 1064 q 161 1168 161 1125 q 192 1243 161 1213 q 265 1274 222 1274 q 340 1243 310 1274 q 369 1168 369 1213 q 340 1094 369 1125 q 265 1064 310 1064 m 513 0 l 485 118 l 340 118 l 382 310 l 432 310 l 285 972 l 478 972 l 707 0 l 513 0 m 44 0 l 224 808 l 244 808 l 328 419 l 236 0 l 44 0 z "},"À":{"ha":733,"x_min":44,"x_max":707,"o":"m 310 1064 l 208 1275 l 385 1275 l 436 1064 l 310 1064 m 513 0 l 485 118 l 340 118 l 382 310 l 432 310 l 285 972 l 478 972 l 707 0 l 513 0 m 44 0 l 224 808 l 244 808 l 328 419 l 236 0 l 44 0 z "},"Ā":{"ha":733,"x_min":44,"x_max":707,"o":"m 164 1064 l 164 1178 l 603 1178 l 603 1064 l 164 1064 m 513 0 l 485 118 l 340 118 l 382 310 l 432 310 l 285 972 l 478 972 l 707 0 l 513 0 m 44 0 l 224 808 l 244 808 l 328 419 l 236 0 l 44 0 z "},"Ą":{"ha":733,"x_min":44,"x_max":781,"o":"m 781 -276 q 642 -243 693 -276 q 569 -159 590 -210 q 547 -56 547 -108 l 675 -56 q 709 -131 675 -112 q 781 -150 743 -150 l 781 -276 m 513 0 l 485 118 l 340 118 l 382 310 l 432 310 l 285 972 l 478 972 l 707 0 l 513 0 m 44 0 l 224 808 l 244 808 l 328 419 l 236 0 l 44 0 z "},"Å":{"ha":717,"x_min":36,"x_max":681,"o":"m 490 0 l 463 118 l 332 118 l 374 310 l 424 310 l 278 969 q 250 1012 260 988 q 240 1063 240 1036 q 279 1157 240 1118 q 374 1196 318 1196 q 468 1157 429 1196 q 507 1063 507 1118 q 498 1013 507 1036 q 471 971 489 989 l 681 0 l 490 0 m 36 0 l 215 808 l 236 808 l 319 419 l 228 0 l 36 0 m 374 1018 q 406 1031 393 1018 q 418 1063 418 1044 q 406 1094 418 1082 q 374 1107 393 1107 q 342 1094 356 1107 q 329 1063 329 1082 q 342 1031 329 1044 q 374 1018 356 1018 z "},"Ã":{"ha":733,"x_min":44,"x_max":707,"o":"m 460 1039 q 394 1053 424 1039 q 338 1081 365 1067 q 278 1094 311 1094 q 237 1088 260 1094 q 186 1064 214 1081 l 186 1206 q 240 1229 215 1222 q 283 1236 264 1236 q 347 1222 319 1236 q 403 1194 375 1208 q 465 1179 431 1179 q 515 1188 489 1179 q 576 1218 542 1197 l 576 1078 q 513 1047 542 1056 q 460 1039 483 1039 m 513 0 l 485 118 l 340 118 l 382 310 l 432 310 l 285 972 l 478 972 l 707 0 l 513 0 m 44 0 l 224 808 l 244 808 l 328 419 l 236 0 l 44 0 z "},"B":{"ha":678,"x_min":42,"x_max":635,"o":"m 313 0 l 313 171 l 319 171 q 372 181 350 171 q 410 207 394 190 q 433 244 425 224 q 440 286 440 265 q 410 366 440 331 q 324 401 381 401 l 313 401 l 313 571 l 324 571 q 388 588 363 571 q 427 631 414 604 q 440 686 440 657 q 427 742 440 715 q 387 785 414 768 q 319 801 360 801 l 313 801 l 313 972 l 346 972 q 477 949 422 972 q 567 886 532 925 q 618 799 601 847 q 635 700 635 750 q 610 579 635 638 q 540 486 586 521 q 592 429 571 464 q 624 354 613 394 q 635 272 635 314 q 605 143 635 206 q 511 40 575 81 q 346 0 447 0 l 313 0 m 42 0 l 42 972 l 236 972 l 236 0 l 42 0 z "},"C":{"ha":686,"x_min":53,"x_max":658,"o":"m 326 -7 q 199 21 251 -7 q 115 91 147 49 q 68 177 83 133 q 53 251 53 221 l 53 719 q 68 795 53 751 q 115 881 83 839 q 199 951 147 922 q 326 979 251 979 l 326 783 q 288 774 303 783 q 264 753 272 765 q 252 732 256 742 q 249 719 249 722 l 249 251 q 252 239 249 249 q 264 217 256 229 q 288 197 272 206 q 326 189 303 189 l 326 -7 m 401 -7 l 401 189 q 423 197 411 192 q 445 210 435 201 q 460 231 456 219 q 466 256 465 242 q 467 282 467 269 q 467 290 467 286 q 467 299 467 294 l 658 253 q 621 120 658 179 q 524 27 583 61 q 401 -7 465 -7 m 467 667 q 467 677 467 672 q 467 688 467 682 q 466 714 467 700 q 460 739 465 728 q 449 755 456 747 q 435 768 443 763 q 417 778 426 774 q 401 783 408 782 l 401 979 q 495 957 450 979 q 578 898 540 935 q 637 814 615 861 q 658 717 658 767 l 467 667 z "},"\r":{"ha":947,"x_min":0,"x_max":0,"o":""},"Ć":{"ha":686,"x_min":53,"x_max":658,"o":"m 301 1064 l 353 1275 l 529 1275 l 428 1064 l 301 1064 m 326 -7 q 199 21 251 -7 q 115 91 147 49 q 68 177 83 133 q 53 251 53 221 l 53 719 q 68 795 53 751 q 115 881 83 839 q 199 951 147 922 q 326 979 251 979 l 326 783 q 288 774 303 783 q 264 753 272 765 q 252 732 256 742 q 249 719 249 722 l 249 251 q 252 239 249 249 q 264 217 256 229 q 288 197 272 206 q 326 189 303 189 l 326 -7 m 401 -7 l 401 189 q 423 197 411 192 q 445 210 435 201 q 460 231 456 219 q 466 256 465 242 q 467 282 467 269 q 467 290 467 286 q 467 299 467 294 l 658 253 q 621 120 658 179 q 524 27 583 61 q 401 -7 465 -7 m 467 667 q 467 677 467 672 q 467 688 467 682 q 466 714 467 700 q 460 739 465 728 q 449 755 456 747 q 435 768 443 763 q 417 778 426 774 q 401 783 408 782 l 401 979 q 495 957 450 979 q 578 898 540 935 q 637 814 615 861 q 658 717 658 767 l 467 667 z "},"Č":{"ha":686,"x_min":53,"x_max":658,"o":"m 317 1064 l 213 1275 l 325 1275 l 363 1196 l 401 1275 l 515 1275 l 408 1064 l 317 1064 m 326 -7 q 199 21 251 -7 q 115 91 147 49 q 68 177 83 133 q 53 251 53 221 l 53 719 q 68 795 53 751 q 115 881 83 839 q 199 951 147 922 q 326 979 251 979 l 326 783 q 288 774 303 783 q 264 753 272 765 q 252 732 256 742 q 249 719 249 722 l 249 251 q 252 239 249 249 q 264 217 256 229 q 288 197 272 206 q 326 189 303 189 l 326 -7 m 401 -7 l 401 189 q 423 197 411 192 q 445 210 435 201 q 460 231 456 219 q 466 256 465 242 q 467 282 467 269 q 467 290 467 286 q 467 299 467 294 l 658 253 q 621 120 658 179 q 524 27 583 61 q 401 -7 465 -7 m 467 667 q 467 677 467 672 q 467 688 467 682 q 466 714 467 700 q 460 739 465 728 q 449 755 456 747 q 435 768 443 763 q 417 778 426 774 q 401 783 408 782 l 401 979 q 495 957 450 979 q 578 898 540 935 q 637 814 615 861 q 658 717 658 767 l 467 667 z "},"Ç":{"ha":686,"x_min":53,"x_max":658,"o":"m 194 -276 l 194 -150 q 266 -131 232 -150 q 300 -56 300 -112 l 428 -56 q 406 -159 428 -108 q 334 -243 385 -210 q 194 -276 283 -276 m 326 -7 q 199 21 251 -7 q 115 91 147 49 q 68 177 83 133 q 53 251 53 221 l 53 719 q 68 795 53 751 q 115 881 83 839 q 199 951 147 922 q 326 979 251 979 l 326 783 q 288 774 303 783 q 264 753 272 765 q 252 732 256 742 q 249 719 249 722 l 249 251 q 252 239 249 249 q 264 217 256 229 q 288 197 272 206 q 326 189 303 189 l 326 -7 m 401 -7 l 401 189 q 423 197 411 192 q 445 210 435 201 q 460 231 456 219 q 466 256 465 242 q 467 282 467 269 q 467 290 467 286 q 467 299 467 294 l 658 253 q 621 120 658 179 q 524 27 583 61 q 401 -7 465 -7 m 467 667 q 467 677 467 672 q 467 688 467 682 q 466 714 467 700 q 460 739 465 728 q 449 755 456 747 q 435 768 443 763 q 417 778 426 774 q 401 783 408 782 l 401 979 q 495 957 450 979 q 578 898 540 935 q 637 814 615 861 q 658 717 658 767 l 467 667 z "},"D":{"ha":656,"x_min":58,"x_max":603,"o":"m 329 0 l 329 196 q 344 199 332 196 q 372 210 357 201 q 397 233 386 218 q 407 274 407 249 l 407 699 q 404 713 407 701 q 393 740 401 725 q 369 765 385 754 q 329 776 354 776 l 329 972 q 456 942 404 972 q 540 868 508 913 q 588 778 572 824 q 603 699 603 732 l 603 274 q 572 144 603 197 q 497 60 542 92 q 407 14 453 28 q 329 0 361 0 m 58 0 l 58 972 l 254 972 l 254 0 l 58 0 z "},"Ď":{"ha":656,"x_min":58,"x_max":603,"o":"m 283 1064 l 179 1275 l 292 1275 l 329 1196 l 368 1275 l 482 1275 l 375 1064 l 283 1064 m 329 0 l 329 196 q 344 199 332 196 q 372 210 357 201 q 397 233 386 218 q 407 274 407 249 l 407 699 q 404 713 407 701 q 393 740 401 725 q 369 765 385 754 q 329 776 354 776 l 329 972 q 456 942 404 972 q 540 868 508 913 q 588 778 572 824 q 603 699 603 732 l 603 274 q 572 144 603 197 q 497 60 542 92 q 407 14 453 28 q 329 0 361 0 m 58 0 l 58 972 l 254 972 l 254 0 l 58 0 z "},"Đ":{"ha":696,"x_min":36,"x_max":660,"o":"m 115 0 l 115 406 l 36 406 l 36 583 l 115 583 l 115 972 l 311 972 l 311 583 l 389 583 l 389 406 l 311 406 l 311 0 l 115 0 m 386 0 l 386 196 q 401 199 389 196 q 428 210 414 201 q 453 233 443 218 q 464 274 464 249 l 464 699 q 461 713 464 701 q 450 740 458 725 q 426 765 442 754 q 386 776 411 776 l 386 972 q 513 942 461 972 q 597 868 565 913 q 644 778 629 824 q 660 699 660 732 l 660 274 q 629 144 660 197 q 554 60 599 92 q 464 14 510 28 q 386 0 418 0 z "},"E":{"ha":617,"x_min":58,"x_max":564,"o":"m 58 0 l 58 972 l 564 972 l 564 778 l 254 778 l 254 581 l 433 581 l 433 385 l 254 385 l 254 196 l 564 196 l 564 0 l 58 0 z "},"É":{"ha":617,"x_min":58,"x_max":565,"o":"m 338 1064 l 389 1275 l 565 1275 l 464 1064 l 338 1064 m 58 0 l 58 972 l 564 972 l 564 778 l 254 778 l 254 581 l 433 581 l 433 385 l 254 385 l 254 196 l 564 196 l 564 0 l 58 0 z "},"Ě":{"ha":617,"x_min":58,"x_max":564,"o":"m 264 1064 l 160 1275 l 272 1275 l 310 1196 l 349 1275 l 463 1275 l 356 1064 l 264 1064 m 58 0 l 58 972 l 564 972 l 564 778 l 254 778 l 254 581 l 433 581 l 433 385 l 254 385 l 254 196 l 564 196 l 564 0 l 58 0 z "},"Ê":{"ha":617,"x_min":58,"x_max":564,"o":"m 160 1064 l 264 1275 l 356 1275 l 463 1064 l 349 1064 l 310 1143 l 272 1064 l 160 1064 m 58 0 l 58 972 l 564 972 l 564 778 l 254 778 l 254 581 l 433 581 l 433 385 l 254 385 l 254 196 l 564 196 l 564 0 l 58 0 z "},"Ë":{"ha":617,"x_min":58,"x_max":564,"o":"m 429 1064 q 356 1094 386 1064 q 325 1168 325 1125 q 356 1243 325 1213 q 429 1274 386 1274 q 503 1243 474 1274 q 533 1168 533 1213 q 503 1094 533 1125 q 429 1064 474 1064 m 193 1064 q 119 1094 150 1064 q 89 1168 89 1125 q 119 1243 89 1213 q 193 1274 150 1274 q 267 1243 238 1274 q 297 1168 297 1213 q 267 1094 297 1125 q 193 1064 238 1064 m 58 0 l 58 972 l 564 972 l 564 778 l 254 778 l 254 581 l 433 581 l 433 385 l 254 385 l 254 196 l 564 196 l 564 0 l 58 0 z "},"Ė":{"ha":617,"x_min":58,"x_max":564,"o":"m 311 1064 q 238 1094 268 1064 q 207 1169 207 1125 q 238 1243 207 1213 q 313 1274 268 1274 q 385 1243 356 1274 q 415 1168 415 1213 q 386 1094 415 1125 q 311 1064 357 1064 m 58 0 l 58 972 l 564 972 l 564 778 l 254 778 l 254 581 l 433 581 l 433 385 l 254 385 l 254 196 l 564 196 l 564 0 l 58 0 z "},"È":{"ha":617,"x_min":58,"x_max":564,"o":"m 238 1064 l 136 1275 l 313 1275 l 364 1064 l 238 1064 m 58 0 l 58 972 l 564 972 l 564 778 l 254 778 l 254 581 l 433 581 l 433 385 l 254 385 l 254 196 l 564 196 l 564 0 l 58 0 z "},"Ē":{"ha":617,"x_min":58,"x_max":564,"o":"m 92 1064 l 92 1178 l 531 1178 l 531 1064 l 92 1064 m 58 0 l 58 972 l 564 972 l 564 778 l 254 778 l 254 581 l 433 581 l 433 385 l 254 385 l 254 196 l 564 196 l 564 0 l 58 0 z "},"Ę":{"ha":617,"x_min":58,"x_max":592,"o":"m 592 -276 q 453 -243 504 -276 q 380 -159 401 -210 q 358 -56 358 -108 l 486 -56 q 520 -131 486 -112 q 592 -150 554 -150 l 592 -276 m 58 0 l 58 972 l 564 972 l 564 778 l 254 778 l 254 581 l 433 581 l 433 385 l 254 385 l 254 196 l 564 196 l 564 0 l 58 0 z "},"Ð":{"ha":696,"x_min":36,"x_max":660,"o":"m 115 0 l 115 406 l 36 406 l 36 583 l 115 583 l 115 972 l 311 972 l 311 583 l 389 583 l 389 406 l 311 406 l 311 0 l 115 0 m 386 0 l 386 196 q 401 199 389 196 q 428 210 414 201 q 453 233 443 218 q 464 274 464 249 l 464 699 q 461 713 464 701 q 450 740 458 725 q 426 765 442 754 q 386 776 411 776 l 386 972 q 513 942 461 972 q 597 868 565 913 q 644 778 629 824 q 660 699 660 732 l 660 274 q 629 144 660 197 q 554 60 599 92 q 464 14 510 28 q 386 0 418 0 z "},"€":{"ha":788,"x_min":69,"x_max":718,"o":"m 528 643 q 528 678 528 658 q 529 706 529 697 q 522 743 529 728 q 502 767 515 758 q 469 775 489 775 l 469 969 q 572 949 526 968 q 651 894 618 929 q 701 814 683 860 q 718 714 718 768 l 528 643 m 386 3 q 290 28 333 7 q 213 83 246 49 q 160 162 179 118 q 138 253 140 206 l 138 358 l 69 358 l 69 440 l 138 440 l 138 524 l 69 524 l 69 606 l 138 606 l 138 689 q 158 796 138 746 q 212 884 178 846 q 291 945 246 922 q 386 969 336 968 l 386 775 q 361 770 372 775 q 342 756 350 765 q 331 735 335 747 q 328 706 328 722 l 328 606 l 567 606 l 567 522 l 328 522 l 328 440 l 567 440 l 567 358 l 328 358 l 328 281 q 332 240 328 256 q 344 214 336 224 q 363 200 353 204 q 386 196 374 196 l 386 3 m 469 3 l 469 197 q 503 208 490 199 q 523 235 517 218 q 529 276 529 253 q 529 303 529 290 q 529 329 529 315 l 718 258 q 697 171 718 215 q 640 89 676 126 q 560 28 604 51 q 469 3 515 4 z "},"F":{"ha":600,"x_min":58,"x_max":564,"o":"m 58 1 l 58 972 l 564 972 l 564 778 l 254 778 l 254 581 l 433 581 l 433 385 l 254 385 l 254 1 l 58 1 z "},"G":{"ha":704,"x_min":53,"x_max":657,"o":"m 325 -7 q 249 8 294 -7 q 158 55 203 22 q 83 140 113 88 q 53 267 53 192 l 53 728 q 74 804 57 761 q 124 888 92 847 q 207 953 157 928 q 325 979 257 979 l 325 783 q 276 768 293 783 q 255 735 260 753 q 250 706 250 717 l 250 267 q 260 228 250 243 q 285 204 271 213 q 310 192 299 196 q 325 189 322 189 l 325 -7 m 400 -7 l 400 189 q 413 194 403 189 q 433 208 422 199 q 452 232 444 218 q 460 264 460 246 l 460 310 l 400 310 l 400 490 l 657 490 l 657 244 q 633 158 657 203 q 572 77 610 114 q 488 17 533 40 q 400 -7 443 -7 m 465 646 l 465 700 q 460 737 465 721 q 444 763 454 753 q 423 778 435 772 q 400 783 411 783 l 400 979 q 524 942 465 979 q 619 844 582 904 q 657 717 657 783 l 465 646 z "},"Ğ":{"ha":704,"x_min":53,"x_max":657,"o":"m 363 1064 q 296 1082 326 1064 q 247 1131 265 1100 q 229 1197 229 1161 l 318 1197 q 331 1166 318 1179 q 363 1153 344 1153 q 394 1166 382 1153 q 407 1197 407 1179 l 496 1197 q 478 1131 496 1161 q 430 1082 460 1100 q 363 1064 400 1064 m 325 -7 q 249 8 294 -7 q 158 55 203 22 q 83 140 113 88 q 53 267 53 192 l 53 728 q 74 804 57 761 q 124 888 92 847 q 207 953 157 928 q 325 979 257 979 l 325 783 q 276 768 293 783 q 255 735 260 753 q 250 706 250 717 l 250 267 q 260 228 250 243 q 285 204 271 213 q 310 192 299 196 q 325 189 322 189 l 325 -7 m 400 -7 l 400 189 q 413 194 403 189 q 433 208 422 199 q 452 232 444 218 q 460 264 460 246 l 460 310 l 400 310 l 400 490 l 657 490 l 657 244 q 633 158 657 203 q 572 77 610 114 q 488 17 533 40 q 400 -7 443 -7 m 465 646 l 465 700 q 460 737 465 721 q 444 763 454 753 q 423 778 435 772 q 400 783 411 783 l 400 979 q 524 942 465 979 q 619 844 582 904 q 657 717 657 783 l 465 646 z "},"H":{"ha":729,"x_min":56,"x_max":674,"o":"m 478 0 l 478 400 l 403 400 l 403 578 l 478 578 l 478 972 l 674 972 l 674 0 l 478 0 m 56 0 l 56 972 l 251 972 l 251 578 l 326 578 l 326 400 l 251 400 l 251 0 l 56 0 z "},"I":{"ha":313,"x_min":58,"x_max":254,"o":"m 58 0 l 58 972 l 254 972 l 254 0 l 58 0 z "},"Í":{"ha":313,"x_min":58,"x_max":321,"o":"m 93 1064 l 144 1275 l 321 1275 l 219 1064 l 93 1064 m 58 0 l 58 972 l 254 972 l 254 0 l 58 0 z "},"Î":{"ha":313,"x_min":4,"x_max":307,"o":"m 4 1064 l 108 1275 l 200 1275 l 307 1064 l 193 1064 l 154 1143 l 117 1064 l 4 1064 m 58 0 l 58 972 l 254 972 l 254 0 l 58 0 z "},"Ï":{"ha":313,"x_min":-67,"x_max":378,"o":"m 274 1064 q 200 1094 231 1064 q 169 1168 169 1125 q 200 1243 169 1213 q 274 1274 231 1274 q 348 1243 318 1274 q 378 1168 378 1213 q 348 1094 378 1125 q 274 1064 318 1064 m 38 1064 q -36 1094 -6 1064 q -67 1168 -67 1125 q -36 1243 -67 1213 q 38 1274 -6 1274 q 112 1243 82 1274 q 142 1168 142 1213 q 112 1094 142 1125 q 38 1064 82 1064 m 58 0 l 58 972 l 254 972 l 254 0 l 58 0 z "},"İ":{"ha":313,"x_min":53,"x_max":261,"o":"m 157 1064 q 83 1094 114 1064 q 53 1169 53 1125 q 83 1243 53 1213 q 158 1274 114 1274 q 231 1243 201 1274 q 261 1168 261 1213 q 232 1094 261 1125 q 157 1064 203 1064 m 58 0 l 58 972 l 254 972 l 254 0 l 58 0 z "},"Ì":{"ha":313,"x_min":-8,"x_max":254,"o":"m 93 1064 l -8 1275 l 168 1275 l 219 1064 l 93 1064 m 58 0 l 58 972 l 254 972 l 254 0 l 58 0 z "},"Ī":{"ha":313,"x_min":-64,"x_max":375,"o":"m -64 1064 l -64 1178 l 375 1178 l 375 1064 l -64 1064 m 58 0 l 58 972 l 254 972 l 254 0 l 58 0 z "},"Į":{"ha":313,"x_min":58,"x_max":326,"o":"m 326 -274 q 188 -240 239 -274 q 115 -156 136 -207 q 93 -53 93 -106 l 221 -53 q 255 -128 221 -110 q 326 -147 289 -147 l 326 -274 m 58 0 l 58 972 l 254 972 l 254 0 l 58 0 z "},"J":{"ha":672,"x_min":21,"x_max":628,"o":"m 356 -7 l 356 190 q 370 194 358 190 q 397 206 382 197 q 422 229 411 214 q 433 268 433 244 l 433 972 l 628 972 l 628 268 q 598 140 628 193 q 523 56 568 88 q 433 8 478 24 q 356 -7 388 -7 m 281 -7 q 206 9 250 -7 q 119 58 161 25 q 49 144 78 92 q 21 268 21 196 l 21 336 l 218 336 l 218 268 q 226 229 218 244 q 247 206 235 214 q 268 194 258 197 q 281 190 278 190 l 281 -7 z "},"K":{"ha":678,"x_min":58,"x_max":657,"o":"m 465 0 l 310 474 l 458 972 l 651 972 l 504 474 l 657 0 l 465 0 m 58 0 l 58 972 l 254 972 l 254 0 l 58 0 z "},"L":{"ha":601,"x_min":58,"x_max":581,"o":"m 58 0 l 58 972 l 254 972 l 254 194 l 581 194 l 581 0 l 58 0 z "},"Ĺ":{"ha":601,"x_min":58,"x_max":581,"o":"m 92 1064 l 143 1275 l 319 1275 l 218 1064 l 92 1064 m 58 0 l 58 972 l 254 972 l 254 194 l 581 194 l 581 0 l 58 0 z "},"Ľ":{"ha":601,"x_min":58,"x_max":608,"o":"m 381 768 l 432 979 l 608 979 l 557 768 l 381 768 m 58 0 l 58 972 l 254 972 l 254 194 l 581 194 l 581 0 l 58 0 z "},"Ł":{"ha":736,"x_min":36,"x_max":701,"o":"m 179 0 l 179 324 l 136 290 l 36 419 l 179 531 l 179 972 l 375 972 l 375 683 l 483 768 l 583 639 l 375 476 l 375 193 l 701 193 l 701 0 l 179 0 z "},"M":{"ha":967,"x_min":58,"x_max":908,"o":"m 410 0 l 58 844 l 58 972 l 211 972 l 476 329 l 624 661 l 638 661 l 638 210 l 544 0 l 410 0 m 58 0 l 58 617 l 71 617 l 254 176 l 254 0 l 58 0 m 713 0 l 713 972 l 908 972 l 908 0 l 713 0 z "},"N":{"ha":735,"x_min":58,"x_max":676,"o":"m 583 0 l 58 844 l 58 972 l 218 972 l 676 233 l 676 0 l 583 0 m 58 0 l 58 683 l 69 683 l 254 386 l 254 0 l 58 0 m 665 394 l 481 692 l 481 972 l 676 972 l 676 394 l 665 394 z "},"Ń":{"ha":735,"x_min":58,"x_max":676,"o":"m 304 1064 l 356 1275 l 532 1275 l 431 1064 l 304 1064 m 583 0 l 58 844 l 58 972 l 218 972 l 676 233 l 676 0 l 583 0 m 58 0 l 58 683 l 69 683 l 254 386 l 254 0 l 58 0 m 665 394 l 481 692 l 481 972 l 676 972 l 676 394 l 665 394 z "},"Ň":{"ha":735,"x_min":58,"x_max":676,"o":"m 321 1064 l 217 1275 l 329 1275 l 367 1196 l 406 1275 l 519 1275 l 413 1064 l 321 1064 m 583 0 l 58 844 l 58 972 l 218 972 l 676 233 l 676 0 l 583 0 m 58 0 l 58 683 l 69 683 l 254 386 l 254 0 l 58 0 m 665 394 l 481 692 l 481 972 l 676 972 l 676 394 l 665 394 z "},"Ñ":{"ha":735,"x_min":58,"x_max":676,"o":"m 446 1064 q 381 1078 410 1064 q 324 1106 351 1092 q 264 1119 297 1119 q 223 1113 246 1119 q 172 1089 200 1106 l 172 1231 q 226 1254 201 1247 q 269 1261 250 1261 q 333 1247 306 1261 q 389 1219 361 1233 q 451 1204 417 1204 q 501 1213 475 1204 q 563 1243 528 1222 l 563 1103 q 499 1072 528 1081 q 446 1064 469 1064 m 583 0 l 58 844 l 58 972 l 218 972 l 676 233 l 676 0 l 583 0 m 58 0 l 58 683 l 69 683 l 254 386 l 254 0 l 58 0 m 665 394 l 481 692 l 481 972 l 676 972 l 676 394 l 665 394 z "},"O":{"ha":763,"x_min":56,"x_max":707,"o":"m 419 -7 l 419 190 q 453 198 438 190 q 483 219 469 206 q 503 250 496 232 q 511 290 511 268 l 511 678 q 504 720 511 701 q 485 753 497 739 q 457 776 474 768 q 419 783 440 783 l 419 979 q 530 957 478 979 q 622 897 582 935 q 684 808 661 858 q 707 700 707 757 l 707 283 q 687 169 707 222 q 629 77 667 117 q 538 15 592 38 q 419 -7 485 -7 m 342 -7 q 232 16 283 -7 q 141 79 181 39 q 78 172 101 119 q 56 283 56 225 l 56 700 q 78 808 56 757 q 141 897 101 858 q 233 958 181 936 q 343 979 285 979 l 343 783 q 306 776 322 783 q 277 753 289 768 q 258 720 265 739 q 251 678 251 701 l 251 290 q 259 249 251 268 q 279 217 267 231 q 308 197 292 204 q 342 190 324 190 l 342 -7 z "},"Œ":{"ha":1006,"x_min":36,"x_max":969,"o":"m 385 0 l 385 197 l 464 197 l 464 776 l 385 776 l 385 972 l 969 972 l 969 778 l 660 778 l 660 581 l 839 581 l 839 385 l 660 385 l 660 196 l 969 196 l 969 0 l 385 0 m 308 0 q 232 15 278 0 q 141 64 186 31 q 66 150 96 97 q 36 278 36 203 l 36 721 q 53 795 36 753 q 104 878 69 838 q 190 945 139 918 q 310 972 242 972 l 310 776 q 271 765 286 776 q 247 740 256 754 q 235 713 239 725 q 232 699 232 701 l 232 278 q 242 238 232 254 q 267 213 253 222 q 294 201 282 204 q 308 197 306 197 l 308 0 z "},"Ó":{"ha":728,"x_min":56,"x_max":707,"o":"m 301 1064 l 353 1275 l 529 1275 l 428 1064 l 301 1064 m 419 -7 l 419 190 q 453 198 438 190 q 483 219 469 206 q 503 250 496 232 q 511 290 511 268 l 511 678 q 504 720 511 701 q 485 753 497 739 q 457 776 474 768 q 419 783 440 783 l 419 979 q 530 957 478 979 q 622 897 582 935 q 684 808 661 858 q 707 700 707 757 l 707 283 q 687 169 707 222 q 629 77 667 117 q 538 15 592 38 q 419 -7 485 -7 m 342 -7 q 232 16 283 -7 q 141 79 181 39 q 78 172 101 119 q 56 283 56 225 l 56 700 q 78 808 56 757 q 141 897 101 858 q 233 958 181 936 q 343 979 285 979 l 343 783 q 306 776 322 783 q 277 753 289 768 q 258 720 265 739 q 251 678 251 701 l 251 290 q 259 249 251 268 q 279 217 267 231 q 308 197 292 204 q 342 190 324 190 l 342 -7 z "},"Ô":{"ha":728,"x_min":56,"x_max":707,"o":"m 213 1064 l 317 1275 l 408 1275 l 515 1064 l 401 1064 l 363 1143 l 325 1064 l 213 1064 m 419 -7 l 419 190 q 453 198 438 190 q 483 219 469 206 q 503 250 496 232 q 511 290 511 268 l 511 678 q 504 720 511 701 q 485 753 497 739 q 457 776 474 768 q 419 783 440 783 l 419 979 q 530 957 478 979 q 622 897 582 935 q 684 808 661 858 q 707 700 707 757 l 707 283 q 687 169 707 222 q 629 77 667 117 q 538 15 592 38 q 419 -7 485 -7 m 342 -7 q 232 16 283 -7 q 141 79 181 39 q 78 172 101 119 q 56 283 56 225 l 56 700 q 78 808 56 757 q 141 897 101 858 q 233 958 181 936 q 343 979 285 979 l 343 783 q 306 776 322 783 q 277 753 289 768 q 258 720 265 739 q 251 678 251 701 l 251 290 q 259 249 251 268 q 279 217 267 231 q 308 197 292 204 q 342 190 324 190 l 342 -7 z "},"Ö":{"ha":728,"x_min":56,"x_max":707,"o":"m 482 1064 q 408 1094 439 1064 q 378 1168 378 1125 q 408 1243 378 1213 q 482 1274 439 1274 q 556 1243 526 1274 q 586 1168 586 1213 q 556 1094 586 1125 q 482 1064 526 1064 m 246 1064 q 172 1094 203 1064 q 142 1168 142 1125 q 172 1243 142 1213 q 246 1274 203 1274 q 320 1243 290 1274 q 350 1168 350 1213 q 320 1094 350 1125 q 246 1064 290 1064 m 419 -7 l 419 190 q 453 198 438 190 q 483 219 469 206 q 503 250 496 232 q 511 290 511 268 l 511 678 q 504 720 511 701 q 485 753 497 739 q 457 776 474 768 q 419 783 440 783 l 419 979 q 530 957 478 979 q 622 897 582 935 q 684 808 661 858 q 707 700 707 757 l 707 283 q 687 169 707 222 q 629 77 667 117 q 538 15 592 38 q 419 -7 485 -7 m 342 -7 q 232 16 283 -7 q 141 79 181 39 q 78 172 101 119 q 56 283 56 225 l 56 700 q 78 808 56 757 q 141 897 101 858 q 233 958 181 936 q 343 979 285 979 l 343 783 q 306 776 322 783 q 277 753 289 768 q 258 720 265 739 q 251 678 251 701 l 251 290 q 259 249 251 268 q 279 217 267 231 q 308 197 292 204 q 342 190 324 190 l 342 -7 z "},"Ò":{"ha":728,"x_min":56,"x_max":707,"o":"m 290 1064 l 189 1275 l 365 1275 l 417 1064 l 290 1064 m 419 -7 l 419 190 q 453 198 438 190 q 483 219 469 206 q 503 250 496 232 q 511 290 511 268 l 511 678 q 504 720 511 701 q 485 753 497 739 q 457 776 474 768 q 419 783 440 783 l 419 979 q 530 957 478 979 q 622 897 582 935 q 684 808 661 858 q 707 700 707 757 l 707 283 q 687 169 707 222 q 629 77 667 117 q 538 15 592 38 q 419 -7 485 -7 m 342 -7 q 232 16 283 -7 q 141 79 181 39 q 78 172 101 119 q 56 283 56 225 l 56 700 q 78 808 56 757 q 141 897 101 858 q 233 958 181 936 q 343 979 285 979 l 343 783 q 306 776 322 783 q 277 753 289 768 q 258 720 265 739 q 251 678 251 701 l 251 290 q 259 249 251 268 q 279 217 267 231 q 308 197 292 204 q 342 190 324 190 l 342 -7 z "},"Ő":{"ha":728,"x_min":56,"x_max":707,"o":"m 428 1064 l 479 1275 l 656 1275 l 554 1064 l 428 1064 m 206 1064 l 257 1275 l 433 1275 l 332 1064 l 206 1064 m 419 -7 l 419 190 q 453 198 438 190 q 483 219 469 206 q 503 250 496 232 q 511 290 511 268 l 511 678 q 504 720 511 701 q 485 753 497 739 q 457 776 474 768 q 419 783 440 783 l 419 979 q 530 957 478 979 q 622 897 582 935 q 684 808 661 858 q 707 700 707 757 l 707 283 q 687 169 707 222 q 629 77 667 117 q 538 15 592 38 q 419 -7 485 -7 m 342 -7 q 232 16 283 -7 q 141 79 181 39 q 78 172 101 119 q 56 283 56 225 l 56 700 q 78 808 56 757 q 141 897 101 858 q 233 958 181 936 q 343 979 285 979 l 343 783 q 306 776 322 783 q 277 753 289 768 q 258 720 265 739 q 251 678 251 701 l 251 290 q 259 249 251 268 q 279 217 267 231 q 308 197 292 204 q 342 190 324 190 l 342 -7 z "},"Ō":{"ha":728,"x_min":56,"x_max":707,"o":"m 144 1064 l 144 1178 l 583 1178 l 583 1064 l 144 1064 m 419 -7 l 419 190 q 453 198 438 190 q 483 219 469 206 q 503 250 496 232 q 511 290 511 268 l 511 678 q 504 720 511 701 q 485 753 497 739 q 457 776 474 768 q 419 783 440 783 l 419 979 q 530 957 478 979 q 622 897 582 935 q 684 808 661 858 q 707 700 707 757 l 707 283 q 687 169 707 222 q 629 77 667 117 q 538 15 592 38 q 419 -7 485 -7 m 342 -7 q 232 16 283 -7 q 141 79 181 39 q 78 172 101 119 q 56 283 56 225 l 56 700 q 78 808 56 757 q 141 897 101 858 q 233 958 181 936 q 343 979 285 979 l 343 783 q 306 776 322 783 q 277 753 289 768 q 258 720 265 739 q 251 678 251 701 l 251 290 q 259 249 251 268 q 279 217 267 231 q 308 197 292 204 q 342 190 324 190 l 342 -7 z "},"Ø":{"ha":919,"x_min":0,"x_max":919,"o":"m 422 -7 q 349 7 393 -7 q 261 51 304 21 q 188 131 218 82 l 108 60 l 0 182 l 150 317 l 150 728 q 167 802 150 760 q 218 885 183 844 q 304 952 253 925 q 424 979 356 979 l 424 783 q 385 774 400 783 q 361 749 369 764 q 349 721 353 735 q 346 697 346 707 l 346 494 l 576 701 q 571 733 576 714 q 549 768 565 753 q 499 783 532 783 l 499 979 q 601 960 556 979 q 679 910 646 940 q 733 843 713 879 l 811 914 l 919 792 l 772 658 l 772 271 q 742 143 772 196 q 667 57 711 90 q 576 8 622 24 q 499 -7 531 -7 l 499 190 q 513 194 501 190 q 540 206 525 197 q 565 231 554 215 q 576 271 576 247 l 576 482 l 346 274 q 363 223 346 242 q 399 197 381 204 q 422 190 418 190 l 422 -7 z "},"Õ":{"ha":728,"x_min":56,"x_max":707,"o":"m 442 1039 q 376 1053 406 1039 q 320 1081 347 1067 q 260 1094 293 1094 q 219 1088 242 1094 q 168 1064 196 1081 l 168 1206 q 222 1229 197 1222 q 265 1236 246 1236 q 329 1222 301 1236 q 385 1194 357 1208 q 447 1179 413 1179 q 497 1188 471 1179 q 558 1218 524 1197 l 558 1078 q 494 1047 524 1056 q 442 1039 465 1039 m 419 -7 l 419 190 q 453 198 438 190 q 483 219 469 206 q 503 250 496 232 q 511 290 511 268 l 511 678 q 504 720 511 701 q 485 753 497 739 q 457 776 474 768 q 419 783 440 783 l 419 979 q 530 957 478 979 q 622 897 582 935 q 684 808 661 858 q 707 700 707 757 l 707 283 q 687 169 707 222 q 629 77 667 117 q 538 15 592 38 q 419 -7 485 -7 m 342 -7 q 232 16 283 -7 q 141 79 181 39 q 78 172 101 119 q 56 283 56 225 l 56 700 q 78 808 56 757 q 141 897 101 858 q 233 958 181 936 q 343 979 285 979 l 343 783 q 306 776 322 783 q 277 753 289 768 q 258 720 265 739 q 251 678 251 701 l 251 290 q 259 249 251 268 q 279 217 267 231 q 308 197 292 204 q 342 190 324 190 l 342 -7 z "},"P":{"ha":665,"x_min":58,"x_max":644,"o":"m 58 0 l 58 972 l 254 972 l 254 0 l 58 0 m 329 443 l 329 635 l 375 635 q 403 638 386 635 q 433 656 419 640 q 446 707 446 671 q 433 758 446 743 q 403 776 419 774 q 375 779 386 779 l 329 779 l 329 972 l 381 972 q 542 938 485 972 q 622 842 599 903 q 644 701 644 781 q 619 558 644 615 q 535 472 593 500 q 381 443 478 443 l 329 443 z "},"Q":{"ha":731,"x_min":53,"x_max":675,"o":"m 500 -149 l 401 -7 l 401 190 q 416 194 404 190 q 442 206 428 197 q 468 231 457 215 q 479 271 479 247 l 479 706 q 473 728 479 710 q 450 765 467 747 q 401 783 433 783 l 401 979 q 521 952 469 979 q 606 884 572 925 q 658 801 640 843 q 675 728 675 758 l 675 271 q 663 185 675 224 q 628 117 650 147 q 579 65 607 88 l 656 -44 l 500 -149 m 325 -7 q 249 8 294 -7 q 158 57 203 24 q 83 143 113 90 q 53 271 53 196 l 53 728 q 69 802 53 760 q 121 885 86 844 q 207 952 156 925 q 326 979 258 979 l 326 783 q 278 765 294 783 q 255 728 261 747 q 249 706 249 710 l 249 271 q 259 231 249 247 q 284 206 269 215 q 310 194 299 197 q 325 190 322 190 l 325 -7 z "},"R":{"ha":701,"x_min":58,"x_max":671,"o":"m 490 0 l 469 247 q 452 334 465 301 q 413 382 439 367 q 344 397 388 397 l 329 397 l 329 571 l 347 571 q 438 605 410 571 q 467 681 467 639 q 433 759 467 731 q 347 788 399 788 l 329 788 l 329 972 l 360 972 q 517 938 453 972 q 616 842 582 903 q 650 703 650 782 q 624 578 650 632 q 556 489 599 524 q 622 406 600 461 q 647 301 643 351 l 671 0 l 490 0 m 58 0 l 58 972 l 254 972 l 254 0 l 58 0 z "},"Ŕ":{"ha":701,"x_min":58,"x_max":671,"o":"m 257 1064 l 308 1275 l 485 1275 l 383 1064 l 257 1064 m 490 0 l 469 247 q 452 334 465 301 q 413 382 439 367 q 344 397 388 397 l 329 397 l 329 571 l 347 571 q 438 605 410 571 q 467 681 467 639 q 433 759 467 731 q 347 788 399 788 l 329 788 l 329 972 l 360 972 q 517 938 453 972 q 616 842 582 903 q 650 703 650 782 q 624 578 650 632 q 556 489 599 524 q 622 406 600 461 q 647 301 643 351 l 671 0 l 490 0 m 58 0 l 58 972 l 254 972 l 254 0 l 58 0 z "},"Ř":{"ha":701,"x_min":58,"x_max":671,"o":"m 250 1064 l 146 1275 l 258 1275 l 296 1196 l 335 1275 l 449 1275 l 342 1064 l 250 1064 m 490 0 l 469 247 q 452 334 465 301 q 413 382 439 367 q 344 397 388 397 l 329 397 l 329 571 l 347 571 q 438 605 410 571 q 467 681 467 639 q 433 759 467 731 q 347 788 399 788 l 329 788 l 329 972 l 360 972 q 517 938 453 972 q 616 842 582 903 q 650 703 650 782 q 624 578 650 632 q 556 489 599 524 q 622 406 600 461 q 647 301 643 351 l 671 0 l 490 0 m 58 0 l 58 972 l 254 972 l 254 0 l 58 0 z "},"S":{"ha":668,"x_min":28,"x_max":640,"o":"m 358 -4 l 358 176 q 389 185 374 178 q 417 206 404 193 q 437 236 429 219 q 444 272 444 253 q 424 334 444 307 q 370 381 403 361 q 304 415 338 401 q 244 438 271 429 q 210 449 218 446 q 130 494 169 461 q 65 581 90 528 q 39 704 39 635 q 66 828 39 778 q 133 910 93 879 q 215 957 174 942 q 282 972 256 972 l 282 789 q 260 778 271 785 q 242 760 250 771 q 230 736 235 749 q 225 710 225 724 q 238 667 225 685 q 275 635 251 649 q 328 608 299 621 q 393 581 358 594 q 463 547 428 567 q 547 489 507 524 q 614 406 588 454 q 640 292 640 358 q 601 145 640 213 q 498 37 563 78 q 358 -4 433 -4 m 282 -4 q 178 19 225 -4 q 98 79 132 43 q 46 153 64 115 q 28 219 28 190 l 204 282 q 217 233 204 254 q 247 197 229 211 q 282 176 265 183 l 282 -4 m 421 708 q 410 749 421 732 q 386 776 400 765 q 358 789 372 786 l 358 972 q 458 951 414 972 q 535 896 503 929 q 584 828 567 863 q 601 768 601 793 l 421 708 z "},"Ś":{"ha":668,"x_min":28,"x_max":640,"o":"m 257 1064 l 308 1275 l 485 1275 l 383 1064 l 257 1064 m 358 -4 l 358 176 q 389 185 374 178 q 417 206 404 193 q 437 236 429 219 q 444 272 444 253 q 424 334 444 307 q 370 381 403 361 q 304 415 338 401 q 244 438 271 429 q 210 449 218 446 q 130 494 169 461 q 65 581 90 528 q 39 704 39 635 q 66 828 39 778 q 133 910 93 879 q 215 957 174 942 q 282 972 256 972 l 282 789 q 260 778 271 785 q 242 760 250 771 q 230 736 235 749 q 225 710 225 724 q 238 667 225 685 q 275 635 251 649 q 328 608 299 621 q 393 581 358 594 q 463 547 428 567 q 547 489 507 524 q 614 406 588 454 q 640 292 640 358 q 601 145 640 213 q 498 37 563 78 q 358 -4 433 -4 m 282 -4 q 178 19 225 -4 q 98 79 132 43 q 46 153 64 115 q 28 219 28 190 l 204 282 q 217 233 204 254 q 247 197 229 211 q 282 176 265 183 l 282 -4 m 421 708 q 410 749 421 732 q 386 776 400 765 q 358 789 372 786 l 358 972 q 458 951 414 972 q 535 896 503 929 q 584 828 567 863 q 601 768 601 793 l 421 708 z "},"Š":{"ha":668,"x_min":18,"x_max":631,"o":"m 261 1064 l 157 1275 l 269 1275 l 307 1196 l 346 1275 l 460 1275 l 353 1064 l 261 1064 m 349 -4 l 349 176 q 379 185 364 178 q 407 206 394 193 q 427 236 419 219 q 435 272 435 253 q 414 334 435 307 q 360 381 393 361 q 294 415 328 401 q 235 438 261 429 q 200 449 208 446 q 120 494 160 461 q 55 581 81 528 q 29 704 29 635 q 56 828 29 778 q 124 910 83 879 q 205 957 164 942 q 272 972 246 972 l 272 789 q 251 778 261 785 q 233 760 240 771 q 220 736 225 749 q 215 710 215 724 q 228 667 215 685 q 265 635 242 649 q 319 608 289 621 q 383 581 349 594 q 453 547 418 567 q 538 489 497 524 q 604 406 578 454 q 631 292 631 358 q 592 145 631 213 q 488 37 553 78 q 349 -4 424 -4 m 272 -4 q 169 19 215 -4 q 88 79 122 43 q 36 153 54 115 q 18 219 18 190 l 194 282 q 207 233 194 254 q 238 197 219 211 q 272 176 256 183 l 272 -4 m 411 708 q 401 749 411 732 q 376 776 390 765 q 349 789 363 786 l 349 972 q 449 951 404 972 q 525 896 493 929 q 574 828 557 863 q 592 768 592 793 l 411 708 z "},"T":{"ha":643,"x_min":21,"x_max":622,"o":"m 224 0 l 224 781 l 21 781 l 21 972 l 622 972 l 622 781 l 419 781 l 419 0 l 224 0 z "},"Ť":{"ha":643,"x_min":21,"x_max":622,"o":"m 275 1064 l 171 1275 l 283 1275 l 321 1196 l 360 1275 l 474 1275 l 367 1064 l 275 1064 m 224 0 l 224 781 l 21 781 l 21 972 l 622 972 l 622 781 l 419 781 l 419 0 l 224 0 z "},"Þ":{"ha":658,"x_min":36,"x_max":622,"o":"m 36 0 l 36 972 l 232 972 l 232 0 l 36 0 m 307 289 l 307 482 l 353 482 q 368 483 357 482 q 392 492 379 485 q 414 513 404 499 q 424 554 424 528 q 414 597 424 582 q 391 617 404 611 q 367 625 378 624 q 353 626 356 626 l 307 626 l 307 819 q 501 788 433 819 q 596 697 569 756 q 622 558 622 638 q 589 400 622 460 q 486 315 556 340 q 307 289 417 289 z "},"U":{"ha":711,"x_min":44,"x_max":665,"o":"m 318 -7 q 241 8 288 -7 q 150 56 194 24 q 75 140 106 88 q 44 268 44 193 l 44 972 l 242 972 l 242 268 q 252 229 242 244 q 277 206 263 214 q 303 194 292 197 q 318 190 315 190 l 318 -7 m 393 -7 l 393 190 q 408 194 396 190 q 434 206 419 197 q 460 229 449 214 q 471 268 471 244 l 471 972 l 665 972 l 665 268 q 635 140 665 193 q 561 55 606 88 q 471 8 517 22 q 393 -7 425 -7 z "},"Ú":{"ha":711,"x_min":44,"x_max":665,"o":"m 292 1064 l 343 1275 l 519 1275 l 418 1064 l 292 1064 m 318 -7 q 241 8 288 -7 q 150 56 194 24 q 75 140 106 88 q 44 268 44 193 l 44 972 l 242 972 l 242 268 q 252 229 242 244 q 277 206 263 214 q 303 194 292 197 q 318 190 315 190 l 318 -7 m 393 -7 l 393 190 q 408 194 396 190 q 434 206 419 197 q 460 229 449 214 q 471 268 471 244 l 471 972 l 665 972 l 665 268 q 635 140 665 193 q 561 55 606 88 q 471 8 517 22 q 393 -7 425 -7 z "},"Û":{"ha":711,"x_min":44,"x_max":665,"o":"m 204 1064 l 308 1275 l 400 1275 l 507 1064 l 393 1064 l 354 1143 l 317 1064 l 204 1064 m 318 -7 q 241 8 288 -7 q 150 56 194 24 q 75 140 106 88 q 44 268 44 193 l 44 972 l 242 972 l 242 268 q 252 229 242 244 q 277 206 263 214 q 303 194 292 197 q 318 190 315 190 l 318 -7 m 393 -7 l 393 190 q 408 194 396 190 q 434 206 419 197 q 460 229 449 214 q 471 268 471 244 l 471 972 l 665 972 l 665 268 q 635 140 665 193 q 561 55 606 88 q 471 8 517 22 q 393 -7 425 -7 z "},"Ü":{"ha":711,"x_min":44,"x_max":665,"o":"m 474 1064 q 400 1094 431 1064 q 369 1168 369 1125 q 400 1243 369 1213 q 474 1274 431 1274 q 548 1243 518 1274 q 578 1168 578 1213 q 548 1094 578 1125 q 474 1064 518 1064 m 238 1064 q 164 1094 194 1064 q 133 1168 133 1125 q 164 1243 133 1213 q 238 1274 194 1274 q 312 1243 282 1274 q 342 1168 342 1213 q 312 1094 342 1125 q 238 1064 282 1064 m 318 -7 q 241 8 288 -7 q 150 56 194 24 q 75 140 106 88 q 44 268 44 193 l 44 972 l 242 972 l 242 268 q 252 229 242 244 q 277 206 263 214 q 303 194 292 197 q 318 190 315 190 l 318 -7 m 393 -7 l 393 190 q 408 194 396 190 q 434 206 419 197 q 460 229 449 214 q 471 268 471 244 l 471 972 l 665 972 l 665 268 q 635 140 665 193 q 561 55 606 88 q 471 8 517 22 q 393 -7 425 -7 z "},"Ù":{"ha":711,"x_min":44,"x_max":665,"o":"m 282 1064 l 181 1275 l 357 1275 l 408 1064 l 282 1064 m 318 -7 q 241 8 288 -7 q 150 56 194 24 q 75 140 106 88 q 44 268 44 193 l 44 972 l 242 972 l 242 268 q 252 229 242 244 q 277 206 263 214 q 303 194 292 197 q 318 190 315 190 l 318 -7 m 393 -7 l 393 190 q 408 194 396 190 q 434 206 419 197 q 460 229 449 214 q 471 268 471 244 l 471 972 l 665 972 l 665 268 q 635 140 665 193 q 561 55 606 88 q 471 8 517 22 q 393 -7 425 -7 z "},"Ű":{"ha":711,"x_min":44,"x_max":665,"o":"m 419 1064 l 471 1275 l 647 1275 l 546 1064 l 419 1064 m 197 1064 l 249 1275 l 425 1275 l 324 1064 l 197 1064 m 318 -7 q 241 8 288 -7 q 150 56 194 24 q 75 140 106 88 q 44 268 44 193 l 44 972 l 242 972 l 242 268 q 252 229 242 244 q 277 206 263 214 q 303 194 292 197 q 318 190 315 190 l 318 -7 m 393 -7 l 393 190 q 408 194 396 190 q 434 206 419 197 q 460 229 449 214 q 471 268 471 244 l 471 972 l 665 972 l 665 268 q 635 140 665 193 q 561 55 606 88 q 471 8 517 22 q 393 -7 425 -7 z "},"Ū":{"ha":711,"x_min":44,"x_max":665,"o":"m 136 1064 l 136 1178 l 575 1178 l 575 1064 l 136 1064 m 318 -7 q 241 8 288 -7 q 150 56 194 24 q 75 140 106 88 q 44 268 44 193 l 44 972 l 242 972 l 242 268 q 252 229 242 244 q 277 206 263 214 q 303 194 292 197 q 318 190 315 190 l 318 -7 m 393 -7 l 393 190 q 408 194 396 190 q 434 206 419 197 q 460 229 449 214 q 471 268 471 244 l 471 972 l 665 972 l 665 268 q 635 140 665 193 q 561 55 606 88 q 471 8 517 22 q 393 -7 425 -7 z "},"Ų":{"ha":711,"x_min":44,"x_max":665,"o":"m 525 -276 q 386 -243 438 -276 q 313 -159 335 -210 q 292 -56 292 -108 l 419 -56 q 453 -131 419 -112 q 525 -150 488 -150 l 525 -276 m 318 -7 q 241 8 288 -7 q 150 56 194 24 q 75 140 106 88 q 44 268 44 193 l 44 972 l 242 972 l 242 268 q 252 229 242 244 q 277 206 263 214 q 303 194 292 197 q 318 190 315 190 l 318 -7 m 393 -7 l 393 190 q 408 194 396 190 q 434 206 419 197 q 460 229 449 214 q 471 268 471 244 l 471 972 l 665 972 l 665 268 q 635 140 665 193 q 561 55 606 88 q 471 8 517 22 q 393 -7 425 -7 z "},"Ů":{"ha":711,"x_min":44,"x_max":665,"o":"m 356 1064 q 261 1103 300 1064 q 222 1197 222 1142 q 261 1292 222 1253 q 356 1331 300 1331 q 450 1292 411 1331 q 489 1197 489 1253 q 450 1103 489 1142 q 356 1064 411 1064 m 356 1153 q 388 1166 375 1153 q 400 1197 400 1179 q 388 1229 400 1217 q 356 1242 375 1242 q 324 1229 338 1242 q 311 1197 311 1217 q 324 1166 311 1179 q 356 1153 338 1153 m 318 -7 q 241 8 288 -7 q 150 56 194 24 q 75 140 106 88 q 44 268 44 193 l 44 972 l 242 972 l 242 268 q 252 229 242 244 q 277 206 263 214 q 303 194 292 197 q 318 190 315 190 l 318 -7 m 393 -7 l 393 190 q 408 194 396 190 q 434 206 419 197 q 460 229 449 214 q 471 268 471 244 l 471 972 l 665 972 l 665 268 q 635 140 665 193 q 561 55 606 88 q 471 8 517 22 q 393 -7 425 -7 z "},"V":{"ha":656,"x_min":11,"x_max":644,"o":"m 293 0 l 11 972 l 211 972 l 432 219 l 358 0 l 293 0 m 460 403 l 368 714 l 444 972 l 644 972 l 474 403 l 460 403 z "},"W":{"ha":1100,"x_min":14,"x_max":1086,"o":"m 296 0 l 14 972 l 214 972 l 435 219 l 361 0 l 296 0 m 729 0 l 447 972 l 647 972 l 867 219 l 794 0 l 729 0 m 463 403 l 371 714 l 447 972 l 647 972 l 476 403 l 463 403 m 901 403 l 810 714 l 886 972 l 1086 972 l 915 403 l 901 403 z "},"X":{"ha":614,"x_min":21,"x_max":593,"o":"m 21 0 l 210 501 l 38 972 l 228 972 l 307 761 l 386 972 l 576 972 l 404 501 l 593 0 l 392 0 l 307 232 l 222 0 l 21 0 z "},"Y":{"ha":626,"x_min":17,"x_max":610,"o":"m 199 0 l 199 350 l 17 972 l 221 972 l 401 351 l 401 0 l 199 0 m 446 460 l 354 785 l 408 972 l 610 972 l 458 460 l 446 460 z "},"Ý":{"ha":626,"x_min":17,"x_max":610,"o":"m 250 1064 l 301 1275 l 478 1275 l 376 1064 l 250 1064 m 199 0 l 199 350 l 17 972 l 221 972 l 401 351 l 401 0 l 199 0 m 446 460 l 354 785 l 408 972 l 610 972 l 458 460 l 446 460 z "},"Ÿ":{"ha":626,"x_min":17,"x_max":610,"o":"m 432 1064 q 358 1094 389 1064 q 328 1168 328 1125 q 358 1243 328 1213 q 432 1274 389 1274 q 506 1243 476 1274 q 536 1168 536 1213 q 506 1094 536 1125 q 432 1064 476 1064 m 196 1064 q 122 1094 153 1064 q 92 1168 92 1125 q 122 1243 92 1213 q 196 1274 153 1274 q 270 1243 240 1274 q 300 1168 300 1213 q 270 1094 300 1125 q 196 1064 240 1064 m 199 0 l 199 350 l 17 972 l 221 972 l 401 351 l 401 0 l 199 0 m 446 460 l 354 785 l 408 972 l 610 972 l 458 460 l 446 460 z "},"Z":{"ha":592,"x_min":42,"x_max":550,"o":"m 42 0 l 42 196 l 333 778 l 42 778 l 42 972 l 550 972 l 550 782 l 258 200 l 550 200 l 550 0 l 42 0 z "},"Ź":{"ha":592,"x_min":42,"x_max":550,"o":"m 233 1064 l 285 1275 l 461 1275 l 360 1064 l 233 1064 m 42 0 l 42 196 l 333 778 l 42 778 l 42 972 l 550 972 l 550 782 l 258 200 l 550 200 l 550 0 l 42 0 z "},"Ž":{"ha":592,"x_min":42,"x_max":550,"o":"m 249 1064 l 144 1275 l 257 1275 l 294 1196 l 333 1275 l 447 1275 l 340 1064 l 249 1064 m 42 0 l 42 196 l 333 778 l 42 778 l 42 972 l 550 972 l 550 782 l 258 200 l 550 200 l 550 0 l 42 0 z "},"Ż":{"ha":592,"x_min":42,"x_max":550,"o":"m 296 1064 q 222 1094 253 1064 q 192 1169 192 1125 q 222 1243 192 1213 q 297 1274 253 1274 q 370 1243 340 1274 q 400 1168 400 1213 q 371 1094 400 1125 q 296 1064 342 1064 m 42 0 l 42 196 l 333 778 l 42 778 l 42 972 l 550 972 l 550 782 l 258 200 l 550 200 l 550 0 l 42 0 z "},"a":{"ha":656,"x_min":35,"x_max":621,"o":"m 269 0 q 143 28 196 0 q 63 98 90 56 q 35 183 35 140 l 35 254 q 38 292 35 268 q 57 344 42 317 q 110 392 72 372 q 169 417 132 404 q 246 442 206 429 q 322 470 286 456 q 381 501 358 485 q 404 535 404 517 l 404 567 q 398 594 404 582 q 378 613 392 606 q 343 621 365 621 l 343 792 q 476 756 424 792 q 556 671 529 721 q 582 579 582 621 l 582 217 q 588 190 582 208 q 621 172 594 172 l 621 0 q 542 12 576 0 q 485 44 508 24 q 424 11 458 22 q 344 0 389 0 l 344 171 q 382 181 369 171 q 399 203 394 190 q 404 226 404 217 l 404 340 q 353 317 382 328 q 293 298 324 306 q 240 283 263 290 q 207 272 217 276 q 189 240 189 264 l 189 221 q 195 193 189 204 q 219 176 201 182 q 269 171 236 171 l 269 0 m 206 532 l 44 593 q 78 694 44 650 q 165 765 113 739 q 271 792 217 792 l 271 621 q 235 611 250 621 q 213 582 221 601 q 206 532 206 563 z "},"á":{"ha":656,"x_min":35,"x_max":621,"o":"m 243 878 l 294 1089 l 471 1089 l 369 878 l 243 878 m 269 0 q 143 28 196 0 q 63 98 90 56 q 35 183 35 140 l 35 254 q 38 292 35 268 q 57 344 42 317 q 110 392 72 372 q 169 417 132 404 q 246 442 206 429 q 322 470 286 456 q 381 501 358 485 q 404 535 404 517 l 404 567 q 398 594 404 582 q 378 613 392 606 q 343 621 365 621 l 343 792 q 476 756 424 792 q 556 671 529 721 q 582 579 582 621 l 582 217 q 588 190 582 208 q 621 172 594 172 l 621 0 q 542 12 576 0 q 485 44 508 24 q 424 11 458 22 q 344 0 389 0 l 344 171 q 382 181 369 171 q 399 203 394 190 q 404 226 404 217 l 404 340 q 353 317 382 328 q 293 298 324 306 q 240 283 263 290 q 207 272 217 276 q 189 240 189 264 l 189 221 q 195 193 189 204 q 219 176 201 182 q 269 171 236 171 l 269 0 m 206 532 l 44 593 q 78 694 44 650 q 165 765 113 739 q 271 792 217 792 l 271 621 q 235 611 250 621 q 213 582 221 601 q 206 532 206 563 z "},"ă":{"ha":656,"x_min":35,"x_max":621,"o":"m 307 878 q 240 896 271 878 q 192 944 210 914 q 174 1011 174 975 l 263 1011 q 276 980 263 993 q 307 967 289 967 q 339 980 326 967 q 351 1011 351 993 l 440 1011 q 422 944 440 975 q 374 896 404 914 q 307 878 344 878 m 269 0 q 143 28 196 0 q 63 98 90 56 q 35 183 35 140 l 35 254 q 38 292 35 268 q 57 344 42 317 q 110 392 72 372 q 169 417 132 404 q 246 442 206 429 q 322 470 286 456 q 381 501 358 485 q 404 535 404 517 l 404 567 q 398 594 404 582 q 378 613 392 606 q 343 621 365 621 l 343 792 q 476 756 424 792 q 556 671 529 721 q 582 579 582 621 l 582 217 q 588 190 582 208 q 621 172 594 172 l 621 0 q 542 12 576 0 q 485 44 508 24 q 424 11 458 22 q 344 0 389 0 l 344 171 q 382 181 369 171 q 399 203 394 190 q 404 226 404 217 l 404 340 q 353 317 382 328 q 293 298 324 306 q 240 283 263 290 q 207 272 217 276 q 189 240 189 264 l 189 221 q 195 193 189 204 q 219 176 201 182 q 269 171 236 171 l 269 0 m 206 532 l 44 593 q 78 694 44 650 q 165 765 113 739 q 271 792 217 792 l 271 621 q 235 611 250 621 q 213 582 221 601 q 206 532 206 563 z "},"â":{"ha":656,"x_min":35,"x_max":621,"o":"m 156 878 l 260 1089 l 351 1089 l 458 878 l 344 878 l 306 957 l 268 878 l 156 878 m 269 0 q 143 28 196 0 q 63 98 90 56 q 35 183 35 140 l 35 254 q 38 292 35 268 q 57 344 42 317 q 110 392 72 372 q 169 417 132 404 q 246 442 206 429 q 322 470 286 456 q 381 501 358 485 q 404 535 404 517 l 404 567 q 398 594 404 582 q 378 613 392 606 q 343 621 365 621 l 343 792 q 476 756 424 792 q 556 671 529 721 q 582 579 582 621 l 582 217 q 588 190 582 208 q 621 172 594 172 l 621 0 q 542 12 576 0 q 485 44 508 24 q 424 11 458 22 q 344 0 389 0 l 344 171 q 382 181 369 171 q 399 203 394 190 q 404 226 404 217 l 404 340 q 353 317 382 328 q 293 298 324 306 q 240 283 263 290 q 207 272 217 276 q 189 240 189 264 l 189 221 q 195 193 189 204 q 219 176 201 182 q 269 171 236 171 l 269 0 m 206 532 l 44 593 q 78 694 44 650 q 165 765 113 739 q 271 792 217 792 l 271 621 q 235 611 250 621 q 213 582 221 601 q 206 532 206 563 z "},"´":{"ha":549,"x_min":160,"x_max":388,"o":"m 160 840 l 211 1051 l 388 1051 l 286 840 l 160 840 z "},"ä":{"ha":656,"x_min":35,"x_max":621,"o":"m 425 878 q 351 908 382 878 q 321 982 321 939 q 351 1057 321 1026 q 425 1088 382 1088 q 499 1057 469 1088 q 529 982 529 1026 q 499 908 529 939 q 425 878 469 878 m 189 878 q 115 908 146 878 q 85 982 85 939 q 115 1057 85 1026 q 189 1088 146 1088 q 263 1057 233 1088 q 293 982 293 1026 q 263 908 293 939 q 189 878 233 878 m 269 0 q 143 28 196 0 q 63 98 90 56 q 35 183 35 140 l 35 254 q 38 292 35 268 q 57 344 42 317 q 110 392 72 372 q 169 417 132 404 q 246 442 206 429 q 322 470 286 456 q 381 501 358 485 q 404 535 404 517 l 404 567 q 398 594 404 582 q 378 613 392 606 q 343 621 365 621 l 343 792 q 476 756 424 792 q 556 671 529 721 q 582 579 582 621 l 582 217 q 588 190 582 208 q 621 172 594 172 l 621 0 q 542 12 576 0 q 485 44 508 24 q 424 11 458 22 q 344 0 389 0 l 344 171 q 382 181 369 171 q 399 203 394 190 q 404 226 404 217 l 404 340 q 353 317 382 328 q 293 298 324 306 q 240 283 263 290 q 207 272 217 276 q 189 240 189 264 l 189 221 q 195 193 189 204 q 219 176 201 182 q 269 171 236 171 l 269 0 m 206 532 l 44 593 q 78 694 44 650 q 165 765 113 739 q 271 792 217 792 l 271 621 q 235 611 250 621 q 213 582 221 601 q 206 532 206 563 z "},"æ":{"ha":925,"x_min":36,"x_max":889,"o":"m 626 0 q 524 14 571 0 q 446 56 478 28 q 392 15 426 29 q 318 1 358 1 l 318 157 q 352 168 340 157 q 368 192 364 179 q 372 207 372 204 l 372 315 q 327 297 353 304 q 275 282 301 289 q 226 267 249 275 q 190 250 204 260 q 176 225 176 240 l 176 207 q 185 176 176 188 q 210 161 193 165 q 250 157 226 157 l 250 1 q 135 23 183 1 q 62 79 88 44 q 36 153 36 114 l 36 250 q 60 314 36 288 q 123 358 85 340 q 204 390 161 376 q 285 417 247 404 q 348 447 324 431 q 372 488 372 464 l 372 518 q 361 545 372 533 q 332 564 350 557 q 293 571 314 571 q 246 562 269 571 q 207 534 222 553 q 192 485 192 515 l 60 521 q 90 622 60 576 q 175 694 121 667 q 297 721 229 721 q 385 708 343 721 q 457 671 426 694 q 519 704 485 692 q 596 717 553 717 l 596 557 q 563 549 576 557 q 541 529 549 542 q 533 504 533 517 l 533 450 l 729 450 l 729 499 q 719 531 729 518 q 694 551 710 544 q 664 557 679 557 l 664 717 q 767 690 715 717 q 853 621 818 664 q 888 525 888 578 l 888 289 l 533 289 l 533 221 q 545 183 533 199 q 581 158 557 167 q 640 150 604 150 q 710 163 678 150 q 751 218 743 176 l 889 167 q 797 42 868 83 q 626 0 726 0 z "},"à":{"ha":656,"x_min":35,"x_max":621,"o":"m 243 878 l 142 1089 l 318 1089 l 369 878 l 243 878 m 269 0 q 143 28 196 0 q 63 98 90 56 q 35 183 35 140 l 35 254 q 38 292 35 268 q 57 344 42 317 q 110 392 72 372 q 169 417 132 404 q 246 442 206 429 q 322 470 286 456 q 381 501 358 485 q 404 535 404 517 l 404 567 q 398 594 404 582 q 378 613 392 606 q 343 621 365 621 l 343 792 q 476 756 424 792 q 556 671 529 721 q 582 579 582 621 l 582 217 q 588 190 582 208 q 621 172 594 172 l 621 0 q 542 12 576 0 q 485 44 508 24 q 424 11 458 22 q 344 0 389 0 l 344 171 q 382 181 369 171 q 399 203 394 190 q 404 226 404 217 l 404 340 q 353 317 382 328 q 293 298 324 306 q 240 283 263 290 q 207 272 217 276 q 189 240 189 264 l 189 221 q 195 193 189 204 q 219 176 201 182 q 269 171 236 171 l 269 0 m 206 532 l 44 593 q 78 694 44 650 q 165 765 113 739 q 271 792 217 792 l 271 621 q 235 611 250 621 q 213 582 221 601 q 206 532 206 563 z "},"ā":{"ha":656,"x_min":35,"x_max":621,"o":"m 88 878 l 88 992 l 526 992 l 526 878 l 88 878 m 269 0 q 143 28 196 0 q 63 98 90 56 q 35 183 35 140 l 35 254 q 38 292 35 268 q 57 344 42 317 q 110 392 72 372 q 169 417 132 404 q 246 442 206 429 q 322 470 286 456 q 381 501 358 485 q 404 535 404 517 l 404 567 q 398 594 404 582 q 378 613 392 606 q 343 621 365 621 l 343 792 q 476 756 424 792 q 556 671 529 721 q 582 579 582 621 l 582 217 q 588 190 582 208 q 621 172 594 172 l 621 0 q 542 12 576 0 q 485 44 508 24 q 424 11 458 22 q 344 0 389 0 l 344 171 q 382 181 369 171 q 399 203 394 190 q 404 226 404 217 l 404 340 q 353 317 382 328 q 293 298 324 306 q 240 283 263 290 q 207 272 217 276 q 189 240 189 264 l 189 221 q 195 193 189 204 q 219 176 201 182 q 269 171 236 171 l 269 0 m 206 532 l 44 593 q 78 694 44 650 q 165 765 113 739 q 271 792 217 792 l 271 621 q 235 611 250 621 q 213 582 221 601 q 206 532 206 563 z "},"&":{"ha":914,"x_min":42,"x_max":872,"o":"m 676 0 l 217 546 q 158 644 174 601 q 142 732 142 688 q 169 851 142 799 q 247 938 197 904 q 360 981 296 972 l 360 799 q 341 789 350 797 q 326 768 332 781 q 321 739 321 756 q 324 716 321 728 q 335 692 328 704 q 354 664 343 679 l 575 399 q 589 420 582 408 q 601 447 596 432 q 608 479 607 463 l 807 479 q 788 387 801 428 q 756 311 775 346 q 713 242 738 276 l 872 51 l 676 0 m 339 0 q 190 40 257 0 q 82 147 122 79 q 42 296 42 214 q 69 418 42 361 q 144 515 97 475 l 274 364 q 253 340 261 353 q 241 315 244 328 q 238 290 238 303 q 251 242 238 264 q 287 206 264 219 q 336 192 310 192 q 367 197 351 192 q 399 214 383 201 l 525 65 q 439 17 486 35 q 339 0 392 0 m 476 731 q 474 753 476 740 q 462 780 471 767 q 436 799 453 793 l 436 981 q 576 914 518 971 q 650 776 635 857 l 476 731 z "},"ą":{"ha":656,"x_min":35,"x_max":663,"o":"m 663 -278 q 524 -244 575 -278 q 451 -160 472 -211 q 429 -57 429 -110 l 557 -57 q 591 -133 557 -114 q 663 -151 625 -151 l 663 -278 m 269 0 q 143 28 196 0 q 63 98 90 56 q 35 183 35 140 l 35 254 q 38 292 35 268 q 57 344 42 317 q 110 392 72 372 q 169 417 132 404 q 246 442 206 429 q 322 470 286 456 q 381 501 358 485 q 404 535 404 517 l 404 567 q 398 594 404 582 q 378 613 392 606 q 343 621 365 621 l 343 792 q 476 756 424 792 q 556 671 529 721 q 582 579 582 621 l 582 217 q 588 190 582 208 q 621 172 594 172 l 621 0 q 542 12 576 0 q 485 44 508 24 q 424 11 458 22 q 344 0 389 0 l 344 171 q 382 181 369 171 q 399 203 394 190 q 404 226 404 217 l 404 340 q 353 317 382 328 q 293 298 324 306 q 240 283 263 290 q 207 272 217 276 q 189 240 189 264 l 189 221 q 195 193 189 204 q 219 176 201 182 q 269 171 236 171 l 269 0 m 206 532 l 44 593 q 78 694 44 650 q 165 765 113 739 q 271 792 217 792 l 271 621 q 235 611 250 621 q 213 582 221 601 q 206 532 206 563 z "},"≈":{"ha":789,"x_min":69,"x_max":719,"o":"m 529 507 q 443 522 482 507 q 369 558 404 538 q 297 593 333 578 q 218 608 261 608 q 151 597 188 608 q 69 558 114 586 l 69 743 q 156 781 117 771 q 226 792 194 792 q 309 776 272 792 q 381 741 346 761 q 454 706 417 721 q 538 690 492 690 q 619 704 574 690 q 719 753 664 718 l 719 571 q 615 522 661 536 q 529 507 568 507 m 529 176 q 443 192 482 176 q 369 227 404 207 q 297 263 333 247 q 218 278 261 278 q 151 267 188 278 q 69 228 114 256 l 69 413 q 156 451 117 440 q 226 461 194 461 q 309 446 272 461 q 381 410 346 431 q 454 375 417 390 q 538 360 492 360 q 619 374 574 360 q 719 422 664 388 l 719 240 q 615 191 661 206 q 529 176 568 176 z "},"å":{"ha":656,"x_min":35,"x_max":621,"o":"m 307 878 q 213 917 251 878 q 174 1011 174 956 q 213 1106 174 1067 q 307 1144 251 1144 q 401 1106 363 1144 q 440 1011 440 1067 q 401 917 440 956 q 307 878 363 878 m 307 967 q 339 980 326 967 q 351 1011 351 993 q 339 1043 351 1031 q 307 1056 326 1056 q 276 1043 289 1056 q 263 1011 263 1031 q 276 980 263 993 q 307 967 289 967 m 269 0 q 143 28 196 0 q 63 98 90 56 q 35 183 35 140 l 35 254 q 38 292 35 268 q 57 344 42 317 q 110 392 72 372 q 169 417 132 404 q 246 442 206 429 q 322 470 286 456 q 381 501 358 485 q 404 535 404 517 l 404 567 q 398 594 404 582 q 378 613 392 606 q 343 621 365 621 l 343 792 q 476 756 424 792 q 556 671 529 721 q 582 579 582 621 l 582 217 q 588 190 582 208 q 621 172 594 172 l 621 0 q 542 12 576 0 q 485 44 508 24 q 424 11 458 22 q 344 0 389 0 l 344 171 q 382 181 369 171 q 399 203 394 190 q 404 226 404 217 l 404 340 q 353 317 382 328 q 293 298 324 306 q 240 283 263 290 q 207 272 217 276 q 189 240 189 264 l 189 221 q 195 193 189 204 q 219 176 201 182 q 269 171 236 171 l 269 0 m 206 532 l 44 593 q 78 694 44 650 q 165 765 113 739 q 271 792 217 792 l 271 621 q 235 611 250 621 q 213 582 221 601 q 206 532 206 563 z "},"^":{"ha":703,"x_min":83,"x_max":619,"o":"m 83 639 l 290 1050 l 413 1050 l 619 639 l 449 639 l 350 838 l 253 639 l 83 639 z "},"~":{"ha":872,"x_min":111,"x_max":761,"o":"m 571 326 q 485 342 524 326 q 410 377 446 357 q 339 413 375 397 q 260 428 303 428 q 192 417 229 428 q 111 378 156 406 l 111 563 q 197 601 158 590 q 268 611 236 611 q 351 596 314 611 q 423 560 388 581 q 496 525 458 540 q 579 510 533 510 q 660 524 615 510 q 761 572 706 538 l 761 390 q 656 341 703 356 q 571 326 610 326 z "},"*":{"ha":450,"x_min":21,"x_max":429,"o":"m 174 664 l 174 783 l 79 718 l 22 797 l 143 879 l 21 960 l 79 1039 l 174 978 l 174 1090 l 272 1090 l 272 975 l 371 1039 l 429 960 l 307 878 l 428 794 l 371 715 l 272 785 l 272 664 l 174 664 z "},"@":{"ha":1115,"x_min":22,"x_max":1092,"o":"m 582 -121 q 363 -85 465 -121 q 185 20 261 -49 q 65 188 108 89 q 22 413 22 286 q 69 651 22 544 q 197 835 115 758 q 383 952 278 911 q 608 993 489 993 q 784 968 699 993 q 940 890 869 943 q 1051 754 1010 836 q 1092 557 1092 672 q 1072 415 1092 478 q 1017 303 1051 351 q 938 224 982 256 q 846 177 894 193 q 750 161 797 161 q 693 169 717 161 q 654 191 669 176 q 629 224 639 206 q 583 183 619 206 q 489 161 546 161 q 381 194 428 161 q 310 282 335 226 q 285 408 285 338 q 328 574 285 504 q 440 683 372 644 q 575 721 507 721 q 645 709 618 721 q 688 683 672 697 q 708 663 703 669 l 719 700 l 836 700 l 767 428 q 760 401 764 417 q 757 369 757 385 q 759 350 757 358 q 767 338 761 342 q 785 333 774 333 q 831 349 807 333 q 877 393 856 364 q 912 463 899 422 q 925 556 925 504 q 898 682 925 629 q 825 769 871 735 q 724 819 779 803 q 614 836 669 836 q 469 810 543 836 q 331 733 394 785 q 228 602 268 681 q 189 418 189 524 q 237 218 189 306 q 374 81 285 131 q 582 31 463 31 q 754 58 665 31 q 926 143 843 85 l 996 17 q 888 -55 953 -24 q 744 -103 822 -86 q 582 -121 665 -121 z "},"ã":{"ha":656,"x_min":35,"x_max":621,"o":"m 385 878 q 319 892 349 878 q 263 919 290 906 q 203 933 236 933 q 162 926 185 933 q 111 903 139 919 l 111 1044 q 165 1068 140 1061 q 208 1075 189 1075 q 272 1061 244 1075 q 328 1033 300 1047 q 390 1018 356 1018 q 440 1027 414 1018 q 501 1057 467 1036 l 501 917 q 438 886 467 894 q 385 878 408 878 m 269 0 q 143 28 196 0 q 63 98 90 56 q 35 183 35 140 l 35 254 q 38 292 35 268 q 57 344 42 317 q 110 392 72 372 q 169 417 132 404 q 246 442 206 429 q 322 470 286 456 q 381 501 358 485 q 404 535 404 517 l 404 567 q 398 594 404 582 q 378 613 392 606 q 343 621 365 621 l 343 792 q 476 756 424 792 q 556 671 529 721 q 582 579 582 621 l 582 217 q 588 190 582 208 q 621 172 594 172 l 621 0 q 542 12 576 0 q 485 44 508 24 q 424 11 458 22 q 344 0 389 0 l 344 171 q 382 181 369 171 q 399 203 394 190 q 404 226 404 217 l 404 340 q 353 317 382 328 q 293 298 324 306 q 240 283 263 290 q 207 272 217 276 q 189 240 189 264 l 189 221 q 195 193 189 204 q 219 176 201 182 q 269 171 236 171 l 269 0 m 206 532 l 44 593 q 78 694 44 650 q 165 765 113 739 q 271 792 217 792 l 271 621 q 235 611 250 621 q 213 582 221 601 q 206 532 206 563 z "},"b":{"ha":647,"x_min":58,"x_max":606,"o":"m 324 0 l 324 181 l 374 181 q 406 190 396 181 q 421 208 417 199 q 425 218 425 218 l 425 574 q 422 584 425 575 q 407 602 418 593 q 375 611 396 611 l 324 611 l 324 792 l 374 792 q 476 769 432 792 q 548 711 519 746 q 591 641 576 676 q 606 579 606 606 l 606 215 q 592 154 606 190 q 549 83 578 118 q 476 24 519 47 q 374 0 432 0 l 324 0 m 58 0 l 58 994 l 250 994 l 250 0 l 58 0 z "},"\\":{"ha":535,"x_min":58,"x_max":476,"o":"m 300 -32 l 58 994 l 233 994 l 476 -32 l 300 -32 z "},"|":{"ha":285,"x_min":69,"x_max":215,"o":"m 69 -186 l 69 1047 l 215 1047 l 215 -186 l 69 -186 z "},"{":{"ha":406,"x_min":21,"x_max":378,"o":"m 378 -53 q 275 -47 324 -53 q 188 -14 226 -42 q 128 80 150 14 q 107 267 107 146 l 107 403 q 83 450 107 436 q 21 483 58 464 q 83 513 58 499 q 107 567 107 528 l 107 700 q 128 874 107 810 q 185 970 149 939 q 272 1011 222 1001 q 378 1021 321 1021 l 378 882 q 324 869 343 882 q 296 830 304 857 q 286 759 288 803 q 285 651 285 715 l 285 532 q 265 502 283 514 q 222 483 247 490 q 266 460 249 475 q 283 422 283 444 l 283 288 q 288 185 283 225 q 302 123 292 144 q 331 93 313 101 q 378 85 350 85 l 378 -53 z "},"}":{"ha":406,"x_min":28,"x_max":385,"o":"m 28 -53 l 28 85 q 74 93 56 85 q 103 124 93 101 q 118 186 114 146 q 122 289 122 226 l 122 422 q 140 460 122 444 q 183 483 157 475 q 140 503 157 490 q 122 533 122 515 l 122 651 q 121 759 122 715 q 110 830 119 803 q 83 869 101 857 q 28 882 64 882 l 28 1021 q 134 1011 85 1021 q 221 970 183 1001 q 279 874 258 939 q 300 700 300 810 l 300 567 q 324 513 300 528 q 385 483 347 499 q 323 450 347 464 q 299 403 299 436 l 299 267 q 277 85 299 150 q 217 -9 256 21 q 131 -46 179 -39 q 28 -53 82 -53 z "},"[":{"ha":358,"x_min":69,"x_max":339,"o":"m 69 -50 l 69 1026 l 339 1026 l 339 874 l 254 874 l 250 103 l 339 103 l 339 -50 l 69 -50 z "},"]":{"ha":349,"x_min":19,"x_max":289,"o":"m 19 -50 l 19 103 l 108 103 l 104 874 l 19 874 l 19 1026 l 289 1026 l 289 -50 l 19 -50 z "},"˘":{"ha":339,"x_min":36,"x_max":303,"o":"m 169 597 q 103 615 133 597 q 54 664 72 633 q 36 731 36 694 l 125 731 q 138 699 125 713 q 169 686 151 686 q 201 699 189 686 q 214 731 214 713 l 303 731 q 285 664 303 694 q 237 615 267 633 q 169 597 207 597 z "},"¦":{"ha":297,"x_min":58,"x_max":228,"o":"m 58 565 l 58 1061 l 228 1061 l 228 565 l 58 565 m 58 -194 l 58 301 l 228 301 l 228 -194 l 58 -194 z "},"•":{"ha":489,"x_min":36,"x_max":453,"o":"m 244 269 q 139 297 186 269 q 64 372 92 325 q 36 478 36 419 q 64 584 36 536 q 139 660 92 632 q 244 689 186 689 q 351 660 304 689 q 425 584 397 632 q 453 478 453 536 q 425 372 453 419 q 351 297 397 325 q 244 269 304 269 z "},"c":{"ha":633,"x_min":54,"x_max":607,"o":"m 300 0 q 185 23 232 0 q 110 81 139 46 q 67 152 81 115 q 54 215 54 189 l 54 579 q 68 643 54 607 q 112 713 82 679 q 188 769 142 747 q 299 792 235 792 l 299 614 q 260 608 275 614 q 240 593 246 601 q 235 576 235 585 l 235 215 q 242 193 235 201 q 263 181 249 185 q 300 176 278 178 l 300 0 m 363 -1 l 363 178 q 403 183 388 178 q 428 201 419 188 q 436 239 436 214 l 436 285 l 606 219 q 572 109 607 160 q 480 28 536 58 q 363 -1 424 -3 m 419 507 l 419 553 q 413 589 419 576 q 392 607 406 601 q 363 613 379 613 l 363 792 q 476 762 425 792 q 558 682 528 732 q 589 572 589 632 l 419 507 z "},"ć":{"ha":633,"x_min":54,"x_max":607,"o":"m 268 874 l 319 1085 l 496 1085 l 394 874 l 268 874 m 300 0 q 185 23 232 0 q 110 81 139 46 q 67 152 81 115 q 54 215 54 189 l 54 579 q 68 643 54 607 q 112 713 82 679 q 188 769 142 747 q 299 792 235 792 l 299 614 q 260 608 275 614 q 240 593 246 601 q 235 576 235 585 l 235 215 q 242 193 235 201 q 263 181 249 185 q 300 176 278 178 l 300 0 m 363 -1 l 363 178 q 403 183 388 178 q 428 201 419 188 q 436 239 436 214 l 436 285 l 606 219 q 572 109 607 160 q 480 28 536 58 q 363 -1 424 -3 m 419 507 l 419 553 q 413 589 419 576 q 392 607 406 601 q 363 613 379 613 l 363 792 q 476 762 425 792 q 558 682 528 732 q 589 572 589 632 l 419 507 z "},"ˇ":{"ha":375,"x_min":36,"x_max":339,"o":"m 140 714 l 36 925 l 149 925 l 186 846 l 225 925 l 339 925 l 232 714 l 140 714 z "},"č":{"ha":633,"x_min":54,"x_max":607,"o":"m 283 874 l 179 1085 l 292 1085 l 329 1006 l 368 1085 l 482 1085 l 375 874 l 283 874 m 300 0 q 185 23 232 0 q 110 81 139 46 q 67 152 81 115 q 54 215 54 189 l 54 579 q 68 643 54 607 q 112 713 82 679 q 188 769 142 747 q 299 792 235 792 l 299 614 q 260 608 275 614 q 240 593 246 601 q 235 576 235 585 l 235 215 q 242 193 235 201 q 263 181 249 185 q 300 176 278 178 l 300 0 m 363 -1 l 363 178 q 403 183 388 178 q 428 201 419 188 q 436 239 436 214 l 436 285 l 606 219 q 572 109 607 160 q 480 28 536 58 q 363 -1 424 -3 m 419 507 l 419 553 q 413 589 419 576 q 392 607 406 601 q 363 613 379 613 l 363 792 q 476 762 425 792 q 558 682 528 732 q 589 572 589 632 l 419 507 z "},"ç":{"ha":633,"x_min":54,"x_max":607,"o":"m 163 -276 l 163 -150 q 234 -131 200 -150 q 268 -56 268 -112 l 396 -56 q 374 -159 396 -108 q 302 -243 353 -210 q 163 -276 251 -276 m 300 0 q 185 23 232 0 q 110 81 139 46 q 67 152 81 115 q 54 215 54 189 l 54 579 q 68 643 54 607 q 112 713 82 679 q 188 769 142 747 q 299 792 235 792 l 299 614 q 260 608 275 614 q 240 593 246 601 q 235 576 235 585 l 235 215 q 242 193 235 201 q 263 181 249 185 q 300 176 278 178 l 300 0 m 363 -1 l 363 178 q 403 183 388 178 q 428 201 419 188 q 436 239 436 214 l 436 285 l 606 219 q 572 109 607 160 q 480 28 536 58 q 363 -1 424 -3 m 419 507 l 419 553 q 413 589 419 576 q 392 607 406 601 q 363 613 379 613 l 363 792 q 476 762 425 792 q 558 682 528 732 q 589 572 589 632 l 419 507 z "},"¸":{"ha":592,"x_min":171,"x_max":404,"o":"m 171 -50 l 171 76 q 242 95 208 76 q 276 171 276 114 l 404 171 q 383 67 404 118 q 310 -17 361 17 q 171 -50 260 -50 z "},"¢":{"ha":633,"x_min":54,"x_max":606,"o":"m 419 504 l 419 554 q 411 587 419 575 q 390 604 403 599 q 363 610 376 610 l 363 789 q 475 759 424 789 q 558 679 526 729 q 589 568 589 629 l 419 504 m 299 0 q 184 23 231 0 q 109 81 138 46 q 67 152 81 115 q 54 215 54 189 l 54 576 q 69 640 54 604 q 114 710 83 675 q 190 767 144 744 q 299 789 236 789 l 299 611 q 260 603 274 611 q 240 582 246 594 q 235 556 235 569 l 235 229 q 241 208 235 219 q 262 188 247 196 q 299 179 276 179 l 299 0 m 363 -1 l 363 179 q 413 190 389 179 q 436 239 436 200 q 436 262 436 250 q 436 285 436 274 l 606 219 q 570 109 606 160 q 479 28 535 58 q 363 -1 424 -1 m 229 746 l 229 919 l 299 919 l 299 746 l 229 746 m 229 -131 l 229 43 l 299 43 l 299 -131 l 229 -131 m 363 746 l 363 919 l 433 919 l 433 746 l 363 746 m 363 -131 l 363 43 l 433 43 l 433 -131 l 363 -131 z "},"ˆ":{"ha":375,"x_min":36,"x_max":339,"o":"m 36 714 l 140 925 l 232 925 l 339 714 l 225 714 l 186 793 l 149 714 l 36 714 z "},":":{"ha":347,"x_min":69,"x_max":278,"o":"m 174 493 q 100 524 131 493 q 69 597 69 554 q 100 672 69 642 q 174 703 131 703 q 248 672 218 703 q 278 597 278 642 q 248 524 278 554 q 174 493 218 493 m 174 90 q 100 121 131 90 q 69 194 69 151 q 100 269 69 239 q 174 300 131 300 q 248 269 218 300 q 278 194 278 239 q 248 121 278 151 q 174 90 218 90 z "},",":{"ha":368,"x_min":71,"x_max":299,"o":"m 71 -32 l 122 179 l 299 179 l 247 -32 l 71 -32 z "},"©":{"ha":1144,"x_min":49,"x_max":1104,"o":"m 551 -68 q 371 -26 460 -65 q 209 84 282 14 q 92 252 136 154 q 49 471 49 350 q 81 660 49 575 q 166 810 113 744 q 285 919 219 875 q 421 985 351 963 q 551 1008 490 1008 l 551 883 q 419 854 486 883 q 297 771 353 825 q 206 642 240 717 q 172 475 172 567 q 202 318 172 392 q 284 188 232 244 q 405 99 336 132 q 551 61 474 65 l 551 -68 m 600 -68 l 600 61 q 747 98 678 65 q 867 186 815 131 q 949 314 919 242 q 979 469 979 386 q 946 637 979 561 q 857 767 913 713 q 734 853 801 822 q 600 883 667 883 l 600 1008 q 733 985 663 1008 q 869 915 803 961 q 990 802 936 869 q 1074 648 1043 735 q 1101 454 1104 561 q 1056 244 1099 339 q 941 81 1013 150 q 781 -26 869 13 q 600 -68 693 -64 m 642 574 l 642 600 q 635 635 642 621 q 619 655 629 649 q 600 661 610 661 l 600 786 q 679 762 642 786 q 740 700 717 738 q 764 619 764 663 l 642 574 m 551 156 q 471 174 504 156 q 417 219 438 192 q 388 274 397 246 q 378 321 378 301 l 378 621 q 395 686 378 647 q 451 756 413 725 q 551 786 489 786 l 551 661 q 521 652 532 661 q 506 633 510 643 q 503 621 503 624 l 503 321 q 506 310 503 319 q 521 291 510 300 q 551 282 532 282 l 551 156 m 600 156 l 600 279 q 630 294 618 279 q 642 336 642 310 l 642 367 l 764 322 q 740 242 764 281 q 679 180 717 204 q 600 156 642 156 z "},"¤":{"ha":897,"x_min":56,"x_max":828,"o":"m 417 185 q 326 201 365 185 q 260 243 288 217 l 156 151 l 57 264 l 189 382 q 189 397 189 389 q 189 411 189 404 l 189 604 q 189 619 189 611 q 189 633 189 626 l 56 750 l 156 864 l 261 771 q 327 812 289 797 q 417 826 365 826 l 417 663 q 379 655 393 663 q 360 636 365 647 q 356 614 356 625 l 356 396 q 362 372 356 383 q 381 355 368 361 q 417 349 394 349 l 417 185 m 474 185 l 474 347 q 510 355 497 347 q 527 374 522 363 q 532 396 532 385 l 532 613 q 526 638 532 626 q 508 656 521 649 q 474 663 496 663 l 474 826 q 559 812 522 826 q 624 771 596 797 l 728 864 l 828 750 l 694 632 q 694 617 694 625 q 694 603 694 610 l 694 407 q 694 395 694 401 q 694 382 694 389 l 826 264 l 728 151 l 625 242 q 560 200 597 215 q 474 185 524 185 z "},"d":{"ha":640,"x_min":43,"x_max":583,"o":"m 274 0 q 171 24 214 0 q 99 83 128 47 q 57 154 71 118 q 43 215 43 190 l 43 576 q 57 638 43 601 q 99 708 71 674 q 170 765 128 742 q 271 788 213 788 l 317 788 l 317 608 l 271 608 q 240 599 250 608 q 226 581 229 590 q 222 569 222 571 l 222 218 q 226 208 222 217 q 242 190 231 199 q 274 181 253 181 l 317 181 l 317 0 l 274 0 m 390 0 l 390 994 l 583 994 l 582 0 l 390 0 z "},"†":{"ha":629,"x_min":36,"x_max":593,"o":"m 217 -78 l 217 625 l 36 625 l 36 801 l 217 801 l 217 1061 l 413 1061 l 413 801 l 593 801 l 593 625 l 413 625 l 413 -78 l 217 -78 z "},"‡":{"ha":629,"x_min":36,"x_max":593,"o":"m 217 -78 l 217 182 l 36 182 l 36 358 l 217 358 l 217 625 l 36 625 l 36 801 l 217 801 l 217 1061 l 413 1061 l 413 801 l 593 801 l 593 625 l 413 625 l 413 358 l 593 358 l 593 182 l 413 182 l 413 -78 l 217 -78 z "},"ď":{"ha":640,"x_min":43,"x_max":938,"o":"m 710 843 l 761 1054 l 938 1054 l 886 843 l 710 843 m 274 0 q 171 24 214 0 q 99 83 128 47 q 57 154 71 118 q 43 215 43 190 l 43 576 q 57 638 43 601 q 99 708 71 674 q 170 765 128 742 q 271 788 213 788 l 317 788 l 317 608 l 271 608 q 240 599 250 608 q 226 581 229 590 q 222 569 222 571 l 222 218 q 226 208 222 217 q 242 190 231 199 q 274 181 253 181 l 317 181 l 317 0 l 274 0 m 390 0 l 390 994 l 583 994 l 582 0 l 390 0 z "},"đ":{"ha":575,"x_min":43,"x_max":622,"o":"m 358 0 l 358 792 l 242 792 l 242 925 l 358 925 l 358 994 l 533 994 l 533 925 l 622 925 l 622 792 l 533 792 l 533 0 l 358 0 m 253 0 q 159 22 199 0 q 94 75 119 43 q 56 140 68 107 q 43 196 43 174 l 43 524 q 56 580 43 547 q 94 644 68 613 q 158 696 119 675 q 250 717 197 717 l 292 717 l 292 553 l 250 553 q 222 544 232 553 q 209 528 213 536 q 206 518 206 519 l 206 199 q 209 189 206 197 q 223 172 213 181 q 253 164 233 164 l 292 164 l 292 0 l 253 0 z "},"°":{"ha":418,"x_min":49,"x_max":369,"o":"m 208 650 q 128 672 165 650 q 70 730 92 693 q 49 811 49 767 q 70 890 49 854 q 128 948 92 926 q 208 969 165 969 q 290 948 253 969 q 348 890 326 926 q 369 810 369 854 q 348 730 369 767 q 290 672 326 693 q 208 650 253 650 m 208 757 q 247 772 232 757 q 263 810 263 788 q 247 849 263 833 q 208 864 232 864 q 171 849 186 864 q 156 810 156 833 q 171 772 156 788 q 208 757 186 757 z "},"¨":{"ha":597,"x_min":76,"x_max":521,"o":"m 417 838 q 343 868 374 838 q 313 942 313 899 q 343 1017 313 986 q 417 1047 374 1047 q 491 1017 461 1047 q 521 942 521 986 q 491 868 521 899 q 417 838 461 838 m 181 838 q 107 868 138 838 q 76 942 76 899 q 107 1017 76 986 q 181 1047 138 1047 q 255 1017 225 1047 q 285 942 285 986 q 255 868 285 899 q 181 838 225 838 z "},"÷":{"ha":903,"x_min":94,"x_max":719,"o":"m 94 317 l 94 493 l 719 493 l 719 317 l 94 317 m 419 569 q 344 600 375 569 q 314 674 314 631 q 344 749 314 718 q 418 779 375 779 q 492 749 463 779 q 522 675 522 718 q 492 600 522 631 q 419 569 463 569 m 419 79 q 344 110 375 79 q 314 183 314 140 q 344 258 314 228 q 418 289 375 289 q 492 258 463 289 q 522 185 522 228 q 492 110 522 140 q 419 79 463 79 z "},"$":{"ha":668,"x_min":28,"x_max":640,"o":"m 358 -65 l 358 176 q 386 185 371 178 q 415 204 401 192 q 436 235 428 217 q 444 279 444 254 q 433 328 444 308 q 403 363 422 349 q 358 389 383 378 l 358 594 q 411 574 386 585 q 463 547 436 563 q 554 483 514 519 q 617 401 594 447 q 640 293 640 354 q 616 177 640 232 q 551 81 592 122 q 457 17 510 39 l 457 -65 l 358 -65 m 183 -65 l 183 18 q 101 76 136 40 q 48 151 67 113 q 28 219 29 190 l 204 282 q 218 233 206 254 q 249 197 231 211 q 282 176 267 183 l 282 -65 l 183 -65 m 282 419 q 244 434 263 426 q 210 449 225 442 q 124 503 163 471 q 62 584 85 536 q 39 700 39 632 q 60 815 39 768 q 114 892 81 861 q 183 943 147 924 l 183 1042 l 282 1042 l 282 789 q 262 778 272 786 q 243 760 251 771 q 230 738 235 750 q 225 711 225 725 q 233 678 225 693 q 255 651 242 663 q 282 631 268 640 l 282 419 m 421 708 q 408 749 418 732 q 384 776 397 765 q 358 789 371 786 l 358 1042 l 457 1042 l 457 947 q 532 890 501 925 q 581 821 563 854 q 601 768 599 788 l 421 708 z "},"˙":{"ha":281,"x_min":36,"x_max":244,"o":"m 140 838 q 67 868 97 838 q 36 943 36 899 q 67 1017 36 986 q 142 1047 97 1047 q 215 1017 185 1047 q 244 942 244 986 q 215 868 244 899 q 140 838 186 838 z "},"ı":{"ha":242,"x_min":36,"x_max":206,"o":"m 36 0 l 36 717 l 206 717 l 206 0 l 36 0 z "},"◌":{"ha":883,"x_min":42,"x_max":853,"o":"m 615 597 q 561 619 583 597 q 539 672 539 642 q 561 726 539 704 q 614 747 583 747 q 667 726 646 747 q 689 674 689 704 q 667 619 689 642 q 615 597 646 597 m 282 25 q 228 47 250 25 q 206 100 206 69 q 228 153 206 132 q 281 175 250 175 q 334 153 313 175 q 356 101 356 132 q 334 47 356 69 q 282 25 313 25 m 163 144 q 108 167 131 144 q 86 219 86 189 q 108 273 86 251 q 161 294 131 294 q 215 273 193 294 q 236 221 236 251 q 215 167 236 189 q 163 144 193 144 m 449 -19 q 394 3 417 -19 q 372 56 372 25 q 394 109 372 88 q 447 131 417 131 q 501 109 479 131 q 522 57 522 88 q 501 3 522 25 q 449 -19 479 -19 m 118 311 q 64 333 86 311 q 42 386 42 356 q 64 440 42 418 q 117 461 86 461 q 170 440 149 461 q 192 388 192 418 q 170 333 192 356 q 118 311 149 311 m 163 478 q 108 500 131 478 q 86 553 86 522 q 108 606 86 585 q 161 628 131 628 q 215 606 193 628 q 236 554 236 585 q 215 500 236 522 q 163 478 193 478 m 615 25 q 561 47 583 25 q 539 100 539 69 q 561 153 539 132 q 614 175 583 175 q 667 153 646 175 q 689 101 689 132 q 667 47 689 69 q 615 25 646 25 m 282 597 q 228 619 250 597 q 206 672 206 642 q 228 726 206 704 q 281 747 250 747 q 334 726 313 747 q 356 674 356 704 q 334 619 356 642 q 282 597 313 597 m 735 144 q 681 167 703 144 q 658 219 658 189 q 681 273 658 251 q 733 294 703 294 q 787 273 765 294 q 808 221 808 251 q 787 167 808 189 q 735 144 765 144 m 779 311 q 725 333 747 311 q 703 386 703 356 q 725 440 703 418 q 778 461 747 461 q 831 440 810 461 q 853 388 853 418 q 831 333 853 356 q 779 311 810 311 m 449 642 q 394 664 417 642 q 372 717 372 686 q 394 770 372 749 q 447 792 417 792 q 501 770 479 792 q 522 718 522 749 q 501 664 522 686 q 449 642 479 642 m 735 478 q 681 500 703 478 q 658 553 658 522 q 681 606 658 585 q 733 628 703 628 q 787 606 765 628 q 808 554 808 585 q 787 500 808 522 q 735 478 765 478 z "},"e":{"ha":674,"x_min":54,"x_max":621,"o":"m 300 0 q 192 23 239 0 q 115 81 146 46 q 69 151 85 115 q 54 215 54 188 l 54 579 q 69 643 54 607 q 116 713 85 679 q 193 769 147 747 q 299 792 239 792 l 299 617 q 267 608 281 617 q 247 589 254 600 q 239 567 239 578 l 239 497 l 446 497 l 446 565 q 435 599 446 588 q 407 613 424 610 q 374 617 390 617 l 374 792 q 487 765 431 792 q 581 692 543 739 q 619 581 619 644 l 619 318 l 239 318 l 239 215 q 244 195 239 206 q 263 178 250 185 q 300 171 276 171 l 300 0 m 374 0 l 374 169 q 422 179 403 169 q 453 205 442 189 q 469 240 464 221 l 621 183 q 578 97 611 139 q 492 27 544 54 q 374 0 440 0 z "},"é":{"ha":674,"x_min":54,"x_max":621,"o":"m 274 874 l 325 1085 l 501 1085 l 400 874 l 274 874 m 300 0 q 192 23 239 0 q 115 81 146 46 q 69 151 85 115 q 54 215 54 188 l 54 579 q 69 643 54 607 q 116 713 85 679 q 193 769 147 747 q 299 792 239 792 l 299 617 q 267 608 281 617 q 247 589 254 600 q 239 567 239 578 l 239 497 l 446 497 l 446 565 q 435 599 446 588 q 407 613 424 610 q 374 617 390 617 l 374 792 q 487 765 431 792 q 581 692 543 739 q 619 581 619 644 l 619 318 l 239 318 l 239 215 q 244 195 239 206 q 263 178 250 185 q 300 171 276 171 l 300 0 m 374 0 l 374 169 q 422 179 403 169 q 453 205 442 189 q 469 240 464 221 l 621 183 q 578 97 611 139 q 492 27 544 54 q 374 0 440 0 z "},"ě":{"ha":674,"x_min":54,"x_max":621,"o":"m 289 874 l 185 1085 l 297 1085 l 335 1006 l 374 1085 l 488 1085 l 381 874 l 289 874 m 300 0 q 192 23 239 0 q 115 81 146 46 q 69 151 85 115 q 54 215 54 188 l 54 579 q 69 643 54 607 q 116 713 85 679 q 193 769 147 747 q 299 792 239 792 l 299 617 q 267 608 281 617 q 247 589 254 600 q 239 567 239 578 l 239 497 l 446 497 l 446 565 q 435 599 446 588 q 407 613 424 610 q 374 617 390 617 l 374 792 q 487 765 431 792 q 581 692 543 739 q 619 581 619 644 l 619 318 l 239 318 l 239 215 q 244 195 239 206 q 263 178 250 185 q 300 171 276 171 l 300 0 m 374 0 l 374 169 q 422 179 403 169 q 453 205 442 189 q 469 240 464 221 l 621 183 q 578 97 611 139 q 492 27 544 54 q 374 0 440 0 z "},"ê":{"ha":674,"x_min":54,"x_max":621,"o":"m 185 874 l 289 1085 l 381 1085 l 488 874 l 374 874 l 335 953 l 297 874 l 185 874 m 300 0 q 192 23 239 0 q 115 81 146 46 q 69 151 85 115 q 54 215 54 188 l 54 579 q 69 643 54 607 q 116 713 85 679 q 193 769 147 747 q 299 792 239 792 l 299 617 q 267 608 281 617 q 247 589 254 600 q 239 567 239 578 l 239 497 l 446 497 l 446 565 q 435 599 446 588 q 407 613 424 610 q 374 617 390 617 l 374 792 q 487 765 431 792 q 581 692 543 739 q 619 581 619 644 l 619 318 l 239 318 l 239 215 q 244 195 239 206 q 263 178 250 185 q 300 171 276 171 l 300 0 m 374 0 l 374 169 q 422 179 403 169 q 453 205 442 189 q 469 240 464 221 l 621 183 q 578 97 611 139 q 492 27 544 54 q 374 0 440 0 z "},"ë":{"ha":674,"x_min":54,"x_max":621,"o":"m 454 874 q 381 904 411 874 q 350 978 350 935 q 381 1053 350 1022 q 454 1083 411 1083 q 528 1053 499 1083 q 558 978 558 1022 q 528 904 558 935 q 454 874 499 874 m 218 874 q 144 904 175 874 q 114 978 114 935 q 144 1053 114 1022 q 218 1083 175 1083 q 292 1053 263 1083 q 322 978 322 1022 q 292 904 322 935 q 218 874 263 874 m 300 0 q 192 23 239 0 q 115 81 146 46 q 69 151 85 115 q 54 215 54 188 l 54 579 q 69 643 54 607 q 116 713 85 679 q 193 769 147 747 q 299 792 239 792 l 299 617 q 267 608 281 617 q 247 589 254 600 q 239 567 239 578 l 239 497 l 446 497 l 446 565 q 435 599 446 588 q 407 613 424 610 q 374 617 390 617 l 374 792 q 487 765 431 792 q 581 692 543 739 q 619 581 619 644 l 619 318 l 239 318 l 239 215 q 244 195 239 206 q 263 178 250 185 q 300 171 276 171 l 300 0 m 374 0 l 374 169 q 422 179 403 169 q 453 205 442 189 q 469 240 464 221 l 621 183 q 578 97 611 139 q 492 27 544 54 q 374 0 440 0 z "},"ė":{"ha":674,"x_min":54,"x_max":621,"o":"m 336 874 q 263 904 293 874 q 232 979 232 935 q 263 1053 232 1022 q 338 1083 293 1083 q 410 1053 381 1083 q 440 978 440 1022 q 411 904 440 935 q 336 874 382 874 m 300 0 q 192 23 239 0 q 115 81 146 46 q 69 151 85 115 q 54 215 54 188 l 54 579 q 69 643 54 607 q 116 713 85 679 q 193 769 147 747 q 299 792 239 792 l 299 617 q 267 608 281 617 q 247 589 254 600 q 239 567 239 578 l 239 497 l 446 497 l 446 565 q 435 599 446 588 q 407 613 424 610 q 374 617 390 617 l 374 792 q 487 765 431 792 q 581 692 543 739 q 619 581 619 644 l 619 318 l 239 318 l 239 215 q 244 195 239 206 q 263 178 250 185 q 300 171 276 171 l 300 0 m 374 0 l 374 169 q 422 179 403 169 q 453 205 442 189 q 469 240 464 221 l 621 183 q 578 97 611 139 q 492 27 544 54 q 374 0 440 0 z "},"è":{"ha":674,"x_min":54,"x_max":621,"o":"m 274 874 l 172 1085 l 349 1085 l 400 874 l 274 874 m 300 0 q 192 23 239 0 q 115 81 146 46 q 69 151 85 115 q 54 215 54 188 l 54 579 q 69 643 54 607 q 116 713 85 679 q 193 769 147 747 q 299 792 239 792 l 299 617 q 267 608 281 617 q 247 589 254 600 q 239 567 239 578 l 239 497 l 446 497 l 446 565 q 435 599 446 588 q 407 613 424 610 q 374 617 390 617 l 374 792 q 487 765 431 792 q 581 692 543 739 q 619 581 619 644 l 619 318 l 239 318 l 239 215 q 244 195 239 206 q 263 178 250 185 q 300 171 276 171 l 300 0 m 374 0 l 374 169 q 422 179 403 169 q 453 205 442 189 q 469 240 464 221 l 621 183 q 578 97 611 139 q 492 27 544 54 q 374 0 440 0 z "},"…":{"ha":849,"x_min":42,"x_max":807,"o":"m 703 -29 q 629 1 660 -29 q 599 75 599 32 q 629 150 599 119 q 703 181 660 181 q 777 150 747 181 q 807 75 807 119 q 777 1 807 32 q 703 -29 747 -29 m 146 -29 q 72 1 103 -29 q 42 75 42 32 q 72 150 42 119 q 146 181 103 181 q 220 150 190 181 q 250 75 250 119 q 220 1 250 32 q 146 -29 190 -29 m 425 -29 q 351 1 382 -29 q 321 75 321 32 q 351 150 321 119 q 425 181 382 181 q 499 150 469 181 q 529 75 529 119 q 499 1 529 32 q 425 -29 469 -29 z "},"ē":{"ha":674,"x_min":54,"x_max":621,"o":"m 117 874 l 117 988 l 556 988 l 556 874 l 117 874 m 300 0 q 192 23 239 0 q 115 81 146 46 q 69 151 85 115 q 54 215 54 188 l 54 579 q 69 643 54 607 q 116 713 85 679 q 193 769 147 747 q 299 792 239 792 l 299 617 q 267 608 281 617 q 247 589 254 600 q 239 567 239 578 l 239 497 l 446 497 l 446 565 q 435 599 446 588 q 407 613 424 610 q 374 617 390 617 l 374 792 q 487 765 431 792 q 581 692 543 739 q 619 581 619 644 l 619 318 l 239 318 l 239 215 q 244 195 239 206 q 263 178 250 185 q 300 171 276 171 l 300 0 m 374 0 l 374 169 q 422 179 403 169 q 453 205 442 189 q 469 240 464 221 l 621 183 q 578 97 611 139 q 492 27 544 54 q 374 0 440 0 z "},"—":{"ha":1258,"x_min":36,"x_max":1222,"o":"m 36 319 l 36 496 l 1222 496 l 1222 319 l 36 319 z "},"–":{"ha":739,"x_min":36,"x_max":703,"o":"m 36 319 l 36 496 l 703 496 l 703 319 l 36 319 z "},"ę":{"ha":674,"x_min":54,"x_max":621,"o":"m 511 -276 q 372 -243 424 -276 q 299 -159 321 -210 q 278 -56 278 -108 l 406 -56 q 440 -131 406 -112 q 511 -150 474 -150 l 511 -276 m 300 0 q 192 23 239 0 q 115 81 146 46 q 69 151 85 115 q 54 215 54 188 l 54 579 q 69 643 54 607 q 116 713 85 679 q 193 769 147 747 q 299 792 239 792 l 299 617 q 267 608 281 617 q 247 589 254 600 q 239 567 239 578 l 239 497 l 446 497 l 446 565 q 435 599 446 588 q 407 613 424 610 q 374 617 390 617 l 374 792 q 487 765 431 792 q 581 692 543 739 q 619 581 619 644 l 619 318 l 239 318 l 239 215 q 244 195 239 206 q 263 178 250 185 q 300 171 276 171 l 300 0 m 374 0 l 374 169 q 422 179 403 169 q 453 205 442 189 q 469 240 464 221 l 621 183 q 578 97 611 139 q 492 27 544 54 q 374 0 440 0 z "},"=":{"ha":581,"x_min":69,"x_max":511,"o":"m 69 451 l 69 628 l 511 628 l 511 451 l 69 451 m 69 182 l 69 358 l 511 358 l 511 182 l 69 182 z "},"℮":{"ha":738,"x_min":42,"x_max":696,"o":"m 331 -4 q 192 31 258 -4 q 83 129 125 67 q 42 272 42 192 l 42 703 q 83 846 42 783 q 192 944 125 908 q 331 979 258 979 l 331 785 q 287 770 308 783 q 251 729 265 757 q 236 654 236 701 l 236 564 l 501 564 l 501 654 q 471 753 501 724 q 407 785 440 782 l 407 979 q 547 944 481 979 q 654 846 613 908 q 696 703 696 783 l 696 369 l 236 369 l 236 321 q 268 222 236 251 q 331 190 300 193 l 331 -4 m 407 -4 l 407 190 q 446 203 426 193 q 481 236 465 214 q 500 294 496 258 l 694 247 q 645 117 688 174 q 540 28 603 60 q 407 -4 476 -4 z "},"ð":{"ha":583,"x_min":39,"x_max":553,"o":"m 324 -1 l 324 163 q 360 171 347 163 q 377 190 372 179 q 382 211 382 201 l 382 504 q 377 530 382 519 q 360 547 372 540 q 324 553 347 553 l 324 717 q 352 716 339 717 q 379 711 365 715 q 376 746 378 731 q 371 775 374 761 l 292 751 l 267 831 l 336 853 q 307 878 324 867 q 267 899 290 889 l 267 992 q 376 956 328 981 q 458 890 424 931 l 528 913 l 553 832 l 506 817 q 535 725 525 775 q 544 614 544 675 l 544 196 q 531 137 544 171 q 490 72 518 103 q 422 19 463 40 q 324 -1 381 -1 m 267 -1 q 165 19 208 -1 q 94 72 122 40 q 53 138 67 104 q 39 196 39 171 l 39 522 q 53 581 39 547 q 95 645 67 614 q 167 697 124 676 q 267 717 210 717 l 267 553 q 228 544 242 553 q 210 525 215 536 q 206 504 206 514 l 206 214 q 211 187 206 199 q 231 169 217 175 q 267 163 244 163 l 267 -1 z "},"!":{"ha":339,"x_min":65,"x_max":274,"o":"m 82 231 l 82 972 l 261 972 l 261 231 l 82 231 m 169 -31 q 96 0 126 -31 q 65 74 65 31 q 96 149 65 118 q 169 179 126 179 q 244 149 214 179 q 274 74 274 118 q 244 0 274 31 q 169 -31 214 -31 z "},"¡":{"ha":340,"x_min":29,"x_max":253,"o":"m 50 -275 l 50 513 l 236 513 l 236 -275 l 50 -275 m 142 576 q 63 610 96 576 q 29 688 29 643 q 63 766 29 733 q 142 799 96 799 q 220 766 188 799 q 253 688 253 733 q 220 610 253 643 q 142 576 188 576 z "},"f":{"ha":446,"x_min":21,"x_max":446,"o":"m 118 0 l 118 540 l 21 540 l 21 721 l 118 721 l 118 775 q 132 836 118 800 q 175 908 146 872 q 249 969 204 944 q 353 996 293 994 l 446 996 l 404 817 l 354 817 q 322 807 333 817 q 308 788 311 797 q 304 775 304 778 l 304 721 l 404 721 l 404 540 l 304 540 l 304 0 l 118 0 z "},"ﬁ":{"ha":700,"x_min":36,"x_max":650,"o":"m 124 0 l 124 556 l 36 556 l 36 717 l 124 717 l 124 767 q 137 824 124 790 q 177 890 150 857 q 244 944 204 922 q 338 967 283 967 l 422 967 l 385 804 l 339 804 q 310 796 319 804 q 297 778 300 788 q 293 767 293 769 l 293 717 l 635 717 l 635 0 l 465 0 l 465 556 l 293 556 l 293 0 l 124 0 m 549 775 q 477 805 507 775 q 447 875 447 835 q 477 947 447 917 q 549 976 507 976 q 620 947 590 976 q 650 875 650 917 q 620 805 650 835 q 549 775 590 775 z "},"ﬂ":{"ha":699,"x_min":36,"x_max":635,"o":"m 124 0 l 124 556 l 36 556 l 36 717 l 124 717 l 124 767 q 137 824 124 790 q 177 890 150 857 q 244 944 204 922 q 338 967 283 967 l 635 967 l 635 0 l 460 0 l 460 804 l 339 804 q 310 796 319 804 q 297 778 300 788 q 293 767 293 769 l 293 715 l 385 717 l 385 556 l 293 556 l 293 0 l 124 0 z "},"ƒ":{"ha":531,"x_min":36,"x_max":494,"o":"m 36 -233 l 74 -87 l 150 -87 q 179 -79 169 -87 q 192 -61 189 -71 q 196 -50 196 -51 l 196 556 l 108 556 l 108 717 l 196 717 l 196 767 q 209 824 196 790 q 249 890 222 857 q 316 944 276 922 q 410 967 356 967 l 494 967 l 457 804 l 411 804 q 374 787 382 804 q 365 767 365 769 l 365 715 l 457 717 l 457 556 l 365 556 l 365 -42 q 344 -129 365 -85 q 276 -203 324 -174 q 151 -233 229 -233 l 36 -233 z "},"⁴":{"ha":374,"x_min":28,"x_max":332,"o":"m 28 610 l 28 697 l 163 932 l 163 753 l 135 697 l 163 697 l 163 610 l 28 610 m 197 533 l 197 972 l 297 972 l 297 697 l 332 697 l 332 610 l 297 610 l 297 533 l 197 533 z "},"⁄":{"ha":778,"x_min":36,"x_max":742,"o":"m 36 -3 l 636 975 l 742 975 l 151 -3 l 36 -3 z "},"g":{"ha":633,"x_min":28,"x_max":582,"o":"m 28 -264 l 71 -93 l 346 -93 q 382 -83 369 -93 q 399 -61 394 -72 q 404 -49 404 -50 l 404 17 q 384 14 394 15 q 363 12 374 13 q 342 11 353 11 l 342 183 q 380 190 367 183 q 399 208 393 197 q 404 229 404 219 l 404 583 q 399 599 404 588 q 380 619 393 610 q 342 628 367 628 l 342 801 q 363 801 353 801 q 384 798 374 800 q 404 793 394 796 l 404 801 l 582 801 l 582 -49 q 567 -110 582 -74 q 524 -181 553 -146 q 451 -240 494 -217 q 349 -264 407 -264 l 28 -264 m 282 11 q 176 35 221 11 q 101 93 131 58 q 58 164 72 128 q 43 225 43 200 l 43 590 q 58 652 43 617 q 101 722 72 688 q 176 778 131 756 q 282 801 221 801 l 282 628 q 242 619 257 628 q 222 600 228 610 q 217 586 217 590 l 217 226 q 223 208 217 218 q 243 190 229 197 q 282 183 257 183 l 282 11 z "},"ğ":{"ha":633,"x_min":28,"x_max":582,"o":"m 307 886 q 240 904 271 886 q 192 953 210 922 q 174 1019 174 983 l 263 1019 q 276 988 263 1001 q 307 975 289 975 q 339 988 326 975 q 351 1019 351 1001 l 440 1019 q 422 953 440 983 q 374 904 404 922 q 307 886 344 886 m 28 -264 l 71 -93 l 346 -93 q 382 -83 369 -93 q 399 -61 394 -72 q 404 -49 404 -50 l 404 17 q 384 14 394 15 q 363 12 374 13 q 342 11 353 11 l 342 183 q 380 190 367 183 q 399 208 393 197 q 404 229 404 219 l 404 583 q 399 599 404 588 q 380 619 393 610 q 342 628 367 628 l 342 801 q 363 801 353 801 q 384 798 374 800 q 404 793 394 796 l 404 801 l 582 801 l 582 -49 q 567 -110 582 -74 q 524 -181 553 -146 q 451 -240 494 -217 q 349 -264 407 -264 l 28 -264 m 282 11 q 176 35 221 11 q 101 93 131 58 q 58 164 72 128 q 43 225 43 200 l 43 590 q 58 652 43 617 q 101 722 72 688 q 176 778 131 756 q 282 801 221 801 l 282 628 q 242 619 257 628 q 222 600 228 610 q 217 586 217 590 l 217 226 q 223 208 217 218 q 243 190 229 197 q 282 183 257 183 l 282 11 z "},"ß":{"ha":725,"x_min":38,"x_max":689,"o":"m 38 0 l 38 635 q 38 702 38 660 q 49 792 39 744 q 87 882 60 839 q 167 952 114 925 q 308 979 221 979 q 433 958 385 979 q 509 905 482 938 q 548 836 536 872 q 562 769 560 800 q 564 719 564 738 l 564 563 l 475 564 q 440 547 451 560 q 426 520 429 533 q 424 501 424 507 q 430 480 424 493 q 462 451 436 467 q 543 415 488 435 q 611 381 578 404 q 667 319 644 357 q 689 221 689 281 q 657 101 689 151 q 572 26 625 51 q 454 0 519 0 l 276 0 l 276 153 l 454 153 q 482 158 465 153 q 513 176 499 163 q 526 215 526 190 q 506 259 526 244 q 454 285 486 274 q 383 317 422 297 q 324 358 350 333 q 281 418 297 382 q 265 506 265 454 q 285 601 265 563 q 337 665 304 640 q 408 704 369 689 l 408 721 q 400 767 408 749 q 378 795 392 785 q 347 810 364 806 q 313 814 331 814 q 267 806 286 814 q 238 782 249 797 q 221 744 226 767 q 215 692 215 721 l 215 0 l 38 0 z "},"`":{"ha":481,"x_min":58,"x_max":286,"o":"m 160 840 l 58 1051 l 235 1051 l 286 840 l 160 840 z "},">":{"ha":575,"x_min":42,"x_max":533,"o":"m 42 110 l 42 286 l 286 406 l 42 514 l 42 694 l 533 447 l 533 358 l 42 110 z "},"≥":{"ha":658,"x_min":42,"x_max":617,"o":"m 42 214 l 42 390 l 344 501 l 42 613 l 42 789 l 617 542 l 617 461 l 42 214 m 42 0 l 42 149 l 617 149 l 617 0 l 42 0 z "},"«":{"ha":635,"x_min":28,"x_max":614,"o":"m 614 142 l 321 360 l 321 446 l 614 663 l 614 489 l 490 406 l 614 311 l 614 142 m 321 142 l 28 360 l 28 446 l 321 663 l 321 489 l 197 406 l 321 311 l 321 142 z "},"»":{"ha":635,"x_min":21,"x_max":607,"o":"m 314 142 l 314 311 l 438 406 l 314 489 l 314 663 l 607 446 l 607 360 l 314 142 m 21 142 l 21 311 l 144 406 l 21 489 l 21 663 l 314 446 l 314 360 l 21 142 z "},"‹":{"ha":469,"x_min":36,"x_max":433,"o":"m 218 110 l 36 406 l 218 694 l 433 694 l 251 406 l 433 110 l 218 110 z "},"›":{"ha":469,"x_min":36,"x_max":433,"o":"m 36 110 l 218 406 l 36 694 l 251 694 l 433 406 l 251 110 l 36 110 z "},"h":{"ha":657,"x_min":58,"x_max":615,"o":"m 58 -11 l 58 994 l 232 994 l 232 758 q 268 766 247 764 q 307 768 289 768 l 307 597 q 265 585 282 597 q 241 561 249 574 q 233 544 233 549 l 233 -11 l 58 -11 m 442 -11 l 442 544 q 436 560 442 547 q 417 585 431 574 q 375 597 403 597 l 375 768 q 505 738 451 768 q 587 659 558 707 q 615 558 615 611 l 615 -11 l 442 -11 z "},"˝":{"ha":494,"x_min":35,"x_max":485,"o":"m 257 840 l 308 1051 l 485 1051 l 383 840 l 257 840 m 35 840 l 86 1051 l 263 1051 l 161 840 l 35 840 z "},"-":{"ha":578,"x_min":69,"x_max":508,"o":"m 69 319 l 69 496 l 508 496 l 508 319 l 69 319 z "},"i":{"ha":340,"x_min":69,"x_max":271,"o":"m 79 0 l 79 781 l 265 781 l 265 0 l 79 0 m 171 849 q 99 878 129 849 q 69 949 69 908 q 99 1019 69 989 q 171 1049 129 1049 q 241 1019 211 1049 q 271 949 271 989 q 241 878 271 908 q 171 849 211 849 z "},"í":{"ha":242,"x_min":36,"x_max":285,"o":"m 57 874 l 108 1085 l 285 1085 l 183 874 l 57 874 m 36 0 l 36 717 l 206 717 l 206 0 l 36 0 z "},"î":{"ha":242,"x_min":-31,"x_max":272,"o":"m -31 874 l 74 1085 l 165 1085 l 272 874 l 158 874 l 119 953 l 82 874 l -31 874 m 36 0 l 36 717 l 206 717 l 206 0 l 36 0 z "},"ï":{"ha":242,"x_min":-101,"x_max":343,"o":"m 239 874 q 165 904 196 874 q 135 978 135 935 q 165 1053 135 1022 q 239 1083 196 1083 q 313 1053 283 1083 q 343 978 343 1022 q 313 904 343 935 q 239 874 283 874 m 3 874 q -71 904 -40 874 q -101 978 -101 935 q -71 1053 -101 1022 q 3 1083 -40 1083 q 77 1053 47 1083 q 107 978 107 1022 q 77 904 107 935 q 3 874 47 874 m 36 0 l 36 717 l 206 717 l 206 0 l 36 0 z "},"ì":{"ha":242,"x_min":-44,"x_max":206,"o":"m 57 874 l -44 1085 l 132 1085 l 183 874 l 57 874 m 36 0 l 36 717 l 206 717 l 206 0 l 36 0 z "},"ī":{"ha":242,"x_min":-99,"x_max":340,"o":"m -99 874 l -99 988 l 340 988 l 340 874 l -99 874 m 36 0 l 36 717 l 206 717 l 206 0 l 36 0 z "},"∞":{"ha":1108,"x_min":42,"x_max":1067,"o":"m 326 0 l 326 164 q 358 168 346 164 q 375 182 369 172 l 467 364 l 378 538 q 358 550 371 546 q 326 554 346 554 l 326 718 q 451 688 400 718 q 524 614 501 657 l 558 547 l 592 614 q 665 688 614 657 q 789 718 717 718 l 789 554 q 757 550 769 554 q 738 538 744 546 l 649 364 l 740 182 q 759 168 747 172 q 789 164 771 164 l 789 0 q 673 30 718 0 q 600 103 628 60 l 558 186 l 515 103 q 443 30 489 60 q 326 0 397 0 m 269 0 q 168 21 211 0 q 97 74 125 42 q 56 139 69 106 q 42 197 42 172 l 42 524 q 56 582 42 549 q 98 647 69 615 q 169 698 126 678 q 269 718 213 718 l 269 554 q 231 546 244 554 q 213 526 218 538 q 208 506 208 515 l 208 215 q 214 188 208 200 q 233 170 219 176 q 269 164 247 164 l 269 0 m 846 0 l 846 164 q 882 172 869 164 q 899 191 894 179 q 904 213 904 203 l 904 506 q 899 531 904 521 q 882 548 894 542 q 846 554 869 554 l 846 718 q 943 698 901 718 q 1012 647 985 678 q 1053 582 1039 615 q 1067 524 1067 549 l 1067 197 q 1053 138 1067 172 q 1013 73 1040 104 q 944 21 985 42 q 846 0 903 0 z "},"∫":{"ha":474,"x_min":42,"x_max":432,"o":"m 42 -285 l 42 -194 q 65 -187 44 -194 q 112 -158 86 -179 q 157 -100 138 -137 q 176 -4 176 -62 l 176 868 q 204 994 176 943 q 273 1078 232 1046 q 358 1124 314 1110 q 432 1138 401 1138 l 432 1047 q 409 1042 429 1047 q 363 1020 389 1038 q 319 967 338 1003 q 300 868 300 931 l 300 -4 q 272 -133 300 -79 q 202 -219 244 -186 q 117 -269 160 -253 q 42 -285 74 -285 z "},"į":{"ha":340,"x_min":69,"x_max":342,"o":"m 342 -275 q 203 -242 254 -275 q 130 -158 151 -208 q 108 -54 108 -107 l 236 -54 q 270 -130 236 -111 q 342 -149 304 -149 l 342 -275 m 79 0 l 79 781 l 265 781 l 265 0 l 79 0 m 171 849 q 99 878 129 849 q 69 949 69 908 q 99 1019 69 989 q 171 1049 129 1049 q 241 1019 211 1049 q 271 949 271 989 q 241 878 271 908 q 171 849 211 849 z "},"j":{"ha":336,"x_min":-58,"x_max":267,"o":"m -58 -276 l -17 -99 l 24 -99 q 56 -89 46 -99 q 71 -69 67 -79 q 75 -58 75 -60 l 75 750 l 261 750 l 261 -58 q 247 -122 261 -85 q 203 -194 232 -160 q 131 -253 175 -229 q 29 -276 88 -276 l -58 -276 m 167 804 q 95 834 125 804 q 65 904 65 864 q 95 974 65 944 q 167 1004 125 1004 q 237 974 207 1004 q 267 904 267 944 q 237 834 267 864 q 167 804 207 804 z "},"k":{"ha":694,"x_min":58,"x_max":667,"o":"m 465 0 l 290 399 l 461 792 l 664 792 l 489 399 l 667 0 l 465 0 m 58 0 l 58 994 l 250 994 l 250 0 l 58 0 z "},"l":{"ha":317,"x_min":58,"x_max":258,"o":"m 58 0 l 58 994 l 258 994 l 258 0 l 58 0 z "},"ĺ":{"ha":317,"x_min":58,"x_max":321,"o":"m 93 1139 l 144 1350 l 321 1350 l 219 1139 l 93 1139 m 58 0 l 58 994 l 258 994 l 258 0 l 58 0 z "},"ľ":{"ha":565,"x_min":43,"x_max":522,"o":"m 294 843 l 346 1054 l 522 1054 l 471 843 l 294 843 m 43 0 l 43 994 l 243 994 l 243 0 l 43 0 z "},"<":{"ha":575,"x_min":42,"x_max":533,"o":"m 533 110 l 42 358 l 42 447 l 533 694 l 533 514 l 289 406 l 533 286 l 533 110 z "},"≤":{"ha":658,"x_min":42,"x_max":617,"o":"m 617 213 l 42 460 l 42 540 l 617 788 l 617 611 l 314 500 l 617 389 l 617 213 m 42 -1 l 42 147 l 617 147 l 617 -1 l 42 -1 z "},"¬":{"ha":750,"x_min":56,"x_max":681,"o":"m 517 289 l 517 454 l 56 454 l 56 614 l 681 614 l 681 289 l 517 289 z "},"◊":{"ha":575,"x_min":-4,"x_max":581,"o":"m 243 -3 l -4 489 l 243 981 l 332 981 l 581 489 l 332 -3 l 243 -3 m 285 244 l 404 489 l 285 733 l 176 489 l 285 244 z "},"ł":{"ha":589,"x_min":56,"x_max":572,"o":"m 156 290 l 56 419 l 472 744 l 572 615 l 156 290 m 221 -12 l 221 982 l 421 982 l 421 -12 l 221 -12 z "},"m":{"ha":1058,"x_min":53,"x_max":1006,"o":"m 435 0 l 435 553 q 420 592 435 576 q 368 608 406 608 l 368 793 q 460 779 421 793 q 529 742 499 765 q 599 780 560 767 q 689 793 638 793 l 689 608 q 638 592 651 608 q 624 553 624 575 l 624 0 l 435 0 m 53 0 l 53 576 q 69 642 53 606 q 117 714 85 679 q 195 771 149 749 q 304 793 242 793 l 304 608 q 255 590 268 608 q 242 553 242 571 l 242 0 l 53 0 m 817 0 l 817 553 q 803 593 817 578 q 751 608 789 608 l 751 793 q 862 770 814 793 q 942 713 910 747 q 990 641 974 678 q 1006 576 1006 604 l 1006 0 l 817 0 z "},"¯":{"ha":708,"x_min":42,"x_max":667,"o":"m 42 989 l 42 1138 l 667 1138 l 667 989 l 42 989 z "},"−":{"ha":578,"x_min":69,"x_max":508,"o":"m 69 319 l 69 496 l 508 496 l 508 319 l 69 319 z "},"×":{"ha":968,"x_min":139,"x_max":829,"o":"m 264 233 l 140 357 l 361 579 l 139 803 l 263 926 l 485 704 l 706 925 l 829 801 l 608 581 l 829 360 l 704 236 l 485 456 l 264 233 z "},"n":{"ha":676,"x_min":53,"x_max":622,"o":"m 53 526 q 71 633 53 585 q 122 717 89 682 q 201 772 156 753 q 303 792 247 792 l 303 611 q 267 600 282 611 q 244 568 253 589 q 236 518 236 547 l 236 0 l 53 0 l 53 526 m 439 518 q 431 568 439 547 q 408 600 424 589 q 372 611 393 611 l 372 792 q 474 772 428 792 q 553 717 519 753 q 604 633 586 682 q 622 526 622 585 l 622 0 l 439 0 l 439 518 z "},"ń":{"ha":676,"x_min":53,"x_max":622,"o":"m 275 878 l 326 1089 l 503 1089 l 401 878 l 275 878 m 53 526 q 71 633 53 585 q 122 717 89 682 q 201 772 156 753 q 303 792 247 792 l 303 611 q 267 600 282 611 q 244 568 253 589 q 236 518 236 547 l 236 0 l 53 0 l 53 526 m 439 518 q 431 568 439 547 q 408 600 424 589 q 372 611 393 611 l 372 792 q 474 772 428 792 q 553 717 519 753 q 604 633 586 682 q 622 526 622 585 l 622 0 l 439 0 l 439 518 z "}," ":{"ha":319,"x_min":0,"x_max":0,"o":""},"ň":{"ha":676,"x_min":53,"x_max":622,"o":"m 290 878 l 186 1089 l 299 1089 l 336 1010 l 375 1089 l 489 1089 l 382 878 l 290 878 m 53 526 q 71 633 53 585 q 122 717 89 682 q 201 772 156 753 q 303 792 247 792 l 303 611 q 267 600 282 611 q 244 568 253 589 q 236 518 236 547 l 236 0 l 53 0 l 53 526 m 439 518 q 431 568 439 547 q 408 600 424 589 q 372 611 393 611 l 372 792 q 474 772 428 792 q 553 717 519 753 q 604 633 586 682 q 622 526 622 585 l 622 0 l 439 0 l 439 518 z "},"≠":{"ha":581,"x_min":69,"x_max":511,"o":"m 82 -108 l 325 918 l 500 918 l 258 -108 l 82 -108 m 69 451 l 69 628 l 511 628 l 511 451 l 69 451 m 69 182 l 69 358 l 511 358 l 511 182 l 69 182 z "},"ñ":{"ha":676,"x_min":53,"x_max":622,"o":"m 417 878 q 351 892 381 878 q 295 919 322 906 q 235 933 268 933 q 194 926 217 933 q 143 903 171 919 l 143 1044 q 197 1068 172 1061 q 240 1075 221 1075 q 304 1061 276 1075 q 360 1033 332 1047 q 422 1018 388 1018 q 472 1027 446 1018 q 533 1057 499 1036 l 533 917 q 469 886 499 894 q 417 878 440 878 m 53 526 q 71 633 53 585 q 122 717 89 682 q 201 772 156 753 q 303 792 247 792 l 303 611 q 267 600 282 611 q 244 568 253 589 q 236 518 236 547 l 236 0 l 53 0 l 53 526 m 439 518 q 431 568 439 547 q 408 600 424 589 q 372 611 393 611 l 372 792 q 474 772 428 792 q 553 717 519 753 q 604 633 586 682 q 622 526 622 585 l 622 0 l 439 0 l 439 518 z "},"#":{"ha":1046,"x_min":39,"x_max":992,"o":"m 196 31 l 233 244 l 39 244 l 74 413 l 264 413 l 289 561 l 86 561 l 117 729 l 319 729 l 357 947 l 525 947 l 486 728 l 633 728 l 671 947 l 839 947 l 800 728 l 992 728 l 965 560 l 771 561 l 744 411 l 943 411 l 918 243 l 715 244 l 678 31 l 511 31 l 547 244 l 401 244 l 364 31 l 196 31 m 578 411 l 603 561 l 457 561 l 431 413 l 578 411 z "},"o":{"ha":661,"x_min":53,"x_max":622,"o":"m 303 -1 q 208 17 253 -1 q 128 68 163 35 q 73 149 93 101 q 53 254 53 196 l 53 526 q 71 633 53 585 q 122 717 89 682 q 201 772 156 753 q 303 792 247 792 l 303 611 q 267 600 282 611 q 244 568 253 589 q 236 518 236 547 l 236 261 q 244 219 236 238 q 268 190 253 200 q 303 179 283 179 l 303 -1 m 372 -1 l 372 179 q 407 190 392 179 q 431 219 422 200 q 439 261 439 238 l 439 518 q 431 568 439 547 q 408 600 424 589 q 372 611 393 611 l 372 792 q 474 772 428 792 q 553 717 519 753 q 604 633 586 682 q 622 526 622 585 l 622 254 q 602 149 622 196 q 547 68 582 101 q 467 17 513 35 q 372 -1 422 -1 z "},"ó":{"ha":661,"x_min":53,"x_max":622,"o":"m 271 874 l 322 1085 l 499 1085 l 397 874 l 271 874 m 303 -1 q 208 17 253 -1 q 128 68 163 35 q 73 149 93 101 q 53 254 53 196 l 53 526 q 71 633 53 585 q 122 717 89 682 q 201 772 156 753 q 303 792 247 792 l 303 611 q 267 600 282 611 q 244 568 253 589 q 236 518 236 547 l 236 261 q 244 219 236 238 q 268 190 253 200 q 303 179 283 179 l 303 -1 m 372 -1 l 372 179 q 407 190 392 179 q 431 219 422 200 q 439 261 439 238 l 439 518 q 431 568 439 547 q 408 600 424 589 q 372 611 393 611 l 372 792 q 474 772 428 792 q 553 717 519 753 q 604 633 586 682 q 622 526 622 585 l 622 254 q 602 149 622 196 q 547 68 582 101 q 467 17 513 35 q 372 -1 422 -1 z "},"ô":{"ha":661,"x_min":53,"x_max":622,"o":"m 183 874 l 288 1085 l 379 1085 l 486 874 l 372 874 l 333 953 l 296 874 l 183 874 m 303 -1 q 208 17 253 -1 q 128 68 163 35 q 73 149 93 101 q 53 254 53 196 l 53 526 q 71 633 53 585 q 122 717 89 682 q 201 772 156 753 q 303 792 247 792 l 303 611 q 267 600 282 611 q 244 568 253 589 q 236 518 236 547 l 236 261 q 244 219 236 238 q 268 190 253 200 q 303 179 283 179 l 303 -1 m 372 -1 l 372 179 q 407 190 392 179 q 431 219 422 200 q 439 261 439 238 l 439 518 q 431 568 439 547 q 408 600 424 589 q 372 611 393 611 l 372 792 q 474 772 428 792 q 553 717 519 753 q 604 633 586 682 q 622 526 622 585 l 622 254 q 602 149 622 196 q 547 68 582 101 q 467 17 513 35 q 372 -1 422 -1 z "},"ö":{"ha":661,"x_min":53,"x_max":622,"o":"m 453 874 q 379 904 410 874 q 349 978 349 935 q 379 1053 349 1022 q 453 1083 410 1083 q 527 1053 497 1083 q 557 978 557 1022 q 527 904 557 935 q 453 874 497 874 m 217 874 q 143 904 174 874 q 113 978 113 935 q 143 1053 113 1022 q 217 1083 174 1083 q 291 1053 261 1083 q 321 978 321 1022 q 291 904 321 935 q 217 874 261 874 m 303 -1 q 208 17 253 -1 q 128 68 163 35 q 73 149 93 101 q 53 254 53 196 l 53 526 q 71 633 53 585 q 122 717 89 682 q 201 772 156 753 q 303 792 247 792 l 303 611 q 267 600 282 611 q 244 568 253 589 q 236 518 236 547 l 236 261 q 244 219 236 238 q 268 190 253 200 q 303 179 283 179 l 303 -1 m 372 -1 l 372 179 q 407 190 392 179 q 431 219 422 200 q 439 261 439 238 l 439 518 q 431 568 439 547 q 408 600 424 589 q 372 611 393 611 l 372 792 q 474 772 428 792 q 553 717 519 753 q 604 633 586 682 q 622 526 622 585 l 622 254 q 602 149 622 196 q 547 68 582 101 q 467 17 513 35 q 372 -1 422 -1 z "},"œ":{"ha":932,"x_min":36,"x_max":893,"o":"m 321 -1 l 321 157 q 358 164 344 157 q 376 183 371 171 q 382 208 382 194 l 382 503 q 376 531 382 521 q 356 547 369 542 q 321 553 343 553 l 321 717 q 403 705 372 717 q 461 671 435 693 q 523 704 489 692 q 600 717 557 717 l 600 557 q 567 549 581 557 q 545 529 553 542 q 538 504 538 517 l 538 450 l 733 450 l 733 499 q 724 531 733 518 q 699 551 714 544 q 668 557 683 557 l 668 717 q 771 690 719 717 q 857 621 822 664 q 892 525 892 578 l 892 289 l 538 289 l 538 221 q 549 183 538 199 q 585 158 561 167 q 644 150 608 150 q 715 163 682 150 q 756 218 747 176 l 893 167 q 801 42 872 83 q 635 0 731 0 q 535 14 575 0 q 464 47 496 28 q 406 12 438 25 q 321 -1 374 -1 m 264 -1 q 161 20 204 -1 q 90 74 118 42 q 49 140 63 107 q 36 196 36 174 l 36 522 q 50 578 36 546 q 92 643 64 611 q 163 696 119 675 q 264 717 206 717 l 264 553 q 226 547 240 553 q 208 529 213 540 q 203 504 203 518 l 203 211 q 209 183 203 196 q 228 164 215 171 q 264 157 242 157 l 264 -1 z "},"˛":{"ha":304,"x_min":-86,"x_max":147,"o":"m 147 -276 q 8 -243 60 -276 q -65 -159 -43 -210 q -86 -56 -86 -108 l 42 -56 q 76 -131 42 -112 q 147 -150 110 -150 l 147 -276 z "},"ò":{"ha":661,"x_min":53,"x_max":622,"o":"m 271 874 l 169 1085 l 346 1085 l 397 874 l 271 874 m 303 -1 q 208 17 253 -1 q 128 68 163 35 q 73 149 93 101 q 53 254 53 196 l 53 526 q 71 633 53 585 q 122 717 89 682 q 201 772 156 753 q 303 792 247 792 l 303 611 q 267 600 282 611 q 244 568 253 589 q 236 518 236 547 l 236 261 q 244 219 236 238 q 268 190 253 200 q 303 179 283 179 l 303 -1 m 372 -1 l 372 179 q 407 190 392 179 q 431 219 422 200 q 439 261 439 238 l 439 518 q 431 568 439 547 q 408 600 424 589 q 372 611 393 611 l 372 792 q 474 772 428 792 q 553 717 519 753 q 604 633 586 682 q 622 526 622 585 l 622 254 q 602 149 622 196 q 547 68 582 101 q 467 17 513 35 q 372 -1 422 -1 z "},"ő":{"ha":661,"x_min":53,"x_max":626,"o":"m 399 874 l 450 1085 l 626 1085 l 525 874 l 399 874 m 176 874 l 228 1085 l 404 1085 l 303 874 l 176 874 m 303 -1 q 208 17 253 -1 q 128 68 163 35 q 73 149 93 101 q 53 254 53 196 l 53 526 q 71 633 53 585 q 122 717 89 682 q 201 772 156 753 q 303 792 247 792 l 303 611 q 267 600 282 611 q 244 568 253 589 q 236 518 236 547 l 236 261 q 244 219 236 238 q 268 190 253 200 q 303 179 283 179 l 303 -1 m 372 -1 l 372 179 q 407 190 392 179 q 431 219 422 200 q 439 261 439 238 l 439 518 q 431 568 439 547 q 408 600 424 589 q 372 611 393 611 l 372 792 q 474 772 428 792 q 553 717 519 753 q 604 633 586 682 q 622 526 622 585 l 622 254 q 602 149 622 196 q 547 68 582 101 q 467 17 513 35 q 372 -1 422 -1 z "},"ō":{"ha":661,"x_min":53,"x_max":622,"o":"m 115 874 l 115 988 l 554 988 l 554 874 l 115 874 m 303 -1 q 208 17 253 -1 q 128 68 163 35 q 73 149 93 101 q 53 254 53 196 l 53 526 q 71 633 53 585 q 122 717 89 682 q 201 772 156 753 q 303 792 247 792 l 303 611 q 267 600 282 611 q 244 568 253 589 q 236 518 236 547 l 236 261 q 244 219 236 238 q 268 190 253 200 q 303 179 283 179 l 303 -1 m 372 -1 l 372 179 q 407 190 392 179 q 431 219 422 200 q 439 261 439 238 l 439 518 q 431 568 439 547 q 408 600 424 589 q 372 611 393 611 l 372 792 q 474 772 428 792 q 553 717 519 753 q 604 633 586 682 q 622 526 622 585 l 622 254 q 602 149 622 196 q 547 68 582 101 q 467 17 513 35 q 372 -1 422 -1 z "},"½":{"ha":808,"x_min":0,"x_max":767,"o":"m 121 486 l 121 843 l 68 843 l 68 931 l 121 972 l 233 972 l 233 486 l 121 486 m 0 0 l 600 972 l 706 972 l 115 0 l 0 0 m 524 326 l 425 344 q 447 419 425 388 q 503 468 469 450 q 571 486 538 486 l 571 379 q 542 367 560 378 q 524 326 524 357 m 425 140 q 435 178 425 161 q 461 208 444 194 q 499 231 478 221 q 540 251 519 242 q 622 289 589 274 q 656 335 656 304 q 642 366 656 354 q 610 379 629 378 l 610 486 q 692 467 657 486 q 747 414 728 447 q 767 338 767 381 q 735 250 767 279 q 664 201 703 221 q 626 184 644 192 q 592 169 607 176 q 569 156 578 163 q 560 140 560 149 l 425 140 m 425 0 l 425 104 l 753 104 l 753 0 l 425 0 z "},"¼":{"ha":706,"x_min":0,"x_max":706,"o":"m 0 0 l 600 972 l 706 972 l 115 0 l 0 0 m 328 85 l 328 182 l 478 443 l 478 243 l 446 182 l 478 182 l 478 85 l 328 85 m 517 0 l 517 488 l 628 488 l 628 182 l 665 182 l 665 85 l 628 85 l 628 0 l 517 0 m 121 486 l 121 843 l 68 843 l 68 931 l 121 972 l 233 972 l 233 486 l 121 486 z "},"¹":{"ha":213,"x_min":15,"x_max":151,"o":"m 63 533 l 63 856 l 15 856 l 15 933 l 63 971 l 151 971 l 151 533 l 63 533 z "},"ª":{"ha":344,"x_min":21,"x_max":314,"o":"m 26 451 l 26 546 l 313 546 l 313 451 l 26 451 m 138 582 q 74 596 100 582 q 34 631 47 610 q 21 674 21 651 l 21 710 q 22 728 21 715 q 31 754 24 740 q 58 778 39 768 q 88 791 69 785 q 126 803 106 797 q 164 817 146 810 q 194 833 182 825 q 206 850 206 840 l 206 865 q 202 878 206 872 q 192 888 199 885 q 175 893 186 892 l 175 978 q 240 960 214 978 q 281 917 267 942 q 294 872 294 893 l 294 690 q 297 677 294 686 q 314 668 300 668 l 314 582 q 274 588 290 582 q 246 604 257 594 q 215 588 232 593 q 175 582 197 582 l 175 668 q 194 673 188 668 q 203 684 200 678 q 206 696 206 690 l 206 753 q 179 740 194 746 q 149 731 164 735 q 123 724 135 726 q 107 718 111 721 q 97 703 97 714 l 97 693 q 101 679 97 685 q 113 671 104 674 q 138 668 121 668 l 138 582 m 106 849 l 25 879 q 42 929 25 907 q 85 965 60 951 q 139 978 111 978 l 139 893 q 120 888 128 893 q 109 872 113 882 q 106 849 106 863 z "},"º":{"ha":319,"x_min":31,"x_max":288,"o":"m 36 501 l 36 600 l 283 600 l 283 501 l 36 501 m 143 626 q 100 634 121 626 q 64 657 79 642 q 40 693 49 672 q 31 740 31 714 l 31 864 q 39 912 31 890 q 62 949 47 933 q 97 974 76 965 q 143 983 118 983 l 143 901 q 127 897 133 901 q 117 882 121 892 q 114 860 114 872 l 114 744 q 117 725 114 733 q 128 712 121 717 q 143 707 135 707 l 143 626 m 175 626 l 175 707 q 190 712 183 707 q 201 725 197 717 q 204 744 204 733 l 204 860 q 201 882 204 872 q 190 897 197 892 q 175 901 183 901 l 175 983 q 220 974 200 983 q 256 949 240 965 q 279 912 271 933 q 288 864 288 890 l 288 740 q 278 693 288 714 q 253 657 269 672 q 217 634 238 642 q 175 626 197 626 z "},"ø":{"ha":692,"x_min":0,"x_max":692,"o":"m 321 -1 q 209 24 254 -1 q 136 88 164 50 l 74 31 l 0 114 l 93 199 q 93 212 93 206 q 93 224 93 218 l 93 522 q 107 581 93 547 q 149 645 121 614 q 221 697 178 676 q 321 717 264 717 l 321 553 q 283 544 296 553 q 265 525 269 536 q 260 504 260 514 l 260 351 l 436 514 q 422 542 435 532 q 378 553 408 553 l 378 717 q 488 691 443 717 q 558 626 532 665 l 618 681 l 692 597 l 599 513 q 599 501 599 507 q 599 488 599 494 l 599 196 q 585 137 599 171 q 544 72 572 103 q 476 19 517 40 q 378 -1 435 -1 l 378 163 q 414 171 401 163 q 431 190 426 179 q 436 211 436 201 l 436 363 l 261 201 q 278 173 264 183 q 321 163 292 163 l 321 -1 z "},"õ":{"ha":661,"x_min":53,"x_max":622,"o":"m 413 874 q 347 888 376 874 q 291 915 318 901 q 231 929 264 929 q 190 922 213 929 q 139 899 167 915 l 139 1040 q 192 1064 168 1057 q 236 1071 217 1071 q 300 1057 272 1071 q 356 1028 328 1043 q 418 1014 383 1014 q 468 1023 442 1014 q 529 1053 494 1032 l 529 913 q 465 882 494 890 q 413 874 436 874 m 303 -1 q 208 17 253 -1 q 128 68 163 35 q 73 149 93 101 q 53 254 53 196 l 53 526 q 71 633 53 585 q 122 717 89 682 q 201 772 156 753 q 303 792 247 792 l 303 611 q 267 600 282 611 q 244 568 253 589 q 236 518 236 547 l 236 261 q 244 219 236 238 q 268 190 253 200 q 303 179 283 179 l 303 -1 m 372 -1 l 372 179 q 407 190 392 179 q 431 219 422 200 q 439 261 439 238 l 439 518 q 431 568 439 547 q 408 600 424 589 q 372 611 393 611 l 372 792 q 474 772 428 792 q 553 717 519 753 q 604 633 586 682 q 622 526 622 585 l 622 254 q 602 149 622 196 q 547 68 582 101 q 467 17 513 35 q 372 -1 422 -1 z "},"p":{"ha":668,"x_min":54,"x_max":606,"o":"m 319 0 l 319 181 l 367 181 q 403 190 392 181 q 419 208 415 199 q 422 218 422 217 l 422 574 q 419 584 422 575 q 403 602 415 593 q 367 611 392 611 l 319 611 l 319 792 l 367 792 q 473 768 428 792 q 547 710 518 744 q 591 638 576 675 q 606 576 606 601 l 606 215 q 591 153 606 190 q 547 82 576 117 q 473 24 518 47 q 367 0 428 0 l 319 0 m 54 -276 l 54 792 l 250 792 l 250 -276 l 54 -276 z "},"¶":{"ha":668,"x_min":49,"x_max":593,"o":"m 283 -7 l 283 457 q 112 528 175 457 q 49 710 49 600 q 78 846 49 785 q 160 943 107 907 q 283 979 213 979 l 399 979 l 399 -7 l 283 -7 m 478 -7 l 478 979 l 593 979 l 593 -7 l 478 -7 z "},"(":{"ha":310,"x_min":56,"x_max":282,"o":"m 282 -51 q 135 38 183 -10 q 71 140 86 85 q 56 263 56 196 l 56 708 q 72 833 56 782 q 117 918 88 883 q 188 976 146 953 q 281 1021 229 1000 l 282 900 q 237 863 256 885 q 209 807 218 840 q 200 724 200 774 l 200 281 q 210 172 200 213 q 240 109 221 132 q 282 71 258 86 l 282 -51 z "},")":{"ha":310,"x_min":28,"x_max":254,"o":"m 28 -51 l 28 71 q 61 97 46 82 q 88 136 76 113 q 105 194 99 160 q 111 281 111 229 l 111 724 q 101 807 111 774 q 74 863 92 840 q 28 900 56 885 l 29 1021 q 149 959 99 994 q 226 865 199 924 q 254 708 254 807 l 254 263 q 246 169 254 213 q 215 86 238 125 q 147 13 192 47 q 28 -51 101 -21 z "},"∂":{"ha":583,"x_min":39,"x_max":544,"o":"m 324 -1 l 324 163 q 360 172 347 163 q 377 194 372 181 q 382 218 382 207 l 382 490 q 377 522 382 508 q 360 544 372 536 q 324 553 347 553 l 324 717 q 352 716 339 717 q 379 711 365 715 q 357 789 379 754 q 297 848 335 824 q 207 885 258 872 q 97 899 156 899 l 97 992 q 350 951 251 992 q 497 828 449 911 q 544 614 544 744 l 544 196 q 531 137 544 171 q 490 72 518 103 q 422 19 463 40 q 324 -1 381 -1 m 267 -1 q 165 19 208 -1 q 94 72 122 40 q 53 138 67 104 q 39 196 39 171 l 39 522 q 53 581 39 547 q 95 645 67 614 q 167 697 124 676 q 267 717 210 717 l 267 553 q 228 542 242 553 q 210 517 215 532 q 206 490 206 503 l 206 214 q 211 187 206 199 q 231 169 217 175 q 267 163 244 163 l 267 -1 z "},"%":{"ha":874,"x_min":36,"x_max":838,"o":"m 222 -32 l 465 994 l 640 994 l 399 -32 l 222 -32 m 688 13 q 581 56 625 13 q 538 163 538 100 q 581 269 538 225 q 688 313 625 313 q 794 269 750 313 q 838 163 838 225 q 794 56 838 100 q 688 13 750 13 m 186 649 q 80 692 124 649 q 36 799 36 736 q 80 905 36 861 q 186 949 124 949 q 292 905 249 949 q 336 799 336 861 q 292 692 336 736 q 186 649 249 649 z "},".":{"ha":292,"x_min":42,"x_max":250,"o":"m 146 -7 q 72 24 103 -7 q 42 97 42 54 q 72 172 42 142 q 146 203 103 203 q 220 172 190 203 q 250 97 250 142 q 220 24 250 54 q 146 -7 190 -7 z "},"·":{"ha":347,"x_min":76,"x_max":285,"o":"m 181 399 q 107 429 138 399 q 76 503 76 460 q 107 578 76 547 q 181 608 138 608 q 255 578 225 608 q 285 503 285 547 q 255 429 285 460 q 181 399 225 399 z "},"‰":{"ha":1246,"x_min":22,"x_max":1222,"o":"m 90 0 l 690 972 l 796 972 l 206 0 l 90 0 m 169 489 q 122 499 147 489 q 74 534 96 508 q 37 608 51 560 q 22 732 22 656 q 47 887 22 835 q 106 957 71 939 q 169 975 140 975 l 169 868 q 142 845 150 864 q 131 799 133 826 q 129 740 129 772 l 129 725 q 131 665 129 693 q 142 619 133 638 q 169 596 150 601 l 169 489 m 679 0 q 631 10 657 0 q 583 45 606 19 q 547 119 561 71 q 532 243 532 167 q 556 398 532 346 q 615 468 581 450 q 679 486 650 486 l 679 379 q 651 356 660 375 q 641 310 643 338 q 639 251 639 283 l 639 236 q 641 176 639 204 q 651 131 643 149 q 679 107 660 113 l 679 0 m 207 489 l 207 596 q 235 619 226 601 q 245 665 243 638 q 247 725 247 693 l 247 740 q 245 799 247 772 q 235 845 243 826 q 207 868 226 864 l 207 975 q 272 957 238 975 q 330 887 306 939 q 354 732 354 835 q 340 608 354 656 q 303 534 325 560 q 255 499 281 508 q 207 489 229 489 m 717 0 l 717 107 q 744 131 736 113 q 755 176 753 149 q 757 236 757 204 l 757 251 q 755 310 757 283 q 744 356 753 338 q 717 379 736 375 l 717 486 q 781 468 747 486 q 840 398 815 450 q 864 243 864 346 q 849 119 864 167 q 813 45 835 71 q 765 10 790 19 q 717 0 739 0 m 1038 0 q 990 10 1015 0 q 942 45 964 19 q 905 119 919 71 q 890 243 890 167 q 915 398 890 346 q 974 468 939 450 q 1038 486 1008 486 l 1038 379 q 1010 356 1018 375 q 999 310 1001 338 q 997 251 997 283 l 997 236 q 999 176 997 204 q 1010 131 1001 149 q 1038 107 1018 113 l 1038 0 m 1075 0 l 1075 107 q 1103 131 1094 113 q 1113 176 1111 149 q 1115 236 1115 204 l 1115 251 q 1113 310 1115 283 q 1103 356 1111 338 q 1075 379 1094 375 l 1075 486 q 1140 468 1106 486 q 1198 398 1174 450 q 1222 243 1222 346 q 1208 119 1222 167 q 1171 45 1193 71 q 1123 10 1149 19 q 1075 0 1097 0 z "}}}
